<svg width="32" height="32" viewBox="0 0 32 32" fill="none" xmlns="http://www.w3.org/2000/svg">
<path fill-rule="evenodd" clip-rule="evenodd" d="M16 32C24.8366 32 32 24.8366 32 16C32 7.16344 24.8366 0 16 0C7.16344 0 0 7.16344 0 16C0 24.8366 7.16344 32 16 32ZM17.7534 4.46753C17.7534 4.15584 17.6164 4 17.3425 4H14.6575C14.3836 4 14.2466 4.15584 14.2466 4.46753V15.3143C14.2466 15.5325 14.2466 15.7195 14.274 15.9377L14.9041 20.7065C14.9589 21.0493 15.0959 21.2052 15.3151 21.2052H16.6575C16.9041 21.2052 17.0411 21.0493 17.0685 20.7065L17.6986 15.9377L17.7534 15.3143V4.46753ZM18 25.8493C18 24.4779 17.2603 23.6987 16.0274 23.6987C14.7397 23.6987 14 24.4779 14 25.8493C14 27.2208 14.7397 28 16.0274 28C17.2603 28 18 27.2208 18 25.8493Z" fill="white"/>
</svg>
