<svg width="32" height="32" viewBox="0 0 32 32" fill="none" xmlns="http://www.w3.org/2000/svg">
<path d="M3 19C1.34315 19 0 17.6569 0 16C0 14.3431 1.34315 13 3 13H12C12.5523 13 13 12.5523 13 12V3C13 1.34315 14.3431 7.24235e-08 16 0C17.6569 -7.24233e-08 19 1.34315 19 3L19 12C19 12.5523 19.4477 13 20 13H29C30.6569 13 32 14.3431 32 16C32 17.6569 30.6569 19 29 19H20C19.4477 19 19 19.4477 19 20V29C19 30.6569 17.6569 32 16 32C14.3431 32 13 30.6569 13 29L13 20C13 19.4477 12.5523 19 12 19H3Z" fill="white"/>
</svg>
