<svg width="28" height="32" viewBox="0 0 28 32" fill="none" xmlns="http://www.w3.org/2000/svg">
<path d="M21.4624 5.55185C21.6643 5.35181 21.7778 5.0805 21.7778 4.7976L21.7778 1.6C21.7778 0.716344 21.0813 0 20.2222 0C19.3631 0 18.6667 0.716345 18.6667 1.6L18.6667 5.74575C18.6667 6.69605 19.8267 7.17196 20.5051 6.5L21.4624 5.55185Z" fill="white"/>
<path d="M15.2401 11.5519C15.4421 11.3518 15.5556 11.0805 15.5556 10.7976L15.5556 4.8C15.5556 3.91634 14.8591 3.2 14 3.2C13.1409 3.2 12.4444 3.91634 12.4444 4.8L12.4444 11.7458C12.4444 12.6961 13.6044 13.172 14.2829 12.5L15.2401 11.5519Z" fill="white"/>
<path d="M12.4444 20.2542C12.4444 19.9713 12.5579 19.7 12.7599 19.5L13.7171 18.5519C14.3956 17.8799 15.5556 18.3558 15.5556 19.3061L15.5556 27.2C15.5556 28.0837 14.8591 28.8 14 28.8C13.1409 28.8 12.4444 28.0837 12.4444 27.2L12.4444 20.2542Z" fill="white"/>
<path d="M9.01791 16.9712C9.21987 16.7712 9.33333 16.4999 9.33333 16.217V1.6C9.33333 0.716344 8.63689 0 7.77778 0C6.91867 0 6.22222 0.716345 6.22222 1.6V17.1651C6.22222 18.1154 7.38222 18.5913 8.06065 17.9194L9.01791 16.9712Z" fill="white"/>
<path d="M6.22222 26.564C6.22222 26.2811 6.33569 26.0097 6.53765 25.8097L7.49491 24.8616C8.17334 24.1896 9.33333 24.6655 9.33333 25.6158V30.4C9.33333 31.2837 8.63689 32 7.77778 32C6.91867 32 6.22222 31.2837 6.22222 30.4V26.564Z" fill="white"/>
<path d="M18.6667 14.238C18.6667 13.9551 18.7801 13.6838 18.9821 13.4838L19.9394 12.5356C20.6178 11.8637 21.7778 12.3396 21.7778 13.2899V30.4C21.7778 31.2837 21.0813 32 20.2222 32C19.3631 32 18.6667 31.2837 18.6667 30.4V14.238Z" fill="white"/>
<path d="M24.8889 11.2C24.8889 10.3163 25.5853 9.6 26.4444 9.6C27.3036 9.6 28 10.3163 28 11.2V22.4C28 23.2837 27.3036 24 26.4444 24C25.5853 24 24.8889 23.2837 24.8889 22.4V11.2Z" fill="white"/>
<path d="M1.55555 8C0.696444 8 0 8.71635 0 9.6V20.8C0 21.6837 0.696444 22.4 1.55555 22.4C2.41466 22.4 3.11111 21.6837 3.11111 20.8V9.6C3.11111 8.71635 2.41466 8 1.55555 8Z" fill="white"/>
<path d="M0.968312 27.8516C0.426279 27.2483 0.462296 26.3233 1.0496 25.7639L24.8822 3.06467C25.4942 2.48176 26.4668 2.51963 27.0316 3.14836C27.5737 3.75171 27.5376 4.67671 26.9503 5.23609L3.11776 27.9353C2.50575 28.5182 1.53315 28.4804 0.968312 27.8516Z" fill="white"/>
</svg>
