<svg width="28" height="32" viewBox="0 0 28 32" fill="none" xmlns="http://www.w3.org/2000/svg">
<path d="M12.4444 4.8C12.4444 3.91634 13.1409 3.2 14 3.2C14.8591 3.2 15.5556 3.91634 15.5556 4.8V27.2C15.5556 28.0837 14.8591 28.8 14 28.8C13.1409 28.8 12.4444 28.0837 12.4444 27.2V4.8Z" fill="white"/>
<path d="M24.8889 9.6C24.8889 8.71634 25.5853 8 26.4444 8C27.3036 8 28 8.71634 28 9.6V22.4C28 23.2837 27.3036 24 26.4444 24C25.5853 24 24.8889 23.2837 24.8889 22.4V9.6Z" fill="white"/>
<path d="M0 9.6C0 8.71634 0.696446 8 1.55556 8C2.41467 8 3.11111 8.71634 3.11111 9.6V22.4C3.11111 23.2837 2.41467 24 1.55556 24C0.696446 24 0 23.2837 0 22.4V9.6Z" fill="white"/>
<path d="M18.6667 1.6C18.6667 0.716345 19.3631 0 20.2222 0C21.0813 0 21.7778 0.716344 21.7778 1.6V30.4C21.7778 31.2837 21.0813 32 20.2222 32C19.3631 32 18.6667 31.2837 18.6667 30.4V1.6Z" fill="white"/>
<path d="M6.22222 1.6C6.22222 0.716345 6.91867 0 7.77778 0C8.63689 0 9.33333 0.716344 9.33333 1.6V30.4C9.33333 31.2837 8.63689 32 7.77778 32C6.91867 32 6.22222 31.2837 6.22222 30.4V1.6Z" fill="white"/>
</svg>
