<svg width="32" height="32" viewBox="0 0 32 32" fill="none" xmlns="http://www.w3.org/2000/svg">
<path d="M32 11V12C32 12.5523 31.5523 13 31 13L23 13C20.7909 13 19 11.2091 19 9L19 1C19 0.447715 19.4477 -4.82823e-08 20 0L21 8.74227e-08C21.5523 1.35705e-07 22 0.447715 22 1L22 9C22 9.55228 22.4477 10 23 10L31 10C31.5523 10 32 10.4477 32 11Z" fill="white"/>
<path d="M21 32H20C19.4477 32 19 31.5523 19 31V23C19 20.7909 20.7909 19 23 19H31C31.5523 19 32 19.4477 32 20V21C32 21.5523 31.5523 22 31 22H23C22.4477 22 22 22.4477 22 23V31C22 31.5523 21.5523 32 21 32Z" fill="white"/>
<path d="M5.24537e-07 21V20C5.24537e-07 19.4477 0.447716 19 1 19H9C11.2091 19 13 20.7909 13 23V31C13 31.5523 12.5523 32 12 32H11C10.4477 32 10 31.5523 10 31V23C10 22.4477 9.55229 22 9 22H1C0.447716 22 5.24537e-07 21.5523 5.24537e-07 21Z" fill="white"/>
<path d="M11 1.24577e-06L12 1.28949e-06C12.5523 1.31363e-06 13 0.447717 13 1L13 9C13 11.2091 11.2091 13 9 13H1C0.447715 13 -2.41412e-08 12.5523 0 12L4.37115e-08 11C6.78526e-08 10.4477 0.447715 10 1 10H9C9.55228 10 10 9.55229 10 9L10 1C10 0.447716 10.4477 1.22163e-06 11 1.24577e-06Z" fill="white"/>
</svg>
