<svg width="22" height="32" viewBox="0 0 22 32" fill="none" xmlns="http://www.w3.org/2000/svg">
<path d="M2.44444 2.99628C2.44444 2.59981 1.96636 2.34195 1.56004 2.51926L0.337814 3.05259C0.130779 3.14293 0 3.32761 0 3.52962V29.6458C0 29.7872 0.0643846 29.9229 0.17899 30.0229L2.26545 31.8438C2.38006 31.9438 2.5355 32 2.69757 32H19.3024C19.4645 32 19.6199 31.9438 19.7345 31.8438L21.821 30.0229C21.9356 29.9229 22 29.7872 22 29.6458V3.52962C22 3.32761 21.8692 3.14293 21.6622 3.05259L20.44 2.51926C20.0336 2.34195 19.5556 2.59981 19.5556 2.99628V21.8667C19.5556 22.1612 19.282 22.4 18.9444 22.4H14.0556C13.718 22.4 13.4444 22.6388 13.4444 22.9333V25.0667C13.4444 25.3612 13.1708 25.6 12.8333 25.6H9.16667C8.82916 25.6 8.55556 25.3612 8.55556 25.0667V22.9333C8.55556 22.6388 8.28195 22.4 7.94444 22.4H3.05556C2.71805 22.4 2.44444 22.1612 2.44444 21.8667V2.99628Z" fill="white"/>
<path d="M14.0556 21.3333C13.718 21.3333 13.4444 21.0946 13.4444 20.8V17.6C13.4444 17.3054 13.1708 17.0667 12.8333 17.0667H9.16667C8.82916 17.0667 8.55556 17.3054 8.55556 17.6V20.8C8.55556 21.0946 8.28195 21.3333 7.94444 21.3333H4.27778C3.94027 21.3333 3.66667 21.0946 3.66667 20.8V0.533333C3.66667 0.238781 3.94027 0 4.27778 0H17.7222C18.0597 0 18.3333 0.238781 18.3333 0.533333V20.8C18.3333 21.0946 18.0597 21.3333 17.7222 21.3333H14.0556Z" fill="white"/>
</svg>
