<svg width="30" height="32" viewBox="0 0 30 32" fill="none" xmlns="http://www.w3.org/2000/svg">
<path d="M13 2.80518C13 2.63493 13.0433 2.46747 13.1258 2.31864L14.1258 0.515308C14.5068 -0.17177 15.4932 -0.171769 15.8742 0.51531L16.8742 2.31864C16.9567 2.46747 17 2.63492 17 2.80518V6.95372C17 7.50703 16.5523 7.95557 16 7.95557H14C13.4477 7.95557 13 7.50703 13 6.95372V2.80518Z" fill="white"/>
<path d="M13 14.8274C13 14.6571 13.0433 14.4897 13.1258 14.3409L14.1258 12.5375C14.5068 11.8504 15.4932 11.8504 15.8742 12.5375L16.8742 14.3409C16.9567 14.4897 17 14.6571 17 14.8274V18.9759C17 19.5292 16.5523 19.9778 16 19.9778H14C13.4477 19.9778 13 19.5292 13 18.9759V14.8274Z" fill="white"/>
<path d="M13.1258 26.3631C13.0433 26.5119 13 26.6793 13 26.8496V30.9981C13 31.5515 13.4477 32 14 32H16C16.5523 32 17 31.5515 17 30.9981V26.8496C17 26.6793 16.9567 26.5119 16.8742 26.3631L15.8742 24.5597C15.4932 23.8727 14.5068 23.8727 14.1258 24.5597L13.1258 26.3631Z" fill="white"/>
<path d="M24.6022 2.95897C24.9665 2.87528 25.2859 3.22054 25.1842 3.58823L23.3602 10.1867C23.2374 10.631 23.4251 11.1039 23.8159 11.3347L29.5071 14.6959C30.1263 15.0616 30.1709 15.9592 29.5911 16.3872L23.6845 20.7478C23.3485 20.9958 23.2 21.4323 23.3128 21.8402L25.1131 28.353C25.202 28.6748 24.9657 28.9944 24.6389 28.9944H19.4928C19.2206 28.9944 19 28.7687 19 28.4902V26.9702C19 26.6918 19.2206 26.466 19.4928 26.466L21.7866 26.466C21.9173 26.466 22.0118 26.3381 21.9762 26.2094L20.4863 20.8196C20.3736 20.4117 20.5221 19.9752 20.8581 19.7272L25.679 16.1681C25.9689 15.9541 25.9466 15.5053 25.637 15.3224L20.9366 12.5464C20.5458 12.3156 20.3581 11.8427 20.4809 11.3984L21.8326 6.50876C21.8745 6.35733 21.7383 6.21736 21.5901 6.25954L19.6248 6.81903C19.3108 6.90843 19 6.66678 19 6.33323V4.64935C19 4.41342 19.1599 4.20902 19.3848 4.15735L24.6022 2.95897Z" fill="white"/>
<path d="M4.81575 3.58823C4.71411 3.22054 5.03349 2.87528 5.39784 2.95897L10.6152 4.15735C10.8401 4.20902 11 4.41342 11 4.64935V6.33323C11 6.66678 10.6892 6.90843 10.3752 6.81903L8.40987 6.25954C8.26171 6.21736 8.12551 6.35733 8.16738 6.50876L9.51905 11.3984C9.64187 11.8427 9.45415 12.3156 9.06337 12.5464L4.36297 15.3224C4.05336 15.5053 4.03108 15.9541 4.32098 16.1681L9.14194 19.7272C9.47788 19.9752 9.6264 20.4117 9.51365 20.8196L8.02375 26.2094C7.98817 26.3381 8.08268 26.466 8.21342 26.466L10.5072 26.466C10.7794 26.466 11 26.6918 11 26.9702V28.4902C11 28.7687 10.7794 28.9944 10.5072 28.9944H5.3611C5.03425 28.9944 4.79797 28.6748 4.88693 28.353L6.68725 21.8402C6.79999 21.4323 6.65147 20.9958 6.31554 20.7478L0.408942 16.3872C-0.170871 15.9592 -0.126306 15.0616 0.492918 14.6959L6.18413 11.3347C6.57492 11.1039 6.76263 10.631 6.63982 10.1867L4.81575 3.58823Z" fill="white"/>
</svg>
