<svg width="32" height="20" viewBox="0 0 32 20" fill="none" xmlns="http://www.w3.org/2000/svg">
<path d="M18.1333 0L15.819 9.09103H18.1333L11.7333 20L13.9619 10.9093H11.7333L18.1333 0Z" fill="white"/>
<path d="M15.6064 1.11111H2.13333C0.955126 1.11111 0 2.10603 0 3.33333V16.6667C0 17.894 0.955127 18.8889 2.13333 18.8889H10.3544L10.8992 16.6667H3.2C2.6109 16.6667 2.13333 16.1692 2.13333 15.5556V4.44444C2.13333 3.83079 2.6109 3.33333 3.2 3.33333H14.3027L15.6064 1.11111Z" fill="white"/>
<path d="M12.5505 16.6667L12.0057 18.8889H12.3852L13.6889 16.6667H12.5505Z" fill="white"/>
<path d="M17.2848 3.33333H16.1778L17.4815 1.11111H17.8505L17.2848 3.33333Z" fill="white"/>
<path d="M15.564 16.6667H25.6C26.1891 16.6667 26.6667 16.1692 26.6667 15.5556V13.8889C26.6667 13.5821 26.9054 13.3333 27.2 13.3333H29.3333C29.6279 13.3333 29.8667 13.0846 29.8667 12.7778V7.22222C29.8667 6.9154 29.6279 6.66667 29.3333 6.66667H27.2C26.9054 6.66667 26.6667 6.41794 26.6667 6.11111V4.44444C26.6667 3.8308 26.1891 3.33333 25.6 3.33333H18.9401L19.5058 1.11111H26.6667C27.8449 1.11111 28.8 2.10603 28.8 3.33333V4.44444H30.9333C31.5224 4.44444 32 4.94191 32 5.55556V14.4444C32 15.0581 31.5224 15.5556 30.9333 15.5556H28.8V16.6667C28.8 17.894 27.8449 18.8889 26.6667 18.8889H14.2603L15.564 16.6667Z" fill="white"/>
</svg>
