<svg width="32" height="28" viewBox="0 0 32 28" fill="none" xmlns="http://www.w3.org/2000/svg">
<path d="M17.7778 14C17.7778 15.933 16.1859 17.5 14.2222 17.5C12.2585 17.5 10.6667 15.933 10.6667 14C10.6667 12.067 12.2585 10.5 14.2222 10.5C16.1859 10.5 17.7778 12.067 17.7778 14Z" fill="white"/>
<path d="M15.1111 0.4375C15.1111 0.195875 14.9121 0 14.6667 0H13.7778C13.5323 0 13.3333 0.195875 13.3333 0.4375V4.01543C13.3333 4.24165 13.158 4.42948 12.9302 4.45937C12.7674 4.48072 12.6054 4.50608 12.4444 4.53539C10.9335 4.81041 9.50663 5.43287 8.28254 6.35439C8.09999 6.49181 7.84104 6.48109 7.67854 6.32113L5.1084 3.79115C4.93483 3.62029 4.65343 3.62029 4.47986 3.79115L3.85132 4.40986C3.67776 4.58072 3.67776 4.85773 3.85132 5.02858L6.42146 7.55856C6.58396 7.71852 6.59486 7.97343 6.45525 8.15312C5.41936 9.48648 4.75546 11.0642 4.53015 12.7281C4.49979 12.9523 4.30898 13.125 4.07917 13.125H0.444444C0.198985 13.125 0 13.3209 0 13.5625V14.4375C0 14.6791 0.198984 14.875 0.444444 14.875H4.07917C4.30898 14.875 4.49979 15.0477 4.53015 15.2719C4.75546 16.9357 5.41935 18.5135 6.45522 19.8468C6.59482 20.0265 6.58393 20.2814 6.42143 20.4414L3.85127 22.9714C3.67771 23.1422 3.67771 23.4193 3.85127 23.5901L4.47981 24.2088C4.65338 24.3797 4.93478 24.3797 5.10835 24.2088L7.6785 21.6788C7.841 21.5189 8.09995 21.5082 8.2825 21.6456C9.5066 22.5671 10.9335 23.1896 12.4444 23.4646C12.6054 23.4939 12.7674 23.5193 12.9302 23.5406C13.158 23.5705 13.3333 23.7583 13.3333 23.9846V27.5625C13.3333 27.8041 13.5323 28 13.7778 28H14.6667C14.9121 28 15.1111 27.8041 15.1111 27.5625V22.3155C15.1111 22.0548 14.8809 21.853 14.6165 21.8656C14.4858 21.8718 14.3544 21.875 14.2222 21.875C9.80394 21.875 6.22222 18.3492 6.22222 14C6.22222 9.65076 9.80394 6.125 14.2222 6.125C14.3544 6.125 14.4858 6.12816 14.6165 6.1344C14.8809 6.14703 15.1111 5.94519 15.1111 5.68454V0.4375Z" fill="white"/>
<path d="M19.5937 19.836C19.3974 20.0111 19.3795 20.3142 19.5669 20.4986L23.336 24.2089C23.5096 24.3797 23.791 24.3797 23.9646 24.2089L24.5931 23.5901C24.7667 23.4193 24.7667 23.1423 24.5931 22.9714L20.8239 19.2611C20.6366 19.0767 20.3288 19.0943 20.1508 19.2875C19.9743 19.4792 19.7884 19.6622 19.5937 19.836Z" fill="white"/>
<path d="M20.1508 8.71243C20.3287 8.90562 20.6366 8.92322 20.8239 8.73884L24.5931 5.02856C24.7666 4.85771 24.7666 4.5807 24.5931 4.40984L23.9645 3.79112C23.791 3.62027 23.5096 3.62027 23.336 3.79112L19.5668 7.5014C19.3795 7.68579 19.3974 7.98885 19.5936 8.16399C19.7883 8.33774 19.9743 8.52079 20.1508 8.71243Z" fill="white"/>
<path d="M17.7778 14C17.7778 14.3021 17.7389 14.5953 17.6658 14.875H31.5C31.7761 14.875 32 14.6511 32 14.375V13.625C32 13.3489 31.7761 13.125 31.5 13.125L17.6658 13.125C17.7389 13.4047 17.7778 13.6979 17.7778 14Z" fill="white"/>
</svg>
