<svg width="6" height="32" viewBox="0 0 6 32" fill="none" xmlns="http://www.w3.org/2000/svg">
<path d="M2.56054 0.291088C2.75485 -0.0970297 3.24518 -0.0970294 3.43949 0.291089C4.46891 2.34721 5.11822 5.76366 5.34735 8.11732L5.5 9.68542L5.89443 10.5858C5.96386 10.7443 6 10.919 6 11.0962V28.2006C6 28.3289 5.91046 28.4329 5.8 28.4329H5.21883C5.2022 28.4329 5.1854 28.4346 5.17 28.4418C5.14512 28.4536 5.12363 28.4723 5.11356 28.5015C5.07588 28.6105 5.07287 28.8201 5.10452 28.9452C5.11931 29.0036 5.17081 29.0289 5.22326 29.0289H5.8C5.91046 29.0289 6 29.1329 6 29.2611V31.3512C6 31.9816 5.55229 32 5 32H1.00002C0.447743 32 2.97494e-05 31.9816 2.97494e-05 31.3512L2.60566e-06 29.2611C9.39962e-07 29.1329 0.089544 29.0289 0.200002 29.0289H0.776768C0.829215 29.0289 0.880721 29.0036 0.895505 28.9452C0.927158 28.8201 0.924147 28.6105 0.886473 28.5015C0.876614 28.4729 0.855799 28.4544 0.831579 28.4426C0.815227 28.4346 0.797254 28.433 0.779527 28.4334L0.203303 28.4444C0.0915689 28.4466 -2.25534e-07 28.342 0 28.2122L2.97494e-05 11.0962C2.97494e-05 10.919 0.0361747 10.7443 0.105602 10.5858L0.500027 9.68542L0.652683 8.11732C0.881812 5.76366 1.53112 2.34721 2.56054 0.291088Z" fill="white"/>
</svg>
