<svg width="32" height="23" viewBox="0 0 32 23" fill="none" xmlns="http://www.w3.org/2000/svg">
<path fill-rule="evenodd" clip-rule="evenodd" d="M2.66667 3.28571C1.19391 3.28571 0 4.46256 0 5.91428V20.3714C0 21.8231 1.19391 23 2.66667 23H29.3333C30.8061 23 32 21.8231 32 20.3714V5.91428C32 4.46256 30.8061 3.28571 29.3333 3.28571H24.5C24.2239 3.28571 24 3.06186 24 2.78571V1C24 0.447715 23.5523 0 23 0L8.97437 1.68681e-05C8.4322 1.75104e-05 7.98878 0.43207 7.97471 0.974061L7.9533 2.79869C7.94626 3.06969 7.72455 3.28571 7.45347 3.28571H2.66667ZM16 21C20.4183 21 24 17.4183 24 13C24 8.58172 20.4183 5 16 5C11.5817 5 8 8.58172 8 13C8 17.4183 11.5817 21 16 21Z" fill="white"/>
<path d="M22 13C22 16.3137 19.3137 19 16 19C12.6863 19 10 16.3137 10 13C10 9.68629 12.6863 7 16 7C19.3137 7 22 9.68629 22 13Z" fill="white"/>
<path d="M3 2.5C3 2.22386 3.22386 2 3.5 2H6.5C6.77614 2 7 2.22386 7 2.5C7 2.77614 6.77614 3 6.5 3H3.5C3.22386 3 3 2.77614 3 2.5Z" fill="white"/>
</svg>
