<svg width="30" height="33" viewBox="0 0 30 33" fill="none" xmlns="http://www.w3.org/2000/svg">
<path d="M18.1379 28.2291L14.9947 30.8006L11.8117 28.257C11.4386 27.9589 10.8378 27.9604 10.4669 28.2602L10.2793 28.4119C9.90689 28.713 9.90689 29.2013 10.2793 29.5025L14.3256 32.7741C14.6981 33.0753 15.3019 33.0753 15.6744 32.7741L19.7207 29.5025C20.0931 29.2013 20.0931 28.713 19.7207 28.4119L19.4906 28.2259C19.1166 27.9235 18.5097 27.9249 18.1379 28.2291Z" fill="white"/>
<path d="M11.8621 4.77092L15.0053 2.19938L18.1883 4.74295C18.5614 5.04108 19.1622 5.03965 19.5331 4.73975L19.7207 4.5881C20.0931 4.28695 20.0931 3.79869 19.7207 3.49754L15.6744 0.225862C15.3019 -0.0752874 14.6981 -0.0752876 14.3256 0.225862L10.2793 3.49754C9.90689 3.79869 9.90689 4.28695 10.2793 4.5881L10.5094 4.77414C10.8834 5.07654 11.4903 5.0751 11.8621 4.77092Z" fill="white"/>
<path fill-rule="evenodd" clip-rule="evenodd" d="M5.61728 7C5.27637 7 5 7.27982 5 7.625V21C5 23.2091 6.76875 25 8.95062 25L21.0494 25C23.2313 25 25 23.2091 25 21V7.625C25 7.27982 24.7236 7 24.3827 7C24.0418 7 23.7654 7.27982 23.7654 7.625V20.75C23.7654 22.4069 22.4389 23.75 20.8025 23.75L9.19753 23.75C7.56113 23.75 6.23457 22.4069 6.23457 20.75V7.625C6.23457 7.27982 5.9582 7 5.61728 7Z" fill="white"/>
<path d="M15 18C15 17.4477 15.4477 17 16 17H21C21.5523 17 22 17.4477 22 18V21C22 21.5523 21.5523 22 21 22H16C15.4477 22 15 21.5523 15 21V18Z" fill="white"/>
<path d="M8 18C8 17.4477 8.44772 17 9 17H13C13.5523 17 14 17.4477 14 18V21C14 21.5523 13.5523 22 13 22H9C8.44772 22 8 21.5523 8 21V18Z" fill="white"/>
<path d="M9 12C9 11.4477 9.44772 11 10 11H17C17.5523 11 18 11.4477 18 12V15C18 15.5523 17.5523 16 17 16H10C9.44772 16 9 15.5523 9 15V12Z" fill="white"/>
</svg>
