<svg width="30" height="32" viewBox="0 0 30 32" fill="none" xmlns="http://www.w3.org/2000/svg">
<path fill-rule="evenodd" clip-rule="evenodd" d="M0.925926 3C0.414551 3 0 3.41973 0 3.9375V24C0 27.3137 2.65313 30 5.92593 30L24.0741 30C27.3469 30 30 27.3137 30 24V3.9375C30 3.41973 29.5855 3 29.0741 3C28.5627 3 28.1482 3.41973 28.1482 3.9375V23.625C28.1482 26.1103 26.1583 28.125 23.7037 28.125L6.2963 28.125C3.8417 28.125 1.85185 26.1103 1.85185 23.625V3.9375C1.85185 3.41974 1.4373 3 0.925926 3Z" fill="white"/>
<path d="M15 19.5C15 18.6716 15.6716 18 16.5 18H24C24.8284 18 25.5 18.6716 25.5 19.5V24C25.5 24.8284 24.8284 25.5 24 25.5H16.5C15.6716 25.5 15 24.8284 15 24V19.5Z" fill="white"/>
<path d="M4.5 19.5C4.5 18.6716 5.17157 18 6 18H12C12.8284 18 13.5 18.6716 13.5 19.5V24C13.5 24.8284 12.8284 25.5 12 25.5H6C5.17157 25.5 4.5 24.8284 4.5 24V19.5Z" fill="white"/>
<path d="M6 10.5C6 9.67157 6.67157 9 7.5 9H18C18.8284 9 19.5 9.67157 19.5 10.5V15C19.5 15.8284 18.8284 16.5 18 16.5H7.5C6.67157 16.5 6 15.8284 6 15V10.5Z" fill="white"/>
</svg>
