<svg width="32" height="32" viewBox="0 0 32 32" fill="none" xmlns="http://www.w3.org/2000/svg">
<path d="M19.7379 0.59918C19.8971 0.235193 20.2567 0 20.654 0H26.471C27.1921 0 27.6762 0.740131 27.3871 1.40082L14.2621 31.4008C14.1029 31.7648 13.7433 32 13.346 32H7.52902C6.80786 32 6.32381 31.2599 6.61286 30.5992L19.7379 0.59918Z" fill="white"/>
<path d="M24.2621 31.4008C24.1029 31.7648 23.7433 32 23.346 32H17.529C16.8079 32 16.3238 31.2599 16.6129 30.5992L29.7379 0.59918C29.8971 0.235193 30.2567 0 30.654 0H31C31.5523 0 32 0.447715 32 0.999999V13.5051C32 13.6431 31.9715 13.7795 31.9162 13.9059L24.2621 31.4008Z" fill="white"/>
<path d="M27.529 32C26.8079 32 26.3238 31.2599 26.6129 30.5992L30.0838 22.6655C30.518 21.673 32 21.983 32 23.0663V31C32 31.5523 31.5523 32 31 32H27.529Z" fill="white"/>
<path d="M9.73786 0.599183C9.8971 0.235195 10.2567 0 10.654 0H16.471C17.1921 0 17.6762 0.740131 17.3871 1.40082L4.26214 31.4008C4.1029 31.7648 3.74328 32 3.34598 32H1C0.447715 32 0 31.5523 0 31V23.0663C0 22.9284 0.028546 22.7919 0.0838427 22.6655L9.73786 0.599183Z" fill="white"/>
<path d="M0 1C0 0.447715 0.447715 0 1 0H6.47098C7.19214 0 7.67619 0.74013 7.38714 1.40082L1.91616 13.9059C1.48195 14.8984 0 14.5884 0 13.5051V1Z" fill="white"/>
</svg>
