<svg width="32" height="32" viewBox="0 0 32 32" fill="none" xmlns="http://www.w3.org/2000/svg">
<path fill-rule="evenodd" clip-rule="evenodd" d="M18.0882 4.71979C17.2278 2.99816 14.7722 2.99816 13.9118 4.71979L3.68145 25.191C2.9053 26.7441 4.03409 28.5714 5.76963 28.5714H26.2304C27.9659 28.5714 29.0947 26.7441 28.3185 25.191L18.0882 4.71979ZM16.5593 11H15.4237C15.2542 11 15.1695 11.0919 15.1695 11.294V17.8346C15.1695 17.9449 15.1695 18.0735 15.1864 18.2205L15.4576 20.9396C15.4915 21.1234 15.5763 21.2152 15.7119 21.2152H16.2712C16.4237 21.2152 16.5085 21.1234 16.5254 20.9396L16.7966 18.2205C16.8136 18.0735 16.8136 17.9449 16.8136 17.8346V11.294C16.8136 11.0919 16.7288 11 16.5593 11ZM17 23.916C17 23.2178 16.678 22.8688 16.0169 22.8688C15.339 22.8688 15 23.2178 15 23.916C15 24.6325 15.339 25 16.0169 25C16.678 25 17 24.6325 17 23.916Z" fill="white"/>
<path fill-rule="evenodd" clip-rule="evenodd" d="M21.1541 3.18678L31.3845 23.658C33.2993 27.4895 30.5152 32 26.2304 32H5.76964C1.48485 32 -1.29926 27.4895 0.615539 23.658L10.8459 3.18678C12.9693 -1.06227 19.0307 -1.06226 21.1541 3.18678ZM20.1321 3.69779L30.3624 24.169C31.8977 27.241 29.6653 30.8571 26.2303 30.8571H5.76959C2.33455 30.8571 0.102216 27.241 1.63746 24.169L11.8678 3.69779C13.5702 0.291211 18.4297 0.291217 20.1321 3.69779Z" fill="white"/>
</svg>
