<svg width="32" height="32" viewBox="0 0 32 32" fill="none" xmlns="http://www.w3.org/2000/svg">
<path d="M0.893878 31.1061C-0.29796 29.9142 -0.297959 27.9819 0.893879 26.79L10.921 16.7629C11.3424 16.3415 11.3424 15.6583 10.921 15.237L0.893937 5.20991C-0.2979 4.01807 -0.2979 2.08572 0.893938 0.893882C2.08578 -0.297955 4.01813 -0.297955 5.20996 0.893883L15.237 10.9209C15.6584 11.3423 16.3416 11.3423 16.763 10.9209L26.79 0.893879C27.9819 -0.297959 29.9142 -0.29796 31.1061 0.893878C32.2979 2.08572 32.2979 4.01807 31.1061 5.2099L21.079 15.237C20.6576 15.6583 20.6576 16.3415 21.079 16.7629L31.1061 26.79C32.298 27.9819 32.298 29.9142 31.1061 31.1061C29.9143 32.2979 27.9819 32.2979 26.7901 31.1061L16.763 21.0789C16.3416 20.6576 15.6584 20.6576 15.237 21.0789L5.2099 31.1061C4.01807 32.2979 2.08572 32.2979 0.893878 31.1061Z" fill="white"/>
</svg>
