<svg width="32" height="23" viewBox="0 0 32 23" fill="none" xmlns="http://www.w3.org/2000/svg">
<path d="M0.997658 1.63385C0.997658 0.731501 1.71411 0 2.59791 0H19.4005C20.2843 0 21.0008 0.731501 21.0008 1.63385V11.437C21.0008 12.3393 20.2843 13.0708 19.4005 13.0708H5.85059C5.68643 13.0708 5.52624 13.1224 5.39175 13.2185L1.26014 16.1714C0.665241 16.5965 -0.132096 16.0579 0.0185863 15.3326L0.980243 10.7039C0.991821 10.6481 0.997658 10.5913 0.997658 10.5344V1.63385Z" fill="white"/>
<path d="M11.6988 14.7047C11.3124 14.7047 10.9992 15.0245 10.9992 15.419V17.9724C10.9992 18.8747 11.7157 19.6062 12.5995 19.6062H26.1494C26.3136 19.6062 26.4738 19.6578 26.6083 19.7539L30.7399 22.7068C31.3348 23.1319 32.1321 22.5933 31.9814 21.868L31.0198 17.2393C31.0082 17.1836 31.0023 17.1267 31.0023 17.0698V8.16927C31.0023 7.26691 30.2859 6.53541 29.4021 6.53541H23.3006C22.9143 6.53541 22.601 6.85521 22.601 7.2497V13.0708C22.601 13.9732 21.8846 14.7047 21.0008 14.7047H11.6988Z" fill="white"/>
</svg>
