<svg width="32" height="32" viewBox="0 0 32 32" fill="none" xmlns="http://www.w3.org/2000/svg">
<path fill-rule="evenodd" clip-rule="evenodd" d="M12.194 3.61145C11.9968 3.69718 11.9385 3.91801 12.0729 4.06995L12.1638 4.17271C14.292 6.57814 15.4234 9.12368 15.531 12.0272C14.9556 12.0944 14.4176 12.2837 13.9434 12.5685C13.9016 12.5038 13.8574 12.4406 13.8106 12.379C12.0334 10.043 9.64478 8.79329 6.79228 7.967C6.60882 7.91386 6.40047 7.95602 6.22945 8.08258L6.16658 8.12911C4.52286 9.34557 3.41917 11.2572 3.18754 13.2889C3.16319 13.5026 3.32527 13.6635 3.52407 13.6231L3.65851 13.5957C6.84167 12.9481 9.63916 13.2552 12.2322 14.6538C12.0819 15.0745 12 15.5277 12 16C12 16.0835 12.0026 16.1664 12.0076 16.2486C11.8679 16.2473 11.7282 16.255 11.5889 16.2727C8.67727 16.6438 6.40067 18.0875 4.25883 20.1447C4.12108 20.277 4.05341 20.4786 4.07751 20.6899L4.08637 20.7677C4.318 22.7994 5.42169 24.711 7.0654 25.9275C7.23825 26.0554 7.45865 25.9955 7.52303 25.8031L7.56656 25.673C8.62794 22.5009 10.3615 20.1891 12.9958 18.641C13.3257 19.016 13.7247 19.3287 14.1728 19.5592C14.046 19.7425 13.9365 19.9372 13.85 20.1437C12.7155 22.8508 12.8276 25.5442 13.5382 28.4277C13.5839 28.6132 13.7246 28.7725 13.9197 28.8574L13.9915 28.8885C15.8668 29.7038 18.0742 29.7038 19.9496 28.8885C20.1468 28.8028 20.2051 28.582 20.0706 28.43L19.9797 28.3273C17.7259 25.7798 16.59 23.0752 16.6042 19.9547C17.0903 19.881 17.5477 19.7199 17.9599 19.4878C18.0606 19.7116 18.1837 19.9248 18.3329 20.1209C20.11 22.4569 22.4987 23.7067 25.3512 24.5329C25.5346 24.5861 25.743 24.5439 25.914 24.4174L25.9769 24.3708C27.6206 23.1544 28.7243 21.2427 28.9559 19.211C28.9803 18.9974 28.8182 18.8364 28.6194 18.8769L28.485 18.9042C25.1853 19.5756 22.3 19.221 19.6274 17.6881C19.8336 17.2457 19.9613 16.7594 19.9925 16.2469C20.1798 16.2566 20.3678 16.251 20.5547 16.2272C23.4664 15.8562 25.743 14.4124 27.8848 12.3552C28.0226 12.2229 28.0902 12.0214 28.0661 11.81L28.0573 11.7323C27.8256 9.70055 26.722 7.78891 25.0782 6.57244C24.9054 6.44453 24.685 6.50443 24.6206 6.69682L24.5771 6.82693C23.5382 9.93185 21.8553 12.2125 19.3141 13.7595C19.01 13.3105 18.617 12.9266 18.1605 12.6331C18.2093 12.5433 18.2538 12.451 18.2935 12.3563C19.428 9.64924 19.316 6.95576 18.6053 4.07227C18.5596 3.88682 18.4189 3.72746 18.2238 3.64264L18.1521 3.61145C16.2767 2.79618 14.0693 2.79618 12.194 3.61145ZM13.6 16C13.6 17.3255 14.6745 18.4 16 18.4C17.3255 18.4 18.4 17.3255 18.4 16C18.4 14.6745 17.3255 13.6 16 13.6C14.6745 13.6 13.6 14.6745 13.6 16Z" fill="white"/>
<path fill-rule="evenodd" clip-rule="evenodd" d="M16 32C24.8366 32 32 24.8366 32 16C32 7.16344 24.8366 0 16 0C7.16344 0 0 7.16344 0 16C0 24.8366 7.16344 32 16 32ZM16 30.4C8.0471 30.4 1.6 23.9529 1.6 16C1.6 8.0471 8.0471 1.6 16 1.6C23.9529 1.6 30.4 8.0471 30.4 16C30.4 23.9529 23.9529 30.4 16 30.4Z" fill="white"/>
</svg>
