<svg width="32" height="16" viewBox="0 0 32 16" fill="none" xmlns="http://www.w3.org/2000/svg">
<path d="M25.1918 7.70444C25.4194 7.84094 25.4194 8.15901 25.1918 8.29551L16.3208 13.6161C16.1245 13.7338 15.8755 13.7338 15.6792 13.6161L6.80826 8.29551C6.58067 8.15901 6.58067 7.84094 6.80826 7.70444L11.2437 5.04414L15.6792 2.38385C15.8755 2.26613 16.1245 2.26613 16.3208 2.38385L25.1918 7.70444Z" fill="white"/>
<path d="M13.5789 0.581782C13.5789 0.125559 13.056 -0.152578 12.6528 0.0892193L0.284483 7.50744C-0.0948274 7.73494 -0.0948279 8.26506 0.284483 8.49256L12.6528 15.9108C13.056 16.1526 13.5789 15.8744 13.5789 15.4182V14.0483C13.5789 13.848 13.4714 13.6619 13.2944 13.5557L4.52406 8.29548C4.29648 8.15898 4.29647 7.84091 4.52406 7.70441L13.2944 2.44417C13.4714 2.33803 13.5789 2.15188 13.5789 1.95161V0.581782Z" fill="white"/>
<path d="M18.4211 14.0482C18.4211 13.8479 18.5287 13.6617 18.7056 13.5556L27.4758 8.29548C27.7033 8.15898 27.7033 7.84091 27.4758 7.70441L18.7056 2.4443C18.5287 2.33816 18.4211 2.15201 18.4211 1.95174V0.581798C18.4211 0.125576 18.9441 -0.152562 19.3472 0.0892356L31.7155 7.50744C32.0948 7.73494 32.0948 8.26506 31.7155 8.49256L19.3472 15.9108C18.9441 16.1526 18.4211 15.8744 18.4211 15.4182V14.0482Z" fill="white"/>
</svg>
