<svg width="32" height="32" viewBox="0 0 32 32" fill="none" xmlns="http://www.w3.org/2000/svg">
<path d="M10.9794 14.5418L16.0084 9.39876L21.1013 14.4859C21.6983 15.0822 22.6595 15.0793 23.253 14.4795L23.5531 14.1762C24.149 13.5739 24.149 12.5974 23.5531 11.9951L17.079 5.45173C16.4831 4.84943 15.5169 4.84942 14.921 5.45173L8.44694 11.9951C7.85102 12.5974 7.85102 13.5739 8.44694 14.1762L8.81507 14.5483C9.41347 15.1531 10.3845 15.1502 10.9794 14.5418Z" fill="white"/>
<path d="M21.0206 17.4582L15.9916 22.6012L10.8987 17.5141C10.3017 16.9178 9.34047 16.9207 8.74703 17.5205L8.44694 17.8238C7.85102 18.4261 7.85102 19.4026 8.44694 20.0049L14.921 26.5483C15.5169 27.1506 16.4831 27.1506 17.079 26.5483L23.5531 20.0049C24.149 19.4026 24.149 18.4261 23.5531 17.8238L23.1849 17.4517C22.5865 16.8469 21.6155 16.8498 21.0206 17.4582Z" fill="white"/>
<path fill-rule="evenodd" clip-rule="evenodd" d="M16 32C24.8366 32 32 24.8366 32 16C32 7.16344 24.8366 0 16 0C7.16344 0 0 7.16344 0 16C0 24.8366 7.16344 32 16 32ZM16 29.6C8.48893 29.6 2.4 23.5111 2.4 16C2.4 8.48893 8.48893 2.4 16 2.4C23.5111 2.4 29.6 8.48893 29.6 16C29.6 23.5111 23.5111 29.6 16 29.6Z" fill="white"/>
</svg>
