<svg width="26" height="32" viewBox="0 0 26 32" fill="none" xmlns="http://www.w3.org/2000/svg">
<path d="M13 0C11.8954 0 11 0.895431 11 2V30C11 31.1046 11.8954 32 13 32C14.1046 32 15 31.1046 15 30V2C15 0.895431 14.1046 0 13 0Z" fill="white"/>
<path d="M8.78596 5.69815C9.39637 5.4891 10 5.96632 10 6.61153V7.49409C10 7.9334 9.71116 8.31663 9.30168 8.47574C5.48857 9.95746 2.78571 13.6631 2.78571 17.9999C2.78571 22.3368 5.48857 26.0424 9.30168 27.5241C9.71116 27.6832 10 28.0665 10 28.5058V29.3883C10 30.0335 9.39637 30.5108 8.78596 30.3017C3.67458 28.5512 0 23.7047 0 17.9999C0 12.2952 3.67458 7.44865 8.78596 5.69815Z" fill="white"/>
<path d="M16.6983 27.5241C16.2888 27.6832 16 28.0665 16 28.5058V29.3883C16 30.0335 16.6036 30.5108 17.214 30.3017C22.3254 28.5512 26 23.7047 26 17.9999C26 12.2952 22.3254 7.44865 17.214 5.69815C16.6036 5.4891 16 5.96632 16 6.61153V7.49409C16 7.9334 16.2888 8.31663 16.6983 8.47574C20.5114 9.95746 23.2143 13.6631 23.2143 17.9999C23.2143 22.3368 20.5114 26.0424 16.6983 27.5241Z" fill="white"/>
</svg>
