<svg width="24" height="32" viewBox="0 0 24 32" fill="none" xmlns="http://www.w3.org/2000/svg">
<path fill-rule="evenodd" clip-rule="evenodd" d="M9.59555 11.1407C9.59555 10.2568 10.5122 9.70751 11.2394 10.1555L19.128 15.0148C19.8453 15.4567 19.8453 16.5433 19.128 16.9852L11.2394 21.8445C10.5122 22.2925 9.59555 21.7432 9.59555 20.8594V17.1877H1.09091C0.488417 17.1877 0 16.676 0 16.0448V15.9552C0 15.324 0.488416 14.8123 1.09091 14.8123H9.59555V11.1407Z" fill="white"/>
<path d="M7.09091 13.6695C7.39216 13.6695 7.63636 13.4136 7.63636 13.0981V3.4286C7.63636 2.79741 8.12478 2.28574 8.72727 2.28574H20.7273C21.3298 2.28574 21.8182 2.79742 21.8182 3.4286V28.5714C21.8182 29.2026 21.3298 29.7143 20.7273 29.7143H8.72727C8.12478 29.7143 7.63636 29.2026 7.63636 28.5714V18.902C7.63636 18.5864 7.39216 18.3306 7.09091 18.3306H6C5.69875 18.3306 5.45455 18.5864 5.45455 18.902V28.5714C5.45455 30.465 6.9198 32 8.72727 32H20.7273C22.5347 32 24 30.465 24 28.5714V3.42857C24 1.53503 22.5347 0 20.7273 0H8.7273C6.91983 0 5.45458 1.53502 5.45458 3.42856L5.45455 13.098C5.45455 13.4136 5.69875 13.6695 6 13.6695H7.09091Z" fill="white"/>
</svg>
