<svg width="32" height="24" viewBox="0 0 32 24" fill="none" xmlns="http://www.w3.org/2000/svg">
<path d="M31.7089 11.5151C32.097 11.7295 32.097 12.2705 31.7089 12.485C29.6528 13.6209 26.2363 14.3373 23.8827 14.5902L22.3146 14.7586L21.4142 15.1939C21.2557 15.2705 21.081 15.3103 20.9038 15.3103L3.79936 15.3103C3.67111 15.3103 3.56713 15.2115 3.56713 15.0897V14.4484C3.56713 14.43 3.56542 14.4115 3.55816 14.3945C3.54641 14.367 3.52766 14.3433 3.49853 14.3322C3.38952 14.2906 3.17988 14.2873 3.05479 14.3222C2.99636 14.3385 2.97109 14.3954 2.97109 14.4533V15.0897C2.97109 15.2115 2.86712 15.3103 2.73886 15.3103H0.648778C0.0184286 15.3103 -2.75895e-08 14.8163 0 14.2069L1.99823e-07 9.79313C2.27412e-07 9.18371 0.0184289 8.68969 0.648778 8.68969L2.73886 8.68966C2.86712 8.68966 2.97109 8.78846 2.97109 8.91035V9.54678C2.97109 9.60465 2.99636 9.66148 3.05479 9.6778C3.17988 9.71272 3.38952 9.7094 3.49853 9.66783C3.52706 9.65695 3.54563 9.63398 3.55741 9.60726C3.56537 9.58921 3.56696 9.56938 3.56662 9.54982L3.55557 8.91399C3.55343 8.7907 3.65801 8.68965 3.78777 8.68965L20.9038 8.68969C21.081 8.68969 21.2557 8.72957 21.4142 8.80618L22.3146 9.24141L23.8827 9.40986C26.2363 9.66269 29.6528 10.3792 31.7089 11.5151Z" fill="white"/>
<path d="M31.7089 20.2047C32.097 20.4191 32.097 20.9602 31.7089 21.1746C29.6528 22.3105 26.2363 23.027 23.8827 23.2798L22.3146 23.4483L21.4142 23.8835C21.2557 23.9601 21.081 24 20.9038 24L3.79936 24C3.67111 24 3.56713 23.9012 3.56713 23.7793V23.138C3.56713 23.1197 3.56542 23.1011 3.55816 23.0841C3.54641 23.0567 3.52766 23.033 3.49853 23.0219C3.38952 22.9803 3.17988 22.977 3.05479 23.0119C2.99636 23.0282 2.97109 23.085 2.97109 23.1429V23.7793C2.97109 23.9012 2.86712 24 2.73886 24H0.648778C0.0184286 24 -2.75895e-08 23.506 0 22.8966L1.99823e-07 18.4828C2.27412e-07 17.8734 0.0184289 17.3793 0.648778 17.3793L2.73886 17.3793C2.86712 17.3793 2.97109 17.4781 2.97109 17.6V18.2364C2.97109 18.2943 2.99636 18.3511 3.05479 18.3675C3.17988 18.4024 3.38952 18.3991 3.49853 18.3575C3.52706 18.3466 3.54563 18.3236 3.55741 18.2969C3.56537 18.2789 3.56696 18.259 3.56662 18.2395L3.55557 17.6036C3.55343 17.4804 3.65801 17.3793 3.78777 17.3793L20.9038 17.3793C21.081 17.3793 21.2557 17.4192 21.4142 17.4958L22.3146 17.9311L23.8827 18.0995C26.2363 18.3523 29.6528 19.0688 31.7089 20.2047Z" fill="white"/>
<path d="M31.7089 2.82542C32.097 3.03984 32.097 3.58088 31.7089 3.7953C29.6528 4.93121 26.2363 5.64769 23.8827 5.90052L22.3146 6.06897L21.4142 6.5042C21.2557 6.58081 21.081 6.62069 20.9038 6.62069H3.79936C3.67111 6.62069 3.56713 6.52188 3.56713 6.4V5.75871C3.56713 5.74036 3.56542 5.72182 3.55816 5.70483C3.54641 5.67738 3.52766 5.65366 3.49853 5.64254C3.38952 5.60097 3.17988 5.59765 3.05479 5.63258C2.99636 5.64889 2.97109 5.70573 2.97109 5.7636V6.4C2.97109 6.52188 2.86712 6.62069 2.73886 6.62069H0.648778C0.0184286 6.62069 -2.75895e-08 6.12666 0 5.51725L1.99823e-07 1.10348C2.27412e-07 0.494061 0.0184289 3.26679e-05 0.648778 3.26945e-05L2.73886 2.83094e-06C2.86712 9.98345e-07 2.97109 0.0988072 2.97109 0.220691V0.857123C2.97109 0.914996 2.99636 0.97183 3.05479 0.988144C3.17988 1.02307 3.38952 1.01975 3.49853 0.978177C3.52706 0.967299 3.54563 0.944329 3.55741 0.917604C3.56537 0.899561 3.56696 0.879729 3.56662 0.860167L3.55557 0.224334C3.55343 0.101042 3.65801 -2.54341e-07 3.78777 0L20.9038 3.35493e-05C21.081 3.35568e-05 21.2557 0.0399176 21.4142 0.116527L22.3146 0.551755L23.8827 0.720203C26.2363 0.973035 29.6528 1.68951 31.7089 2.82542Z" fill="white"/>
</svg>
