<svg width="32" height="16" viewBox="0 0 32 16" fill="none" xmlns="http://www.w3.org/2000/svg">
<path d="M31.7089 12.0338C32.097 12.2578 32.097 12.8233 31.7089 13.0473C29.6528 14.2344 26.2363 14.9832 23.8827 15.2474L22.3146 15.4234L21.4142 15.8783C21.2557 15.9583 21.081 16 20.9038 16L3.79936 16C3.67111 16 3.56713 15.8967 3.56713 15.7694V15.0992C3.56713 15.08 3.56542 15.0606 3.55816 15.0429C3.54641 15.0142 3.52766 14.9894 3.49853 14.9778C3.38952 14.9344 3.17988 14.9309 3.05479 14.9674C2.99636 14.9844 2.97109 15.0438 2.97109 15.1043V15.7694C2.97109 15.8967 2.86712 16 2.73886 16H0.648778C0.0184286 16 -2.75897e-08 15.4837 0 14.8469L1.99822e-07 10.2343C2.27412e-07 9.5974 0.0184289 9.08111 0.648778 9.08111L2.73886 9.08108C2.86712 9.08108 2.97109 9.18434 2.97109 9.31171V9.97681C2.97109 10.0373 2.99636 10.0967 3.05479 10.1137C3.17988 10.1502 3.38952 10.1468 3.49853 10.1033C3.52706 10.092 3.54563 10.0679 3.55741 10.04C3.56537 10.0212 3.56696 10.0004 3.56662 9.97999L3.55557 9.31552C3.55343 9.18667 3.65801 9.08108 3.78777 9.08108L20.9038 9.08112C21.081 9.08112 21.2557 9.1228 21.4142 9.20286L22.3146 9.65769L23.8827 9.83372C26.2363 10.0979 29.6528 10.8467 31.7089 12.0338Z" fill="white"/>
<path d="M31.7089 2.95269C32.097 3.17677 32.097 3.74219 31.7089 3.96626C29.6528 5.15334 26.2363 5.90209 23.8827 6.16631L22.3146 6.34235L21.4142 6.79718C21.2557 6.87724 21.081 6.91892 20.9038 6.91892L3.79936 6.91892C3.67111 6.91892 3.56713 6.81566 3.56713 6.68829V6.01811C3.56713 5.99894 3.56542 5.97956 3.55816 5.9618C3.54641 5.93311 3.52766 5.90832 3.49853 5.89671C3.38952 5.85327 3.17988 5.8498 3.05479 5.8863C2.99636 5.90335 2.97109 5.96274 2.97109 6.02322V6.68829C2.97109 6.81566 2.86712 6.91892 2.73886 6.91892H0.648778C0.0184286 6.91892 -2.75897e-08 6.40264 0 5.76577L1.99822e-07 1.15318C2.27412e-07 0.516316 0.0184289 3.41394e-05 0.648778 3.41672e-05L2.73886 2.95846e-06C2.86712 1.04332e-06 2.97109 0.103258 2.97109 0.230632V0.895733C2.97109 0.956212 2.99636 1.01561 3.05479 1.03265C3.17988 1.06915 3.38952 1.06568 3.49853 1.02224C3.52706 1.01087 3.54563 0.986867 3.55741 0.958938C3.56537 0.940081 3.56696 0.919356 3.56662 0.898914L3.55557 0.234439C3.55343 0.105593 3.65801 -2.65798e-07 3.78777 0L20.9038 3.50606e-05C21.081 3.50684e-05 21.2557 0.0417157 21.4142 0.121776L22.3146 0.576609L23.8827 0.752644C26.2363 1.01687 29.6528 1.76562 31.7089 2.95269Z" fill="white"/>
</svg>
