<svg width="32" height="6" viewBox="0 0 32 6" fill="none" xmlns="http://www.w3.org/2000/svg">
<path d="M31.7089 2.56054C32.097 2.75485 32.097 3.24518 31.7089 3.43949C29.6528 4.46891 26.2363 5.11822 23.8827 5.34735L22.3146 5.5L21.4142 5.89443C21.2557 5.96386 21.081 6 20.9038 6L3.79936 6C3.67111 6 3.56713 5.91046 3.56713 5.8V5.21883C3.56713 5.2022 3.56542 5.1854 3.55816 5.17C3.54641 5.14512 3.52766 5.12362 3.49853 5.11356C3.38952 5.07588 3.17988 5.07287 3.05479 5.10452C2.99636 5.11931 2.97109 5.17081 2.97109 5.22326V5.8C2.97109 5.91046 2.86712 6 2.73886 6H0.648778C0.0184286 6 -2.75897e-08 5.55229 0 5L1.99822e-07 1.00002C2.27412e-07 0.447743 0.0184289 2.96053e-05 0.648778 2.96294e-05L2.73886 2.56554e-06C2.86712 9.0475e-07 2.97109 0.089544 2.97109 0.200002V0.776768C2.97109 0.829215 2.99636 0.880721 3.05479 0.895505C3.17988 0.927157 3.38952 0.924147 3.49853 0.886473C3.52706 0.876614 3.54563 0.855798 3.55741 0.831579C3.56537 0.815227 3.56696 0.797254 3.56662 0.779527L3.55557 0.203303C3.55343 0.0915689 3.65801 -2.30496e-07 3.78777 0L20.9038 3.04041e-05C21.081 3.04109e-05 21.2557 0.0361753 21.4142 0.105603L22.3146 0.500028L23.8827 0.652684C26.2363 0.881813 29.6528 1.53112 31.7089 2.56054Z" fill="white"/>
</svg>
