<svg width="32" height="32" viewBox="0 0 32 32" fill="none" xmlns="http://www.w3.org/2000/svg">
<path fill-rule="evenodd" clip-rule="evenodd" d="M32 16C32 24.8366 24.8366 32 16 32C7.16344 32 0 24.8366 0 16C0 7.16344 7.16344 0 16 0C24.8366 0 32 7.16344 32 16ZM5.57301 25.3425C5.66606 25.1127 5.84315 24.921 6.07595 24.812L9.68421 23.1224L11.1077 22.4601C12.1656 21.9678 12.8421 20.9069 12.8421 19.7401V19.3031C12.8421 18.9187 12.7313 18.5425 12.523 18.2194L12.2402 17.7807C11.5952 16.7804 11.1551 15.662 10.9453 14.4905L10.5642 12.3625C10.3342 11.0784 10.5129 9.75459 11.0751 8.57745L11.2731 8.1628C11.9347 6.77763 13.1705 5.75234 14.654 5.3579C15.536 5.12337 16.464 5.12337 17.346 5.3579C18.8295 5.75234 20.0653 6.77763 20.7269 8.1628L20.9249 8.57745C21.4871 9.75459 21.6658 11.0784 21.4358 12.3625L21.0547 14.4905C20.8449 15.662 20.4048 16.7804 19.7598 17.7807L19.477 18.2194C19.2687 18.5425 19.1579 18.9187 19.1579 19.3031V19.7401C19.1579 20.9069 19.8344 21.9678 20.8923 22.4601L22.3158 23.1224L25.924 24.812C26.1568 24.921 26.3339 25.1127 26.427 25.3425C28.6487 22.8645 30 19.5901 30 16C30 8.26801 23.732 2 16 2C8.26801 2 2 8.26801 2 16C2 19.5901 3.3513 22.8645 5.57301 25.3425Z" fill="white"/>
</svg>
