<svg width="32" height="33" viewBox="0 0 32 33" fill="none" xmlns="http://www.w3.org/2000/svg">
<path fill-rule="evenodd" clip-rule="evenodd" d="M16 28.8657L26.8284 15.5384L5.17162 15.5384L16 28.8657ZM15.0448 31.5935C15.5373 32.1997 16.4627 32.1997 16.9552 31.5935L30.3694 15.0838C31.0229 14.2795 30.4505 13.0769 29.4142 13.0769L2.58581 13.0769C1.54946 13.0769 0.977076 14.2794 1.63059 15.0838L15.0448 31.5935Z" fill="white"/>
<path d="M3.86168 0C4.9844 0 5.81102 0.050819 6.36622 0.152457C6.51427 0.177866 6.58829 0.266799 6.58829 0.419255V1.21965C6.58829 1.3594 6.52661 1.42293 6.40323 1.42293H3.86168C2.92402 1.42293 2.30714 1.66432 2.02337 2.13439C1.73961 2.60447 1.60389 3.53191 1.60389 4.92943C1.60389 6.31424 1.73961 7.25439 2.02337 7.72447C2.30714 8.19454 2.92402 8.42323 3.86168 8.42323H5.57661V5.19623C5.57661 5.05648 5.6383 4.99295 5.76167 4.99295H6.8844C7.00777 4.99295 7.06946 5.05648 7.06946 5.19623V8.8933C7.06946 9.02035 7.05712 9.10928 7.02011 9.1728C6.79803 9.61747 5.74934 9.84615 3.86168 9.84615C2.2948 9.84615 1.38181 9.57935 0.777271 8.80437C0.185064 8.02938 0 6.89866 0 4.92943C0 2.9602 0.185064 1.82948 0.777271 1.05449C1.38181 0.254094 2.28246 0 3.86168 0Z" fill="white"/>
<path d="M8.80695 0.0635235H14.7784C14.9141 0.0635235 14.9758 0.127047 14.9758 0.254094V1.29588C14.9758 1.42293 14.9141 1.48645 14.7784 1.48645H10.2134V4.33231H14.3836C14.5069 4.33231 14.5686 4.39583 14.5686 4.52288V5.52655C14.5686 5.6536 14.5069 5.71712 14.3836 5.71712H10.2134V8.3597H14.7784C14.9141 8.3597 14.9758 8.42323 14.9758 8.55027V9.59206C14.9758 9.71911 14.9141 9.78263 14.7784 9.78263H8.80695C8.68357 9.78263 8.62188 9.71911 8.62188 9.59206V0.254094C8.62188 0.127047 8.68357 0.0635235 8.80695 0.0635235Z" fill="white"/>
<path d="M19.7957 0C20.4866 0 20.9308 0.0762281 21.1405 0.241389C21.3503 0.406551 21.5477 0.813102 21.7327 1.48645L23.8671 9.57935C23.8918 9.71911 23.8425 9.78263 23.7191 9.78263H22.4607C22.3743 9.78263 22.3249 9.71911 22.2879 9.57935L21.56 6.84784H18.0438L17.3035 9.57935C17.2665 9.71911 17.2172 9.78263 17.1431 9.78263H15.8724C15.749 9.78263 15.6996 9.71911 15.7243 9.57935L17.9204 1.48645C18.1055 0.825806 18.2905 0.419255 18.5003 0.254094C18.71 0.0889334 19.1418 0 19.7957 0ZM19.7957 1.38481C19.512 1.38481 19.4996 1.43563 19.3639 1.90571L18.4139 5.47573H21.2022L20.2769 1.90571C20.1412 1.43563 20.1288 1.38481 19.7957 1.38481Z" fill="white"/>
<path d="M28.1657 0C29.5721 0 30.5345 0.21598 31.0527 0.635236C31.5708 1.05449 31.8299 1.90571 31.8299 3.16347C31.8299 4.14174 31.6819 4.8532 31.3858 5.28516C31.102 5.70442 30.5962 5.98392 29.8682 6.09826L31.9533 9.52853C32.052 9.66829 31.9903 9.78263 31.8053 9.78263H30.6579C30.3988 9.78263 30.3001 9.7064 30.1644 9.50313L28.1286 6.1999L26.6234 6.2126V9.59206C26.6234 9.74452 26.5864 9.78263 26.4384 9.78263H25.217C25.0689 9.78263 25.0319 9.74452 25.0319 9.59206V0.279504C25.0319 0.139752 25.0689 0.114342 25.217 0.101638C26.0929 0.0381144 27.0799 0 28.1657 0ZM28.0176 1.42293H26.6234V4.90402H28.0176C28.9923 4.90402 29.3871 4.87861 29.7695 4.63722C30.152 4.38313 30.226 4.00199 30.226 3.20159C30.226 2.45201 30.078 1.96923 29.7942 1.75325C29.5105 1.53727 28.9183 1.42293 28.0176 1.42293Z" fill="white"/>
</svg>
