<svg width="18" height="32" viewBox="0 0 18 32" fill="none" xmlns="http://www.w3.org/2000/svg">
<path d="M3.37496 10.1714C3.37496 9.91896 3.57643 9.71428 3.82496 9.71428H17.55C17.7985 9.71428 18 9.91895 18 10.1714V11.1839C18 11.3368 17.9248 11.4795 17.7996 11.5643L13.1378 14.7214C13.0127 14.8062 12.9375 14.9489 12.9375 15.1018V24.2419C12.9375 24.4387 13.0614 24.6134 13.2452 24.6756L17.6923 26.1815C17.876 26.2437 18 26.4184 18 26.6152V29.7143C18 30.9767 16.9926 32 15.75 32H5.62496C4.38232 32 3.37496 30.9767 3.37496 29.7143V29.0286C3.37496 28.7761 3.57643 28.5714 3.82496 28.5714H8.54996C8.79849 28.5714 8.99996 28.3668 8.99996 28.1143V16.2825C8.99996 16.1094 8.90366 15.9511 8.75121 15.8736L3.62371 13.2692C3.47126 13.1918 3.37496 13.0335 3.37496 12.8603V10.1714Z" fill="white"/>
<path d="M14.2509 15.8633C14.1326 15.9491 14.0625 16.0876 14.0625 16.2353V23.6552C14.0625 23.8593 14.1956 24.0387 14.3888 24.0947L17.4263 24.9764C17.7138 25.0598 18 24.8405 18 24.5368V14.0312C18 13.6593 17.5862 13.4431 17.2884 13.6592L14.2509 15.8633Z" fill="white"/>
<path d="M4.56472 15.7017C4.26778 15.5724 3.93746 15.7937 3.93746 16.1218V26.9714C3.93746 27.2239 4.13893 27.4286 4.38746 27.4286H7.42496C7.67349 27.4286 7.87496 27.2239 7.87496 26.9714V17.4443C7.87496 17.2614 7.76768 17.0962 7.60222 17.0241L4.56472 15.7017Z" fill="white"/>
<path d="M4.85209 2.91395C4.85209 4.17632 3.84473 5.19967 2.60209 5.19967C1.35945 5.19967 0.352094 4.17632 0.352094 2.91395C0.352094 1.65159 1.35945 0.628237 2.60209 0.628237C3.84473 0.628237 4.85209 1.65159 4.85209 2.91395Z" fill="white"/>
<path d="M4.21579 8H17.55C17.7985 8 18 7.79533 18 7.54286V6.17143C18 5.91895 17.7985 5.71428 17.55 5.71428H12.6479C11.7528 5.71428 10.8944 5.15391 10.2614 4.51093L9.38406 3.61962C9.24232 3.47563 9.3427 3.22942 9.54316 3.22942H17.55C17.7985 3.22942 18 3.02475 18 2.77228V2.44349C18 2.23373 17.8594 2.05088 17.6591 2L7.99996 0H5.20217C4.91917 0 4.76184 0.332548 4.93863 0.557038L4.99469 0.628237C5.1356 0.80717 5.2384 1.01305 5.29674 1.23321C5.43203 1.74368 5.54972 2.26337 5.55225 2.79147C5.55672 3.72352 5.2946 4.41072 4.49996 6L3.84137 7.28928C3.642 7.59308 3.85638 8 4.21579 8Z" fill="white"/>
</svg>
