<svg width="32" height="30" viewBox="0 0 32 30" fill="none" xmlns="http://www.w3.org/2000/svg">
<path d="M29.2548 17.001L16.3517 29.8544C16.1568 30.0485 15.8432 30.0485 15.6483 29.8544L2.74517 17.001C2.25858 16.4839 2.6412 15.6728 3.32934 15.6728H6.07719C6.71943 15.6728 7.31007 15.299 7.61596 14.6989L7.92951 14.0838C8.31605 13.3256 9.34685 13.3466 9.70572 14.1201L11.6556 18.3225C12.3871 19.6606 14.2469 19.5193 14.7917 18.0842L17.0341 13.1061C17.403 12.2872 18.506 12.3053 18.851 13.1359L20.7047 17.5991C21.054 18.9256 22.5918 19.4022 23.5575 18.4834L25.4714 15.8426C25.6651 15.5753 25.9667 15.4217 26.2842 15.4286L28.5947 15.4789C29.3763 15.496 29.8076 16.4136 29.2548 17.001Z" fill="white"/>
<path d="M31.7797 12.1112C31.6835 12.575 31.2793 12.8805 30.8325 12.8708L25.5352 12.7553C25.092 12.7456 24.662 12.915 24.3318 13.2292L23.8232 14.0265C23.3777 14.7249 22.3806 14.6195 22.0733 13.8414L19.787 8.05175C19.3369 6.34235 17.1037 6.21096 16.4788 7.85707L13.9343 13.5825C13.5765 14.3878 12.5011 14.3962 12.1322 13.5966L10.341 9.71463C9.65468 8.45928 7.93972 8.48645 7.28898 9.76298L5.91417 12.4599C5.73937 12.8028 5.40187 13.0164 5.03487 13.0164H1.17938C0.745044 13.0164 0.355023 12.7195 0.254624 12.2705C-0.472495 9.0187 0.357688 5.45375 2.74517 2.9169C6.28301 -0.84227 11.9455 -0.967955 15.6254 2.53986C15.8339 2.73861 16.1661 2.73861 16.3746 2.53986C20.0545 -0.967955 25.717 -0.842272 29.2548 2.9169C31.6034 5.41236 32.445 8.90267 31.7797 12.1112Z" fill="white"/>
</svg>
