<svg width="32" height="30" viewBox="0 0 32 30" fill="none" xmlns="http://www.w3.org/2000/svg">
<path fill-rule="evenodd" clip-rule="evenodd" d="M15.6323 2.47539C11.9526 -0.941099 6.28522 -0.821054 2.74517 2.83552C-0.915055 6.61622 -0.915055 12.7459 2.74517 16.5266L15.642 29.848C15.8383 30.0507 16.1617 30.0507 16.358 29.848L29.2548 16.5266C32.9151 12.7459 32.9151 6.61622 29.2548 2.83552C25.7148 -0.821054 20.0474 -0.941099 16.3677 2.47539C16.161 2.66726 15.839 2.66726 15.6323 2.47539ZM17 6C17.5523 6 18 6.44772 18 7V11.5C18 12.0523 18.4477 12.5 19 12.5H23.5C24.0523 12.5 24.5 12.9477 24.5 13.5V15.5C24.5 16.0523 24.0523 16.5 23.5 16.5H19C18.4477 16.5 18 16.9477 18 17.5V22C18 22.5523 17.5523 23 17 23H15C14.4477 23 14 22.5523 14 22V17.5C14 16.9477 13.5523 16.5 13 16.5H8.5C7.94772 16.5 7.5 16.0523 7.5 15.5V13.5C7.5 12.9477 7.94772 12.5 8.5 12.5H13C13.5523 12.5 14 12.0523 14 11.5V7C14 6.44772 14.4477 6 15 6H17Z" fill="white"/>
</svg>
