<svg width="32" height="32" viewBox="0 0 32 32" fill="none" xmlns="http://www.w3.org/2000/svg">
<path d="M2.31884 14.8078C2.31884 14.1553 2.64464 13.5483 3.1821 13.1995L15.0082 5.52348C15.6139 5.13034 16.3861 5.13034 16.9918 5.52348L28.8179 13.1995C29.3554 13.5483 29.6812 14.1553 29.6812 14.8078V30.0968C29.6812 31.1479 28.8506 32 27.8261 32H23.8406C22.8161 32 21.9855 31.1479 21.9855 30.0968V22.8631C21.9855 21.812 21.155 20.9599 20.1304 20.9599H11.8696C10.845 20.9599 10.0145 21.812 10.0145 22.8631V30.0968C10.0145 31.1479 9.18395 32 8.15942 32H4.17391C3.14938 32 2.31884 31.1479 2.31884 30.0968V14.8078Z" fill="white"/>
<path d="M0 11.0017C0 10.4484 0.275265 9.93337 0.729984 9.63589L15.0026 0.298498C15.6109 -0.0994996 16.3891 -0.0994993 16.9974 0.298499L31.27 9.63589C31.7247 9.93337 32 10.4484 32 11.0017C32 12.273 30.6377 13.0488 29.586 12.3764L16.9811 4.31751C16.3806 3.93355 15.6194 3.93355 15.0189 4.31752L2.41398 12.3764C1.36228 13.0488 0 12.273 0 11.0017Z" fill="white"/>
</svg>
