<svg width="29" height="32" viewBox="0 0 29 32" fill="none" xmlns="http://www.w3.org/2000/svg">
<path d="M19.3333 17.2308C19.3333 19.9497 17.1694 22.1538 14.5 22.1538C11.8306 22.1538 9.66667 19.9497 9.66667 17.2308C9.66667 14.5118 11.8306 12.3077 14.5 12.3077C17.1694 12.3077 19.3333 14.5118 19.3333 17.2308Z" fill="white"/>
<path fill-rule="evenodd" clip-rule="evenodd" d="M10.9575 2.90548C11.3115 1.24429 12.7631 0 14.5 0C16.2369 0 17.6885 1.24429 18.0425 2.90548C24.3383 4.51561 29 10.3187 29 17.2308C29 25.3876 22.5081 32 14.5 32C6.49187 32 0 25.3876 0 17.2308C0 10.3187 4.66172 4.51561 10.9575 2.90548ZM17.4721 5.80678C16.8167 6.76076 15.7299 7.38461 14.5 7.38461C13.2701 7.38461 12.1833 6.76076 11.5279 5.80678C6.56136 7.14378 2.9 11.7518 2.9 17.2308C2.9 23.7562 8.0935 29.0462 14.5 29.0462C20.9065 29.0462 26.1 23.7562 26.1 17.2308C26.1 11.7518 22.4386 7.14378 17.4721 5.80678Z" fill="white"/>
</svg>
