<svg width="32" height="32" viewBox="0 0 32 32" fill="none" xmlns="http://www.w3.org/2000/svg">
<path fill-rule="evenodd" clip-rule="evenodd" d="M16 32C24.8366 32 32 24.8366 32 16C32 7.16344 24.8366 0 16 0C7.16344 0 0 7.16344 0 16C0 24.8366 7.16344 32 16 32ZM18 6.94615C18 5.64872 17.3379 5 16.0138 5C14.7172 5 14 5.70513 14 6.94615C14 8.18718 14.7172 8.89231 16.0138 8.89231C17.3379 8.89231 18 8.24359 18 6.94615ZM17.669 11.8256C17.669 11.5436 17.531 11.4026 17.2552 11.4026H14.7448C14.469 11.4026 14.331 11.5436 14.331 11.8256V26.5769C14.331 26.859 14.469 27 14.7448 27H17.2552C17.531 27 17.669 26.859 17.669 26.5769V11.8256Z" fill="white"/>
</svg>
