<svg width="30" height="32" viewBox="0 0 30 32" fill="none" xmlns="http://www.w3.org/2000/svg">
<path d="M16 17.8064C16 17.4068 16.2201 17.0377 16.5774 16.8379L28.268 10.3011C29.0378 9.87063 30 10.4087 30 11.2695V24.3432C30 24.7427 29.7799 25.1119 29.4227 25.3117L17.7321 31.8485C16.9623 32.2789 16 31.7409 16 30.88V17.8064Z" fill="white"/>
<path d="M0 11.2695C0 10.4087 0.96225 9.87063 1.73205 10.3011L13.4227 16.8379C13.7799 17.0377 14 17.4068 14 17.8064V30.88C14 31.7409 13.0378 32.2789 12.268 31.8485L0.577351 25.3117C0.220085 25.1119 0 24.7427 0 24.3432V11.2695Z" fill="white"/>
<path d="M14.4227 0.149824C14.7799 -0.0499414 15.2201 -0.0499415 15.5774 0.149824L27.268 6.68665C28.0378 7.11709 28.0378 8.19317 27.268 8.62361L15.5774 15.1604C15.2201 15.3602 14.7799 15.3602 14.4227 15.1604L2.73205 8.62361C1.96225 8.19317 1.96225 7.11709 2.73205 6.68665L14.4227 0.149824Z" fill="white"/>
</svg>
