<svg width="22" height="32" viewBox="0 0 22 32" fill="none" xmlns="http://www.w3.org/2000/svg">
<path fill-rule="evenodd" clip-rule="evenodd" d="M10.3136 27.5276C10.9965 25.2392 11.0205 22.8063 10.3828 20.5051L9.2569 16.4423L8.20956 12.9329C7.34849 10.0476 7.31827 6.98002 8.12233 4.07849L8.98628 0.960818C9.13346 0.429711 9.68261 0.117801 10.2141 0.263398L11.5147 0.619639C12.0485 0.76585 12.362 1.31782 12.2142 1.85116L11.3518 4.9631C10.7141 7.26432 10.7381 9.69719 11.421 11.9855L12.4777 15.5263L13.6123 19.6205C14.4163 22.522 14.3861 25.5896 13.525 28.4749L12.7581 31.0448C12.6005 31.5728 12.0455 31.8739 11.5169 31.718L10.2238 31.3365C9.69284 31.1799 9.39015 30.6218 9.54844 30.0914L10.3136 27.5276Z" fill="white"/>
<path fill-rule="evenodd" clip-rule="evenodd" d="M1.85028 27.7536C2.9171 24.9449 2.95414 21.8523 1.9549 19.0191L1.44485 17.5729L0.48342 13.7495C-0.0553081 11.6071 -0.144873 9.37735 0.220295 7.19904L0.675546 4.48336C0.766734 3.9394 1.28113 3.57198 1.82526 3.66214L3.15642 3.88272C3.702 3.97312 4.07062 4.48919 3.97919 5.0346L3.52456 7.74656C3.23494 9.47419 3.30598 11.2426 3.73324 12.9417L4.65716 16.616L5.11603 17.9171C6.37594 21.4893 6.32924 25.3888 4.98413 28.9302L4.97164 28.9631C4.77607 29.478 4.20096 29.7378 3.68532 29.5442L2.42388 29.0706C1.90543 28.876 1.64389 28.297 1.84052 27.7793L1.85028 27.7536Z" fill="white"/>
<path fill-rule="evenodd" clip-rule="evenodd" d="M18.2712 25.7292C18.8606 23.3711 18.7608 20.8947 17.9836 18.591L17.1017 15.9769L16.5924 14.5751C15.3519 11.1607 15.3088 7.42963 16.4699 3.98776L16.7771 3.07728C16.9532 2.55527 17.5183 2.27402 18.0409 2.44829L19.3196 2.87467C19.8448 3.04981 20.1278 3.61838 19.9508 4.14298L19.6459 5.04682C18.725 7.77658 18.7592 10.7357 19.743 13.4436L20.2654 14.8816L21.1596 17.5319C22.1395 20.4366 22.2653 23.559 21.5222 26.5323L21.1092 28.185C20.9755 28.7198 20.4344 29.0455 19.8992 28.9134L18.5899 28.5899C18.0527 28.4572 17.7254 27.9135 17.8595 27.3766L18.2712 25.7292Z" fill="white"/>
</svg>
