<svg width="24" height="32" viewBox="0 0 24 32" fill="none" xmlns="http://www.w3.org/2000/svg">
<path d="M0 15.5897C0 14.91 0.546364 14.359 1.22034 14.359H4.47458C5.14855 14.359 5.69491 14.91 5.69491 15.5897V16.4103C5.69491 17.09 5.14855 17.641 4.47458 17.641H1.22034C0.546364 17.641 0 17.09 0 16.4103V15.5897Z" fill="white"/>
<path d="M0 24.2051C0 23.5254 0.546364 22.9744 1.22034 22.9744H4.47458C5.14855 22.9744 5.69491 23.5254 5.69491 24.2051V25.0256C5.69491 25.7054 5.14855 26.2564 4.47458 26.2564H1.22034C0.546364 26.2564 0 25.7054 0 25.0256V24.2051Z" fill="white"/>
<path d="M0 6.97436C0 6.29462 0.546364 5.74359 1.22034 5.74359H4.47458C5.14855 5.74359 5.69491 6.29462 5.69491 6.97436V7.79487C5.69491 8.47461 5.14855 9.02564 4.47458 9.02564H1.22034C0.546364 9.02564 0 8.47461 0 7.79487V6.97436Z" fill="white"/>
<path fill-rule="evenodd" clip-rule="evenodd" d="M14.2373 0.820513C14.2373 0.367356 13.873 0 13.4237 0H2.84746C2.17348 0 1.62712 0.551034 1.62712 1.23077V3.69231C1.62712 4.37204 2.17348 4.92308 2.84746 4.92308H5.28814C5.96211 4.92308 6.50847 5.47411 6.50847 6.15385V8.61539C6.50847 9.29512 5.96211 9.84615 5.28814 9.84615H2.84746C2.17348 9.84615 1.62712 10.3972 1.62712 11.0769V12.3077C1.62712 12.9874 2.17348 13.5385 2.84746 13.5385H5.28814C5.96211 13.5385 6.50847 14.0895 6.50847 14.7692V17.2308C6.50847 17.9105 5.96211 18.4615 5.28814 18.4615H2.84746C2.17348 18.4615 1.62712 19.0126 1.62712 19.6923V20.9231C1.62712 21.6028 2.17348 22.1538 2.84746 22.1538H5.28814C5.96211 22.1538 6.50847 22.7049 6.50847 23.3846V25.8462C6.50847 26.5259 5.96211 27.0769 5.28814 27.0769H2.84746C2.17348 27.0769 1.62712 27.628 1.62712 28.3077V30.7692C1.62712 31.449 2.17348 32 2.84746 32H22.7797C23.4536 32 24 31.449 24 30.7692V1.23077C24 0.551034 23.4536 0 22.7797 0H21.1525C20.7032 0 20.339 0.367356 20.339 0.820513V7.79487C20.339 8.70119 19.6105 9.4359 18.7119 9.4359H15.8644C14.9658 9.4359 14.2373 8.70119 14.2373 7.79487V0.820513ZM13.0169 26.2564C13.0169 25.8033 13.3812 25.4359 13.8305 25.4359H21.7627C22.212 25.4359 22.5763 25.8033 22.5763 26.2564V26.6667C22.5763 27.1198 22.212 27.4872 21.7627 27.4872H13.8305C13.3812 27.4872 13.0169 27.1198 13.0169 26.6667V26.2564ZM10.9831 29.1282C10.9831 28.675 11.3473 28.3077 11.7966 28.3077H21.7627C22.212 28.3077 22.5763 28.675 22.5763 29.1282V29.5385C22.5763 29.9916 22.212 30.359 21.7627 30.359H11.7966C11.3473 30.359 10.9831 29.9916 10.9831 29.5385V29.1282Z" fill="white"/>
<path d="M15.0508 0.820513C15.0508 0.367356 15.4151 0 15.8644 0H18.7119C19.1612 0 19.5254 0.367356 19.5254 0.820513V7.38462C19.5254 8.06435 18.9791 8.61539 18.3051 8.61539H16.2712C15.5972 8.61539 15.0508 8.06435 15.0508 7.38462V0.820513Z" fill="white"/>
</svg>
