<svg width="26" height="32" viewBox="0 0 26 32" fill="none" xmlns="http://www.w3.org/2000/svg">
<path fill-rule="evenodd" clip-rule="evenodd" d="M0 5.08308C0 4.47744 0.397843 3.93975 0.98767 3.74823C4.69793 3.04153 8.30659 1.88595 11.7326 0.307434L12.0865 0.14441C12.6794 -0.0481371 13.3206 -0.0481365 13.9135 0.14441L14.3955 0.363527C17.7865 1.90514 21.3505 3.04136 25.0123 3.74823C25.6022 3.93975 26 4.47744 26 5.08308V11.7192C26 19.2464 22.1381 26.2756 15.7086 30.451L13.5937 31.8244C13.2332 32.0585 12.7668 32.0585 12.4063 31.8244L10.2914 30.451C3.8619 26.2756 0 19.2464 0 11.7192V5.08308ZM15.0245 12.3771C14.9776 12.3771 14.936 12.3471 14.9215 12.3029L13.103 6.75626C13.0706 6.65734 12.9294 6.65734 12.897 6.75626L11.0785 12.3029C11.064 12.3471 11.0224 12.3771 10.9755 12.3771H5.09093C4.98598 12.3771 4.94235 12.5102 5.02725 12.5713L9.78797 15.9993C9.82594 16.0266 9.84183 16.0751 9.82733 16.1193L8.00889 21.666C7.97646 21.7649 8.0907 21.8471 8.1756 21.786L12.9363 18.358C12.9743 18.3307 13.0257 18.3307 13.0637 18.358L17.8244 21.786C17.9093 21.8471 18.0235 21.7649 17.9911 21.666L16.1727 16.1193C16.1582 16.0751 16.1741 16.0266 16.212 15.9993L20.9728 12.5713C21.0577 12.5102 21.014 12.3771 20.9091 12.3771H15.0245Z" fill="white"/>
</svg>
