<svg width="32" height="32" viewBox="0 0 32 32" fill="none" xmlns="http://www.w3.org/2000/svg">
<path d="M17.2245 32C18.4418 32 19.4286 30.9373 19.4286 29.6264L19.4286 27.7214C19.4286 26.0697 20.377 24.6294 21.4921 23.4953C23.0363 21.9246 24 19.6989 24 17.2308C24 12.4727 20.4183 8.61542 16 8.61542C11.5817 8.61542 8 12.4727 8 17.2308C8 19.6989 8.96368 21.9246 10.5079 23.4953C11.623 24.6294 12.5714 26.0697 12.5714 27.7214L12.5714 29.8901C12.5714 31.0554 13.4486 32 14.5306 32L17.2245 32Z" fill="white"/>
<path d="M22.7654 8.13101C22.3562 8.56169 22.3974 9.28085 22.8056 9.71264C23.2016 10.1314 23.8424 10.1727 24.2393 9.75497L27.2964 6.53766C27.7197 6.09224 27.7197 5.35898 27.2964 4.91356C26.8868 4.48242 26.2324 4.48242 25.8227 4.91356L22.7654 8.13101Z" fill="white"/>
<path d="M16.0001 6.73532C16.5708 6.73532 17.0668 6.26065 17.0668 5.64606L17.0668 1.14871C17.0668 0.514296 16.5892 -1.34725e-06 16.0001 -1.39875e-06C15.411 -1.45025e-06 14.9335 0.514296 14.9335 1.14871L14.9335 5.64606C14.9335 6.26065 15.4294 6.73532 16.0001 6.73532Z" fill="white"/>
<path d="M9.19465 9.7126C9.60287 9.28082 9.6441 8.56165 9.23487 8.13098L6.17758 4.91353C5.7679 4.48238 5.11353 4.48238 4.70385 4.91352C4.2806 5.35895 4.2806 6.0922 4.70385 6.53763L7.76099 9.75493C8.15791 10.1726 8.79872 10.1314 9.19465 9.7126Z" fill="white"/>
<path d="M6.40013 16.8383C6.40013 16.2385 5.971 15.7157 5.41413 15.7157L1.04237 15.7157C0.466684 15.7157 1.37968e-06 16.2183 1.32548e-06 16.8382C1.27128e-06 17.4582 0.466684 17.9608 1.04237 17.9608L5.41418 17.9608C5.97103 17.9608 6.40013 17.4379 6.40013 16.8383Z" fill="white"/>
<path d="M9.19463 23.9639C8.79869 23.5451 8.15788 23.5038 7.76096 23.9216L4.70379 27.1389C4.28054 27.5843 4.28054 28.3176 4.70379 28.763C5.11347 29.1941 5.76785 29.1941 6.17752 28.763L9.23484 25.5455C9.64407 25.1148 9.60284 24.3957 9.19463 23.9639Z" fill="white"/>
<path d="M22.8057 23.9639C22.3974 24.3956 22.3562 25.1148 22.7655 25.5455L25.8228 28.763C26.2324 29.1941 26.8868 29.1941 27.2965 28.763C27.7198 28.3175 27.7198 27.5843 27.2965 27.1389L24.2393 23.9215C23.8424 23.5038 23.2016 23.5451 22.8057 23.9639Z" fill="white"/>
<path d="M25.6001 16.8383C25.6001 17.4379 26.0292 17.9608 26.5861 17.9608L30.9576 17.9608C31.5333 17.9608 32 17.4582 32 16.8382C32 16.2183 31.5333 15.7157 30.9576 15.7157L26.5861 15.7157C26.0293 15.7157 25.6001 16.2385 25.6001 16.8383Z" fill="white"/>
</svg>
