<svg width="20" height="32" viewBox="0 0 20 32" fill="none" xmlns="http://www.w3.org/2000/svg">
<path d="M0 17.1429C0 15.8805 0.994923 14.8571 2.22222 14.8571H17.7778C19.0051 14.8571 20 15.8805 20 17.1429V29.7143C20 30.9767 19.0051 32 17.7778 32H2.22222C0.994923 32 0 30.9767 0 29.7143V17.1429Z" fill="white"/>
<path fill-rule="evenodd" clip-rule="evenodd" d="M2.22222 14.8571H4.44444V8C4.44444 4.84409 6.93175 2.28571 10 2.28571C13.0682 2.28571 15.5556 4.84409 15.5556 8V14.8571H17.7778V8C17.7778 3.58172 14.2955 0 10 0C5.70445 0 2.22222 3.58172 2.22222 8V14.8571Z" fill="white"/>
</svg>
