<svg width="26" height="32" viewBox="0 0 26 32" fill="none" xmlns="http://www.w3.org/2000/svg">
<path d="M6.26239 30.2078C6.06421 30.2078 5.88425 30.322 5.80188 30.5L5.34136 31.2922C5.1881 31.6233 5.43318 32 5.80188 32H11.7357C11.9397 32 12.1238 31.8791 12.2027 31.6933L12.6155 30.9012C12.7554 30.5717 12.5104 30.2078 12.1486 30.2078H6.26239Z" fill="white"/>
<path d="M7.35687 26.9474C7.13941 26.9474 6.94624 27.0845 6.87694 27.288L6.56217 28.1539C6.45187 28.4779 6.69596 28.8132 7.04211 28.8132H13.0303C13.2369 28.8132 13.4228 28.6893 13.5 28.5L13.8608 27.6341C13.9948 27.3055 13.7499 26.9474 13.3911 26.9474H7.35687Z" fill="white"/>
<path d="M12.5428 0.450015C12.5697 0.194724 12.7874 0 13.0473 0H22.4253C22.7049 0 22.9316 0.223858 22.9316 0.5V5.11404C22.9316 5.39018 23.1583 5.61404 23.4379 5.61404H24.4937C24.7733 5.61404 25 5.83789 25 6.11404V7.59284C25 7.86899 24.7733 8.09284 24.4937 8.09284H19.8353C19.5861 8.09284 19.374 8.27218 19.3344 8.51518C18.3425 14.6071 16.9482 20.3406 14.7872 25.5179C14.7095 25.7041 14.5253 25.8246 14.3214 25.8246H8.11932C7.77421 25.8246 7.52984 25.492 7.6346 25.1673C9.59905 19.0789 11.531 10.0368 12.5428 0.450015Z" fill="white"/>
<path d="M20.2795 9.97348C20.3177 9.72917 20.5311 9.54386 20.7814 9.54386H21.8204C22.1321 9.54386 22.3693 9.8224 22.319 10.1261C20.8238 19.1626 19.4378 23.6422 15.8268 31.7001C15.7458 31.8808 15.5632 32 15.3631 32L14.2135 32C13.8522 32 13.6081 31.6349 13.7472 31.3057C17.2722 22.9609 18.7906 19.487 20.2795 9.97348Z" fill="white"/>
<path d="M8.42341 1.59204C8.44074 1.32783 8.66212 1.12281 8.93023 1.12281H10.4869C10.7835 1.12281 11.0169 1.3714 10.9902 1.66311C10.115 11.2176 7.68463 23.3803 3.42112 31.7297C3.33569 31.897 3.16245 32 2.97272 32H1.51013C1.13503 32 0.889388 31.6117 1.05002 31.2769C5.20326 22.6226 7.78704 11.2933 8.42341 1.59204Z" fill="white"/>
</svg>
