<svg width="28" height="32" viewBox="0 0 28 32" fill="none" xmlns="http://www.w3.org/2000/svg">
<path d="M24.3635 6.33614C24.3714 6.21559 24.2736 6.11714 24.1536 6.11714H23.3777C23.2121 6.11714 23.1078 5.93751 23.1893 5.79235L25.4628 2.16997C25.5467 2.02042 25.7616 2.02286 25.8421 2.17428L27.9741 5.79666C28.0512 5.94172 27.9468 6.11714 27.7833 6.11714H26.9956C26.8764 6.11714 26.7801 6.21415 26.7754 6.33399C26.7317 7.45555 26.3828 8.54487 25.7653 9.48073C25.1036 10.4834 24.1632 11.2649 23.0629 11.7264C21.9625 12.1878 20.7518 12.3086 19.5837 12.0733C18.4156 11.8381 17.3427 11.2574 16.5005 10.4047C15.6584 9.55196 15.0849 8.46556 14.8525 7.28283C14.6202 6.1001 14.7395 4.87417 15.1952 3.76007C15.651 2.64596 16.4228 1.69372 17.413 1.02376C18.3432 0.394426 19.4269 0.0407271 20.5421 0.000139382C20.6616 -0.00420764 20.7585 0.0936958 20.7585 0.213958V2.2173C20.7585 2.33757 20.6615 2.43437 20.5422 2.44162C19.9036 2.48039 19.2853 2.69028 18.7512 3.05159C18.1571 3.45357 17.694 4.02491 17.4205 4.69337C17.1471 5.36184 17.0755 6.0974 17.2149 6.80703C17.3543 7.51667 17.6984 8.16851 18.2037 8.68013C18.709 9.19175 19.3528 9.54017 20.0536 9.68133C20.7545 9.82248 21.4809 9.75004 22.1411 9.47315C22.8013 9.19626 23.3656 8.72737 23.7626 8.12577C24.115 7.59167 24.3216 6.97426 24.3635 6.33614Z" fill="white"/>
<path d="M14.7363 1.52381H11.0962C10.8568 1.52381 10.6563 1.70926 10.6315 1.9524C9.69958 11.0826 7.92018 19.6942 6.11082 25.4926C6.01432 25.8019 6.23941 26.1187 6.55727 26.1187H12.2697C12.4575 26.1187 12.6271 26.0039 12.6987 25.8266C14.3753 21.6734 15.5507 17.1444 16.4258 12.352C14.5142 10.9756 13.2632 8.68648 13.2632 6.09524C13.2632 4.38003 13.8113 2.7972 14.7363 1.52381Z" fill="white"/>
<path d="M17.4477 12.9682C16.193 20.4436 14.8042 23.8423 11.9295 30.8771L11.7409 31.3387C11.6128 31.6523 11.8376 32 12.1704 32L13.2292 32C13.4135 32 13.5817 31.8865 13.6563 31.7144C16.6567 24.7913 17.9893 20.6416 19.2325 13.5771C18.6056 13.4525 18.0071 13.2458 17.4477 12.9682Z" fill="white"/>
<path d="M5.85501 27.188C5.65472 27.188 5.4768 27.3186 5.41297 27.5124L5.12306 28.337C5.02146 28.6456 5.24628 28.965 5.5651 28.965H11.0806C11.2709 28.965 11.4421 28.8469 11.5132 28.6667L11.8455 27.842C11.9689 27.5291 11.7433 27.188 11.4129 27.188H5.85501Z" fill="white"/>
<path d="M4.84694 30.2932C4.66441 30.2932 4.49865 30.4019 4.42278 30.5714L3.99862 31.3259C3.85747 31.6412 4.08319 32 4.42278 32H9.88816C10.076 32 10.2456 31.8849 10.3182 31.7079L10.6985 30.9535C10.8274 30.6397 10.6016 30.2932 10.2684 30.2932H4.84694Z" fill="white"/>
<path d="M7.30416 2.59315C7.05722 2.59315 6.85332 2.78841 6.83735 3.04004C6.25122 12.2793 3.87142 23.0692 0.0460747 31.3114C-0.101879 31.6301 0.124371 32 0.469856 32H1.81697C1.99173 32 2.15129 31.9019 2.22998 31.7425C6.1569 23.7908 8.39541 12.2073 9.20148 3.10772C9.22609 2.8299 9.01114 2.59315 8.73795 2.59315H7.30416Z" fill="white"/>
</svg>
