<svg width="22" height="32" viewBox="0 0 22 32" fill="none" xmlns="http://www.w3.org/2000/svg">
<path fill-rule="evenodd" clip-rule="evenodd" d="M12.6072 31.1094C15.6611 26.5267 22 16.4296 22 11.5762C22 5.18285 17.0751 0 11 0C4.92487 0 0 5.18285 0 11.5762C0 16.4296 6.33894 26.5267 9.39275 31.1094C10.184 32.2969 11.816 32.2969 12.6072 31.1094ZM11 18.0879C14.4173 18.0879 17.1875 15.1725 17.1875 11.5762C17.1875 7.97996 14.4173 5.0646 11 5.0646C7.58274 5.0646 4.8125 7.97996 4.8125 11.5762C4.8125 15.1725 7.58274 18.0879 11 18.0879Z" fill="white"/>
</svg>
