<svg width="32" height="32" viewBox="0 0 32 32" fill="none" xmlns="http://www.w3.org/2000/svg">
<path d="M30 12C31.1046 12 32 12.8954 32 14V18C32 19.1046 31.1046 20 30 20H2C0.89543 20 -4.82823e-08 19.1046 0 18L1.74846e-07 14C2.23128e-07 12.8954 0.895431 12 2 12L30 12Z" fill="white"/>
<path d="M12 2C12 0.895431 12.8954 0 14 0H18C19.1046 0 20 0.895431 20 2V9C20 10.1046 19.1046 11 18 11H14C12.8954 11 12 10.1046 12 9V2Z" fill="white"/>
<path d="M12 23C12 21.8954 12.8954 21 14 21H18C19.1046 21 20 21.8954 20 23V30C20 31.1046 19.1046 32 18 32H14C12.8954 32 12 31.1046 12 30V23Z" fill="white"/>
</svg>
