<svg width="8" height="32" viewBox="0 0 8 32" fill="none" xmlns="http://www.w3.org/2000/svg">
<path d="M1.6 31.5C1.6 31.7761 1.82386 32 2.1 32H5.9C6.17614 32 6.4 31.7761 6.4 31.5V29.4799C6.4 29.2297 6.49379 28.9886 6.66285 28.8042L7.73715 27.6322C7.90621 27.4478 8 27.2067 8 26.9565V23.1192C8 22.911 7.79313 22.7661 7.59748 22.8373L0.329129 25.4803C0.131534 25.5522 0 25.74 0 25.9502V26.9565C0 27.2067 0.0937852 27.4478 0.262846 27.6322L1.33715 28.8042C1.50621 28.9886 1.6 29.2297 1.6 29.4799V31.5Z" fill="white"/>
<path d="M5.07003 22.0109C5.22811 21.9534 5.33333 21.8032 5.33333 21.635V19.011C5.33333 18.8131 5.14524 18.6695 4.9544 18.7215L3.42106 19.1397C3.29055 19.1753 3.2 19.2939 3.2 19.4291V22.2626C3.2 22.4708 3.40687 22.6157 3.60252 22.5445L5.07003 22.0109Z" fill="white"/>
<path d="M3.2 17.7745C3.2 17.9064 3.3254 18.0022 3.45262 17.9675L4.96489 17.555C5.18242 17.4957 5.33333 17.2981 5.33333 17.0726V13.6786C5.33333 13.4957 5.23339 13.3273 5.07276 13.2397L3.49577 12.3795C3.3625 12.3068 3.2 12.4033 3.2 12.5551V17.7745Z" fill="white"/>
<path d="M8 9.50036C8 9.38369 7.93236 9.27761 7.82659 9.22838L0.926594 6.01674C0.727725 5.92418 0.5 6.06937 0.5 6.28872V23.3799C0.5 23.6003 0.729649 23.7455 0.928707 23.6509L1.96204 23.1601C2.06666 23.1105 2.13333 23.005 2.13333 22.8892V10.9781C2.13333 10.7504 2.37708 10.6057 2.57699 10.7147L6.24366 12.7147C6.34003 12.7673 6.4 12.8683 6.4 12.9781V21.099C6.4 21.3072 6.60687 21.452 6.80252 21.3809L7.80252 21.0173C7.92108 20.9742 8 20.8615 8 20.7353V9.50036Z" fill="white"/>
<path d="M7.58002 7.38037C7.77819 7.46685 8 7.32163 8 7.10541V4.77124C8 4.69618 7.97186 4.62385 7.92115 4.56852L7.01219 3.57693C6.96147 3.5216 6.93333 3.44927 6.93333 3.37421V0.3C6.93333 0.134315 6.79902 0 6.63333 0H1.36667C1.20098 0 1.06667 0.134315 1.06667 0.3V1.56736C1.06667 1.67715 1.0067 1.77816 0.910322 1.83073L0.156344 2.24199C0.0599662 2.29456 0 2.39558 0 2.50536V3.87632C0 3.99561 0.0706797 4.10357 0.180017 4.15128L7.58002 7.38037Z" fill="white"/>
</svg>
