<svg width="28" height="32" viewBox="0 0 28 32" fill="none" xmlns="http://www.w3.org/2000/svg">
<path d="M24.9904 0.922303C25.6738 0.228038 26.7818 0.22804 27.4653 0.922305C28.1487 1.61657 28.1487 2.7422 27.4653 3.43646L3.00092 28.2891C2.31751 28.9834 1.20947 28.9834 0.526053 28.2891C-0.157365 27.5948 -0.157365 26.4692 0.526052 25.775L24.9904 0.922303Z" fill="white"/>
<path d="M19.7341 3.74781C20.0844 3.39201 20.1232 2.82723 19.7778 2.4667C18.3216 0.946549 16.2713 0 14 0C9.58172 0 6 3.58172 6 8V15.2586C6 16.1533 7.085 16.5977 7.71265 15.9601L19.7341 3.74781Z" fill="white"/>
<path d="M3.77253 19.9627C3.99578 19.736 4.09449 19.4168 4.05986 19.1004C4.0203 18.7391 4 18.3719 4 18V10C4 8.89543 3.10457 8 2 8C0.89543 8 0 8.89543 0 10V18C0 19.1735 0.144392 20.3134 0.416378 21.4026C0.593516 22.1121 1.46878 22.3031 1.98174 21.782L3.77253 19.9627Z" fill="white"/>
<path d="M5.88419 29.409C5.40837 29.0699 5.37706 28.3894 5.78694 27.973L7.21933 26.5179C7.57593 26.1556 8.1448 26.1234 8.57146 26.3997C10.1348 27.4121 11.9988 28 14 28C19.5228 28 24 23.5228 24 18V10C24 9.85973 24.0144 9.72283 24.0419 9.59072C24.073 9.44135 24.1579 9.31044 24.2649 9.20172L25.1745 8.27765C25.2815 8.16896 25.4111 8.08201 25.5599 8.04859C25.7015 8.01678 25.8488 8 26 8C27.1046 8 28 8.89543 28 10V18C28 25.732 21.732 32 14 32C10.9747 32 8.17348 31.0404 5.88419 29.409Z" fill="white"/>
<path d="M20.2873 13.2424C20.915 12.6048 22 13.0492 22 13.9439V18C22 22.4183 18.4183 26 14 26C12.6387 26 11.3568 25.66 10.2347 25.0603C9.69772 24.7733 9.64208 24.0567 10.0692 23.6228L20.2873 13.2424Z" fill="white"/>
</svg>
