<svg width="28" height="32" viewBox="0 0 28 32" fill="none" xmlns="http://www.w3.org/2000/svg">
<path d="M6 8C6 3.58172 9.58172 0 14 0C18.4183 0 22 3.58172 22 8V18C22 22.4183 18.4183 26 14 26C9.58172 26 6 22.4183 6 18V8Z" fill="white"/>
<path fill-rule="evenodd" clip-rule="evenodd" d="M2 8C0.895431 8 0 8.89543 0 10V18C0 25.732 6.26801 32 14 32C21.732 32 28 25.732 28 18V10C28 8.89543 27.1046 8 26 8C24.8954 8 24 8.89543 24 10V18C24 23.5228 19.5228 28 14 28C8.47715 28 4 23.5228 4 18V10C4 8.89543 3.10457 8 2 8Z" fill="white"/>
</svg>
