<svg width="32" height="32" viewBox="0 0 32 32" fill="none" xmlns="http://www.w3.org/2000/svg">
<path d="M5.9759 10.9157C5.9759 10.2769 6.49374 9.75904 7.13253 9.75904H10.988C11.6267 9.75904 12.1446 10.2769 12.1446 10.9157V14.4578C12.1446 15.0966 11.6267 15.6145 10.988 15.6145H7.13253C6.49374 15.6145 5.9759 15.0966 5.9759 14.4578V10.9157Z" fill="white"/>
<path d="M12.9157 10.9157C12.9157 10.2769 13.4335 9.75904 14.0723 9.75904H17.9277C18.5665 9.75904 19.0843 10.2769 19.0843 10.9157V14.4578C19.0843 15.0966 18.5665 15.6145 17.9277 15.6145H14.0723C13.4335 15.6145 12.9157 15.0966 12.9157 14.4578V10.9157Z" fill="white"/>
<path d="M19.8554 10.9157C19.8554 10.2769 20.3733 9.75904 21.012 9.75904H24.8675C25.5063 9.75904 26.0241 10.2769 26.0241 10.9157V14.4578C26.0241 15.0966 25.5063 15.6145 24.8675 15.6145H21.012C20.3733 15.6145 19.8554 15.0966 19.8554 14.4578V10.9157Z" fill="white"/>
<path d="M19.8554 17.5422C19.8554 16.9034 20.3733 16.3855 21.012 16.3855H24.8675C25.5063 16.3855 26.0241 16.9034 26.0241 17.5422V21.0843C26.0241 21.7231 25.5063 22.241 24.8675 22.241H21.012C20.3733 22.241 19.8554 21.7231 19.8554 21.0843V17.5422Z" fill="white"/>
<path d="M12.9157 17.5422C12.9157 16.9034 13.4335 16.3855 14.0723 16.3855H17.9277C18.5665 16.3855 19.0843 16.9034 19.0843 17.5422V21.0843C19.0843 21.7231 18.5665 22.241 17.9277 22.241H14.0723C13.4335 22.241 12.9157 21.7231 12.9157 21.0843V17.5422Z" fill="white"/>
<path d="M5.9759 17.5422C5.9759 16.9034 6.49374 16.3855 7.13253 16.3855H10.988C11.6267 16.3855 12.1446 16.9034 12.1446 17.5422V21.0843C12.1446 21.7231 11.6267 22.241 10.988 22.241H7.13253C6.49374 22.241 5.9759 21.7231 5.9759 21.0843V17.5422Z" fill="white"/>
<path d="M32 16C32 24.8366 24.8366 32 16 32C7.16344 32 0 24.8366 0 16C0 7.16344 7.16344 0 16 0C24.8366 0 32 7.16344 32 16ZM1.696 16C1.696 23.8999 8.10012 30.304 16 30.304C23.8999 30.304 30.304 23.8999 30.304 16C30.304 8.10012 23.8999 1.696 16 1.696C8.10012 1.696 1.696 8.10012 1.696 16Z" fill="white"/>
</svg>
