<svg width="32" height="32" viewBox="0 0 32 32" fill="none" xmlns="http://www.w3.org/2000/svg">
<path d="M14.6434 11.5467L13.032 16.8337L12.7512 17.5667C12.5907 17.9859 12.39 18.3899 12.1518 18.7734L8.19316 25.148C8.06675 25.3515 8 25.5842 8 25.8214V27.8981C8 28.0147 8.14633 28.0734 8.2324 27.9912L11.1269 25.7656L11.4091 27.5246L9.55256 29.7997C9.43238 29.947 9.3833 30.1367 9.41767 30.321L9.73077 32L12.8134 30.4596C13.0455 30.3488 13.1923 30.121 13.1923 29.8716V28.1808C13.1923 27.5246 13.1923 27.5246 13.5132 27.5246H14.0757C14.1103 27.5246 14.1394 27.5495 14.1434 27.5826L14.2755 28.6661C14.3158 28.9967 14.6068 29.2459 14.9527 29.2459H16.0473C16.3932 29.2459 16.6842 28.9967 16.7245 28.6661L16.8566 27.5826C16.8606 27.5495 16.8897 27.5246 16.9243 27.5246H17.4868C17.8077 27.5246 17.8077 27.5246 17.8077 28.1808V29.8716C17.8077 30.121 17.9545 30.3488 18.1866 30.4596L21.2692 32L21.5823 30.321C21.6167 30.1367 21.5676 29.947 21.4474 29.7997L19.5909 27.5246L19.8731 25.7656L22.7676 27.9912C22.8537 28.0734 23 28.0147 23 27.8981V25.8214C23 25.5842 22.9332 25.3515 22.8068 25.148L18.8482 18.7734C18.61 18.3899 18.4093 17.9859 18.2488 17.5667L17.968 16.8337L16.3566 11.5467C16.2635 11.2554 16.22 11.1193 16.1244 11.0557C16.0406 11 15.9168 11 15.6844 11H15.3156C15.0832 11 14.9594 11 14.8756 11.0557C14.78 11.1193 14.7365 11.2554 14.6434 11.5467Z" fill="white"/>
<path d="M24 26.0561C24 25.5599 23.8582 25.0739 23.5912 24.6547L23.4917 24.4985C23.4917 24.4985 23.4917 24.4985 23.2598 24.1344L21.9874 22.1367C22.318 22.183 22.6561 22.2069 23 22.2069C26.866 22.2069 30 19.181 30 15.4483C30 11.7156 26.866 8.68966 23 8.68966C20.9884 8.68966 19.1749 9.50893 17.8981 10.8208C17.5426 10.2812 16.9295 9.93104 16.2424 9.93104H16.0465C17.6971 7.99393 20.1991 6.75862 23 6.75862C23.5701 6.75862 24.1278 6.8098 24.6685 6.90766C23.2749 6.19605 21.6862 5.7931 20 5.7931C14.4772 5.7931 10 10.1159 10 15.4483C10 16.6863 10.2413 17.8699 10.6811 18.9577L9.45882 20.9895C8.52864 19.3435 8 17.4555 8 15.4483C8 9.04939 13.3726 3.86207 20 3.86207C21.5887 3.86207 23.1053 4.16016 24.493 4.70155C22.1375 2.96349 19.1936 1.93103 16 1.93103C8.26801 1.93103 2 7.98291 2 15.4483C2 19.5496 3.89177 23.2242 6.87877 25.7032C6.86441 25.8139 6.85714 25.9257 6.85714 26.0381V28.1113C6.85714 28.1168 6.85718 28.1222 6.85724 28.1276C2.71208 25.336 0 20.698 0 15.4483C0 6.91643 7.16344 0 16 0C24.8366 0 32 6.91643 32 15.4483C32 21.2839 28.6488 26.3637 23.7031 28.9916C23.8866 28.7565 24 28.4571 24 28.1113V26.0561Z" fill="white"/>
</svg>
