<svg width="32" height="32" viewBox="0 0 32 32" fill="none" xmlns="http://www.w3.org/2000/svg">
<path d="M32 16C32 24.8366 24.8366 32 16 32C7.16344 32 0 24.8366 0 16C0 7.16344 7.16344 0 16 0C24.8366 0 32 7.16344 32 16ZM3.2 16C3.2 18.7339 4.05713 21.2677 5.51733 23.3472C6.38151 24.5779 7.45692 25.6495 8.69089 26.5093C10.7632 27.9533 13.2827 28.8 16 28.8C23.0692 28.8 28.8 23.0692 28.8 16C28.8 8.93076 23.0692 3.2 16 3.2C8.93076 3.2 3.2 8.93076 3.2 16Z" fill="white"/>
<path d="M5.51733 23.3472C6.38151 24.5779 7.45692 25.6495 8.69089 26.5093L26.5093 8.69089C25.6495 7.45692 24.5779 6.38151 23.3472 5.51733L5.51733 23.3472Z" fill="white"/>
</svg>
