<svg width="32" height="24" viewBox="0 0 32 24" fill="none" xmlns="http://www.w3.org/2000/svg">
<path fill-rule="evenodd" clip-rule="evenodd" d="M9.02564 0.75C8.75934 0.75 8.50022 0.834214 8.28718 0.99L4.18462 3.24C3.8747 3.46663 3.69231 3.82229 3.69231 4.2V19.8C3.69231 20.1777 3.8747 20.5334 4.18462 20.76L8.28718 23.01C8.50022 23.1658 8.75934 23.25 9.02564 23.25H22.9744C23.2407 23.25 23.4998 23.1658 23.7128 23.01L27.8154 20.76C28.1253 20.5334 28.3077 20.1777 28.3077 19.8V4.2C28.3077 3.82229 28.1253 3.46662 27.8154 3.24L23.7128 0.99C23.4998 0.834213 23.2407 0.75 22.9744 0.75H9.02564ZM8.61539 4.55713C8.61539 4.4927 8.64578 4.43204 8.69744 4.39339L9.70291 3.64095C9.79354 3.57312 9.92211 3.59145 9.99009 3.68188L10.3697 4.18698C10.4377 4.27741 10.4193 4.4057 10.3287 4.47352L9.74046 4.91374C9.6888 4.9524 9.65841 5.01306 9.65841 5.07749L9.65846 18.9225C9.65846 18.9869 9.68886 19.0476 9.74051 19.0863L10.3288 19.5265C10.4194 19.5943 10.4378 19.7226 10.3698 19.813L9.99014 20.3181C9.92216 20.4085 9.79359 20.4269 9.70296 20.3591L8.69749 19.6066C8.64583 19.568 8.61544 19.5073 8.61544 19.4429L8.61539 4.55713ZM23.3026 4.39339C23.3542 4.43204 23.3846 4.4927 23.3846 4.55713L23.3846 19.4429C23.3846 19.5073 23.3542 19.568 23.3025 19.6066L22.297 20.3591C22.2064 20.4269 22.0778 20.4085 22.0099 20.3181L21.6302 19.813C21.5622 19.7226 21.5806 19.5943 21.6712 19.5265L22.2595 19.0863C22.3111 19.0476 22.3415 18.9869 22.3415 18.9225L22.3416 5.07749C22.3416 5.01306 22.3112 4.9524 22.2595 4.91374L21.6713 4.47352C21.5807 4.4057 21.5623 4.27741 21.6303 4.18698L22.0099 3.68188C22.0779 3.59145 22.2065 3.57312 22.2971 3.64095L23.3026 4.39339ZM16.7996 4.55883L16.1043 11.1816H18.1903L15.4089 19.1289L16.1043 12.5061H14.0182L16.7996 4.55883Z" fill="white"/>
<path d="M29.5385 0.240001C29.5385 0.107453 29.6487 0 29.7846 0H30.5231C30.659 0 30.7692 0.107452 30.7692 0.24V3.36C30.7692 3.49255 30.8794 3.6 31.0154 3.6H31.7538C31.8898 3.6 32 3.70745 32 3.84V20.16C32 20.2926 31.8898 20.4 31.7538 20.4H31.0154C30.8794 20.4 30.7692 20.5075 30.7692 20.64V23.76C30.7692 23.8925 30.659 24 30.5231 24H29.7846C29.6487 24 29.5385 23.8925 29.5385 23.76V0.240001Z" fill="white"/>
<path d="M2.46154 0.240001C2.46154 0.107453 2.35133 0 2.21538 0H1.47692C1.34098 0 1.23077 0.107452 1.23077 0.24V3.36C1.23077 3.49255 1.12056 3.6 0.984615 3.6H0.246154C0.110207 3.6 0 3.70745 0 3.84V20.16C0 20.2926 0.110207 20.4 0.246154 20.4H0.984615C1.12056 20.4 1.23077 20.5075 1.23077 20.64V23.76C1.23077 23.8925 1.34098 24 1.47692 24H2.21538C2.35133 24 2.46154 23.8925 2.46154 23.76V0.240001Z" fill="white"/>
</svg>
