<svg width="32" height="32" viewBox="0 0 32 32" fill="none" xmlns="http://www.w3.org/2000/svg">
<path fill-rule="evenodd" clip-rule="evenodd" d="M4 0C1.79086 0 0 1.79086 0 4V28C0 30.2091 1.79086 32 4 32H28C30.2091 32 32 30.2091 32 28V4C32 1.79086 30.2091 0 28 0H4ZM9.99996 15C11.6568 15 13 13.6569 13 12C13 10.3431 11.6568 9 9.99996 9C8.34311 9 6.99996 10.3431 6.99996 12C6.99996 13.6569 8.34311 15 9.99996 15ZM23.6886 16.9683C23.4158 16.4481 22.7554 16.274 22.2615 16.5921L4.85736 27.1593C4.01874 27.6996 4.40134 29 5.3989 29H27.3462C28.0981 29 28.581 28.2013 28.2317 27.5355L23.6886 16.9683Z" fill="white"/>
</svg>
