<svg width="32" height="32" viewBox="0 0 32 32" fill="none" xmlns="http://www.w3.org/2000/svg">
<path fill-rule="evenodd" clip-rule="evenodd" d="M2.00012 3.31923e-06C0.895553 1.48607e-06 0.000121841 0.89543 0.000117514 2L7.8343e-06 30C3.50754e-06 31.1046 0.895436 32.0001 2.00001 32.0001H30.0001C31.1046 32.0001 32.0001 31.1046 32.0001 30.0001V2.00005C32.0001 0.895482 31.1046 5.16217e-05 30.0001 4.97885e-05L2.00012 3.31923e-06ZM10 15.0001C11.6569 15.0001 13 13.6569 13 12.0001C13 10.3432 11.6569 9.00006 10 9.00006C8.34319 9.00006 7.00004 10.3432 7.00004 12.0001C7.00004 13.6569 8.34319 15.0001 10 15.0001ZM23.6887 16.9683C23.4158 16.4481 22.7555 16.2741 22.2616 16.5922L4.85744 27.1594C4.01882 27.6996 4.40142 29.0001 5.39898 29.0001H27.3463C28.0982 29.0001 28.5811 28.2014 28.2318 27.5355L23.6887 16.9683Z" fill="white"/>
</svg>
