<svg width="32" height="28" viewBox="0 0 32 28" fill="none" xmlns="http://www.w3.org/2000/svg">
<path fill-rule="evenodd" clip-rule="evenodd" d="M25.8183 25.4328C27.8554 23.0524 29.0909 19.9267 29.0909 16.5022C29.0909 9.04534 23.2299 3.00039 16 3.00039C8.77009 3.00039 2.90909 9.04534 2.90909 16.5022C2.90909 19.9267 4.14461 23.0524 6.1817 25.4328C6.69295 26.0303 6.71971 26.9672 6.14236 27.5627C5.58381 28.1388 4.64976 28.1644 4.09512 27.5278C1.54944 24.6057 0 20.74 0 16.5022C0 7.38827 7.16344 0 16 0C24.8366 0 32 7.38827 32 16.5022C32 20.7399 30.4506 24.6057 27.9049 27.5277C27.3503 28.1644 26.4162 28.1387 25.8577 27.5627C25.2803 26.9672 25.3071 26.0302 25.8183 25.4328ZM26.1818 16.5022C26.1818 19.0792 25.2811 21.4407 23.7873 23.2679C23.2423 23.9346 22.2996 23.8929 21.7474 23.3234C21.1641 22.7218 21.2096 21.7926 21.6783 21.1895C22.6762 19.9053 23.2727 18.2763 23.2727 16.5022C23.2727 12.3595 20.0166 9.00117 16 9.00117C11.9834 9.00117 8.72727 12.3595 8.72727 16.5022C8.72727 18.2763 9.32384 19.9053 10.3218 21.1895C10.7904 21.7926 10.836 22.7218 10.2526 23.3234C9.70044 23.8929 8.75777 23.9346 8.21272 23.2679C6.71887 21.4407 5.81818 19.0793 5.81818 16.5022C5.81818 10.7024 10.3767 6.00078 16 6.00078C21.6233 6.00078 26.1818 10.7024 26.1818 16.5022ZM18.4242 16.5022C18.4242 17.883 17.3389 19.0025 16 19.0025C14.6611 19.0025 13.5758 17.883 13.5758 16.5022C13.5758 15.1213 14.6611 14.0018 16 14.0018C17.3389 14.0018 18.4242 15.1213 18.4242 16.5022Z" fill="white"/>
</svg>
