<svg width="30" height="32" viewBox="0 0 30 32" fill="none" xmlns="http://www.w3.org/2000/svg">
<path d="M18.1782 16C18.1782 17.6569 16.7886 19 15.0743 19C13.36 19 11.9704 17.6569 11.9704 16C11.9704 14.3431 13.36 13 15.0743 13C16.7886 13 18.1782 14.3431 18.1782 16Z" fill="white"/>
<path d="M23.3515 16C23.3515 24.8366 19.6457 32 15.0743 32C10.503 32 6.79714 24.8366 6.79714 16C6.79714 7.16344 10.503 0 15.0743 0C19.6457 0 23.3515 7.16344 23.3515 16ZM7.83178 16C7.83178 23.9529 10.9601 31 15.0743 31C19.1885 31 22.3168 23.9529 22.3168 16C22.3168 8.0471 19.1885 1 15.0743 1C10.9601 1 7.83178 8.0471 7.83178 16Z" fill="white"/>
<path d="M19.2128 9.07182C27.1307 13.4901 31.6964 20.1737 29.4107 24C27.1251 27.8264 18.8535 27.3465 10.9357 22.9282C3.01787 18.5099 -1.54789 11.8264 0.737791 8.00002C3.02347 4.17368 11.295 4.65354 19.2128 9.07182ZM11.453 22.0622C18.579 26.0386 26.4576 26.9437 28.5147 23.5C30.5718 20.0563 25.8216 13.9143 18.6955 9.93784C11.5695 5.96139 3.69093 5.05631 1.63382 8.50002C-0.423288 11.9437 4.32697 18.0857 11.453 22.0622Z" fill="white"/>
<path d="M19.0643 22.8564C11.1465 27.2747 2.87494 27.7546 0.589263 23.9282C-1.69641 20.1019 2.86934 13.4183 10.7872 9.00004C18.705 4.58176 26.9765 4.1019 29.2622 7.92824C31.5479 11.7546 26.9821 18.4382 19.0643 22.8564ZM11.3045 9.86606C4.17844 13.8425 -0.571816 19.9845 1.48529 23.4282C3.5424 26.8719 11.421 25.9669 18.547 21.9904C25.673 18.014 30.4233 11.8719 28.3662 8.42824C26.3091 4.98454 18.4305 5.88961 11.3045 9.86606Z" fill="white"/>
</svg>
