<svg width="30" height="32" viewBox="0 0 30 32" fill="none" xmlns="http://www.w3.org/2000/svg">
<path fill-rule="evenodd" clip-rule="evenodd" d="M27.2663 16.7192C27.0908 16.4608 26.9029 16.2017 26.7031 15.9425L26.6517 15.8762L26.7013 15.8103C26.8982 15.5477 27.0827 15.2854 27.2543 15.0239C28.8705 12.5622 29.3479 10.181 28.3093 8.43484L28.2947 8.41055C27.252 6.68679 24.9086 5.90489 21.9317 6.02595C21.6119 6.03896 21.2847 6.06239 20.9511 6.09619L20.873 6.10428C20.8584 6.07199 20.8437 6.03982 20.829 6.00778C20.692 5.71034 20.5489 5.42358 20.4003 5.14822C19.014 2.5807 17.1365 1.00418 15.0693 1.00418C12.9809 1.00418 11.086 2.61331 9.69578 5.2278C9.54926 5.50334 9.40835 5.79004 9.2734 6.0872C9.25898 6.11895 9.24463 6.15082 9.23035 6.1828L9.15342 6.17437C8.82115 6.1387 8.49519 6.11323 8.17633 6.098C5.1481 5.95343 2.76057 6.73327 1.7053 8.47782L1.69073 8.50211C0.662575 10.2308 1.12001 12.5816 2.69729 15.017C2.86767 15.2801 3.05112 15.5442 3.24717 15.8085L3.29689 15.8752L3.24539 15.9424C3.04628 16.2033 2.85933 16.4641 2.685 16.7241C1.00641 19.2275 0.497027 21.6567 1.55212 23.4307L1.5667 23.4549C2.63448 25.2202 5.06631 25.9977 8.14573 25.8292C8.46368 25.8118 8.78852 25.7844 9.11948 25.7468L9.19528 25.7381C9.20922 25.7698 9.22324 25.8013 9.23732 25.8328C9.37026 26.1297 9.50911 26.4164 9.65353 26.6921C11.0475 29.3538 12.9597 30.9958 15.0693 30.9958C17.1578 30.9958 19.0526 29.3867 20.4429 26.7722C20.5894 26.4967 20.7303 26.21 20.8653 25.9128C20.8797 25.8811 20.894 25.8492 20.9083 25.8172L20.9852 25.8257C21.3175 25.8613 21.6435 25.8868 21.9623 25.902C24.9905 26.0466 27.378 25.2668 28.4333 23.5222L28.4479 23.4979C29.5131 21.7069 28.9837 19.248 27.2663 16.7192ZM21.7364 13.72C21.7967 14.4666 21.8279 15.2288 21.8279 16C21.8279 16.7059 21.8018 17.4042 21.7511 18.09C21.7187 18.5282 21.6764 18.9612 21.6244 19.3878L21.6148 19.4662L21.5747 19.4963C21.2237 19.7587 20.8618 20.0165 20.4899 20.2687C19.8035 20.7341 19.083 21.1803 18.3342 21.6009L18.31 21.6145C17.6194 22.0015 16.9212 22.3575 16.2223 22.6811C15.8152 22.8696 15.4079 23.0471 15.0017 23.2134L14.9178 23.2476L14.8336 23.2126C14.4283 23.0439 14.0221 22.8639 13.6163 22.6731C12.9714 22.3698 12.3275 22.039 11.69 21.6817L11.6658 21.6681C10.9781 21.2819 10.3143 20.874 9.67885 20.4495C9.30538 20.2001 8.94172 19.9448 8.58879 19.6849L8.54808 19.6548L8.53789 19.5767C8.483 19.1507 8.43765 18.7181 8.40229 18.2801C8.34199 17.5334 8.31073 16.7713 8.31073 16C8.31073 15.1635 8.3475 14.3377 8.4182 13.5308C8.45656 13.0931 8.50489 12.6609 8.56277 12.2355L8.57349 12.1576L8.61488 12.1275C8.96975 11.87 9.33512 11.6174 9.71009 11.3706C10.2937 10.9865 10.9006 10.6166 11.5272 10.2646L11.5514 10.251C12.2286 9.87151 12.9131 9.52183 13.5984 9.20327C14.0093 9.01223 14.4206 8.83237 14.8308 8.66399L14.9166 8.62891L15.002 8.6632C15.4131 8.82899 15.8255 9.00635 16.2379 9.19501C16.9778 9.53359 17.7175 9.90855 18.4486 10.3183L18.4728 10.3319C19.1605 10.7181 19.8244 11.126 20.4598 11.5506C20.8333 11.8 21.197 12.0553 21.5499 12.3152L21.5906 12.3453L21.6008 12.4234C21.6557 12.8494 21.701 13.282 21.7364 13.72ZM22.6645 13.2564C22.7058 13.6906 22.7375 14.1313 22.7592 14.5778C22.7819 15.0459 22.7935 15.5203 22.7935 16C22.7935 16.4118 22.7849 16.8197 22.7681 17.2231C22.7496 17.6699 22.7209 18.1111 22.6826 18.5459L22.6752 18.6288L22.7129 18.5974C23.0726 18.2972 23.4176 17.9927 23.7467 17.6855C24.1163 17.3403 24.4658 16.9916 24.7933 16.6414C25.0105 16.4091 25.218 16.1761 25.4153 15.9431L25.4645 15.8848L25.4138 15.8261C25.2138 15.5956 25.004 15.3653 24.7848 15.1358C24.4552 14.7906 24.1045 14.4473 23.7344 14.1077C23.403 13.8035 23.056 13.5023 22.6947 13.2055L22.6565 13.1742L22.6645 13.2564ZM23.6174 12.7474C23.2706 12.4517 22.9094 12.1596 22.5346 11.8722L22.4924 11.8399L22.4802 11.759C22.4106 11.2994 22.3299 10.849 22.2387 10.4089C22.0602 9.5471 21.8417 8.7249 21.5876 7.95098C21.4893 7.65126 21.3855 7.35879 21.2767 7.07406C21.2639 7.04058 21.2511 7.0072 21.2381 6.97393L21.3063 6.96743C21.6402 6.93636 21.9663 6.91677 22.2834 6.90889C24.72 6.84827 26.6258 7.47881 27.4731 8.90346L27.4875 8.92787C28.3203 10.3574 27.9187 12.277 26.6377 14.2951C26.4717 14.5568 26.2908 14.8201 26.0959 15.0843L26.0507 15.1451L25.9953 15.0814C25.7936 14.8503 25.5827 14.6198 25.3629 14.3902C24.8314 13.835 24.2481 13.2852 23.6174 12.7474ZM21.082 9.62855C21.1885 10.0598 21.2844 10.5028 21.3694 10.9558L21.384 11.0347L21.337 11.0023C20.9699 10.7496 20.592 10.5018 20.2039 10.2596C19.791 10.0019 19.3666 9.75058 18.9314 9.50664L18.9071 9.49306C18.4471 9.2358 17.9859 8.99284 17.5248 8.76427C17.1118 8.55949 16.6988 8.36625 16.2871 8.18463L16.1953 8.14433L16.2812 8.11434C16.7293 7.95873 17.174 7.81751 17.6134 7.69105C18.1785 7.52842 18.7349 7.3902 19.2785 7.27715C19.5949 7.21137 19.907 7.15411 20.2139 7.10554L20.2832 7.0947L20.3188 7.18564C20.4282 7.46817 20.5324 7.75924 20.6311 8.05812C20.7972 8.56069 20.9479 9.08533 21.082 9.62855ZM15.003 7.58444C15.4494 7.41254 15.893 7.25459 16.3326 7.11067C17.2065 6.82459 18.0644 6.59395 18.896 6.41937C19.2129 6.35283 19.526 6.29443 19.8347 6.2442L19.9144 6.2314C19.9008 6.20206 19.8872 6.17284 19.8734 6.14374C19.7338 5.84749 19.5879 5.56361 19.436 5.2932C18.2728 3.22259 16.7603 1.94142 15.0693 1.94142C13.3558 1.94142 11.8255 3.25711 10.6562 5.37676C10.5067 5.6477 10.3632 5.93179 10.2259 6.22795C10.2125 6.2568 10.1992 6.28576 10.1859 6.31484L10.2644 6.32785C10.5723 6.37953 10.8845 6.43929 11.2004 6.5071C11.9449 6.6669 12.7102 6.8714 13.4888 7.12017C13.9297 7.26104 14.3748 7.41611 14.8228 7.5853L14.9127 7.61941L15.003 7.58444ZM13.5482 8.12302C13.0983 7.97014 12.6521 7.83188 12.2114 7.7086C11.7419 7.57725 11.2787 7.46291 10.8241 7.36604C10.5086 7.29879 10.1973 7.23996 9.89086 7.1897L9.82264 7.17863L9.78802 7.26867C9.68015 7.55151 9.57744 7.84274 9.48015 8.14164C9.34363 8.56105 9.21777 8.99555 9.10327 9.44315C8.99313 9.87369 8.8935 10.3163 8.805 10.7693L8.78971 10.8483L8.83789 10.8156C9.20697 10.5654 9.58662 10.3202 9.97628 10.0807C10.3322 9.86194 10.6964 9.64796 11.0686 9.43937L11.0929 9.42579C11.497 9.19979 11.902 8.98482 12.3071 8.78095C12.7189 8.5737 13.1307 8.37791 13.5414 8.19365L13.634 8.15231L13.5482 8.12302ZM7.68868 11.5645C7.76187 11.105 7.84612 10.6549 7.94084 10.2154C8.10537 9.45214 8.30147 8.72087 8.52598 8.02778C8.62299 7.72831 8.72531 7.43597 8.83266 7.15125C8.84516 7.11811 8.85772 7.08507 8.87036 7.05214L8.80314 7.04527C8.4706 7.01201 8.14561 6.98999 7.82933 6.97944C5.33882 6.89635 3.38725 7.52418 2.52689 8.97073L2.51252 8.99514C1.6905 10.4061 2.07108 12.2945 3.31278 14.2838C3.47718 14.5472 3.65668 14.8123 3.85047 15.0784L3.89566 15.1401L3.95135 15.0755C4.15236 14.8433 4.36265 14.6116 4.58191 14.3808C5.173 13.7587 5.82923 13.1431 6.54447 12.5433C6.89348 12.2506 7.25653 11.9617 7.63291 11.6775L7.67598 11.645L7.68868 11.5645ZM6.41788 13.9018C6.75168 13.6007 7.10064 13.3028 7.46354 13.0092L7.50211 12.9781L7.49365 13.0596C7.44925 13.4932 7.41448 13.9334 7.38979 14.3796C7.36033 14.9119 7.34522 15.4525 7.34522 16C7.34522 16.4797 7.35682 16.9542 7.37951 17.4223C7.40115 17.8688 7.43286 18.3096 7.47421 18.7437L7.48216 18.8259L7.44403 18.7946C7.08271 18.4978 6.73571 18.1966 6.40427 17.8924C5.95573 17.4808 5.5357 17.0638 5.14726 16.6448C4.93083 16.4113 4.72421 16.1772 4.52794 15.943L4.47868 15.884L4.52954 15.8245C4.72851 15.5929 4.93748 15.3615 5.15593 15.1308C5.54716 14.7177 5.9688 14.3069 6.41788 13.9018ZM6.52132 19.2527C6.86813 19.5484 7.22929 19.8405 7.60406 20.1279L7.64633 20.1602L7.65846 20.2411C7.72813 20.7007 7.80884 21.1511 7.89998 21.5912C8.06663 22.3959 8.26819 23.166 8.501 23.8946C8.59664 24.1938 8.69755 24.4861 8.80348 24.7708L8.84029 24.8689L8.77406 24.8762C8.44281 24.9116 8.11887 24.936 7.80333 24.9491C5.2591 25.0551 3.26157 24.4303 2.38828 22.962L2.37391 22.9376C1.5266 21.4832 1.95704 19.5216 3.29126 17.465C3.46 17.2049 3.64319 16.9433 3.84008 16.681L3.88694 16.6189L3.94093 16.6831C4.13922 16.9177 4.34705 17.152 4.56409 17.3855C5.15119 18.017 5.80573 18.6426 6.52132 19.2527ZM9.0567 22.3716C8.95024 21.9403 8.85425 21.4973 8.76933 21.0443L8.75466 20.9654L8.80169 20.9978C9.16884 21.2505 9.54673 21.4983 9.93479 21.7405C10.3476 21.9982 10.772 22.2495 11.2072 22.4934L11.2315 22.507C11.6012 22.7137 11.9717 22.9113 12.3422 23.0995C12.7487 23.306 13.1553 23.5013 13.561 23.6854L13.6515 23.7263L13.5671 23.7557C13.1236 23.9095 12.6834 24.0491 12.2484 24.1743C11.7542 24.3166 11.2667 24.4401 10.7886 24.5445C10.4738 24.6132 10.1631 24.6736 9.85725 24.7255L9.79011 24.7368L9.75635 24.6477C9.64999 24.3645 9.54877 24.0731 9.45293 23.7741C9.3083 23.3229 9.17594 22.8546 9.0567 22.3716ZM14.8259 24.2935C14.384 24.4631 13.9447 24.619 13.5094 24.7612C12.7097 25.0223 11.9235 25.2369 11.1586 25.4047C10.8436 25.4737 10.5323 25.5348 10.2252 25.588L10.148 25.6012L10.1869 25.6873C10.3219 25.9834 10.4632 26.2677 10.6103 26.5392C11.7853 28.7081 13.3332 30.0586 15.0693 30.0586C16.7829 30.0586 18.3132 28.7429 19.4825 26.6233C19.6319 26.3523 19.7755 26.0683 19.9128 25.7721C19.9262 25.7432 19.9395 25.7143 19.9527 25.6852L19.8743 25.6722C19.5664 25.6205 19.2542 25.5608 18.9383 25.4929C18.0872 25.3103 17.2089 25.0692 16.3148 24.7703C15.8807 24.6253 15.4429 24.4666 15.0026 24.2944L14.914 24.2595L14.8259 24.2935ZM17.5792 24.1913C17.1454 24.063 16.7067 23.9205 16.2649 23.7641L16.1804 23.734L16.2701 23.6942C16.6768 23.5126 17.0846 23.3197 17.4924 23.1156C17.9181 22.9026 18.3438 22.6772 18.7685 22.4397L18.7928 22.4261C19.2911 22.1468 19.7752 21.8579 20.2441 21.5608C20.6305 21.3159 21.0066 21.0654 21.3718 20.8102L21.4178 20.778L21.4037 20.857C21.3224 21.3099 21.23 21.7532 21.1271 22.1853C20.9892 22.7647 20.8325 23.3238 20.6585 23.8584C20.5612 24.1573 20.4585 24.4485 20.3506 24.7314L20.316 24.8214L20.2478 24.8104C19.9414 24.7601 19.63 24.7013 19.3145 24.634C18.748 24.5133 18.1681 24.3654 17.5792 24.1913ZM22.5091 20.0456C22.4429 20.5053 22.3657 20.9561 22.2781 21.3968C22.0985 22.3008 21.875 23.1626 21.6127 23.9723C21.5157 24.2717 21.4134 24.5641 21.306 24.8488C21.2935 24.8819 21.2809 24.915 21.2683 24.9479L21.3355 24.9548C21.6681 24.988 21.9931 25.01 22.3093 25.0206C24.7998 25.1037 26.7514 24.4758 27.6117 23.0293L27.6261 23.0049C28.4839 21.5324 28.0321 19.5401 26.6587 17.4557C26.4884 17.1973 26.3039 16.9374 26.106 16.6769L26.0592 16.6156L26.0055 16.679C25.8064 16.9125 25.5979 17.1456 25.3803 17.3778C24.852 17.9416 24.2702 18.5004 23.6392 19.0474C23.2946 19.3462 22.9353 19.6414 22.5622 19.9321L22.5207 19.9644L22.5091 20.0456Z" fill="white"/>
<path d="M22.7592 14.5778C22.7375 14.1313 22.7058 13.6906 22.6645 13.2564L22.6565 13.1742L22.6947 13.2055C23.056 13.5023 23.403 13.8035 23.7344 14.1077C24.1045 14.4473 24.4552 14.7906 24.7848 15.1358C25.004 15.3653 25.2138 15.5956 25.4138 15.8261L25.4645 15.8848L25.4153 15.9431C25.218 16.1761 25.0105 16.4091 24.7933 16.6414C24.4658 16.9916 24.1163 17.3403 23.7467 17.6855C23.4176 17.9927 23.0726 18.2972 22.7129 18.5974L22.6752 18.6288L22.6826 18.5459C22.7209 18.1111 22.7496 17.6699 22.7681 17.2231C22.7849 16.8197 22.7935 16.4118 22.7935 16C22.7935 15.5203 22.7819 15.0459 22.7592 14.5778Z" fill="white"/>
<path d="M16.2649 23.7641C16.7067 23.9205 17.1454 24.063 17.5792 24.1913C18.1681 24.3654 18.748 24.5133 19.3145 24.634C19.63 24.7013 19.9414 24.7601 20.2478 24.8104L20.316 24.8214L20.3506 24.7314C20.4585 24.4485 20.5612 24.1573 20.6585 23.8584C20.8325 23.3238 20.9892 22.7647 21.1271 22.1853C21.23 21.7532 21.3224 21.3099 21.4037 20.857L21.4178 20.778L21.3718 20.8102C21.0066 21.0654 20.6305 21.3159 20.2441 21.5608C19.7752 21.8579 19.2911 22.1468 18.7928 22.4261L18.7685 22.4397C18.3438 22.6772 17.9181 22.9026 17.4924 23.1156C17.0846 23.3197 16.6768 23.5126 16.2701 23.6942L16.1804 23.734L16.2649 23.7641Z" fill="white"/>
<path d="M21.3694 10.9558C21.2844 10.5028 21.1885 10.0598 21.082 9.62855C20.9479 9.08533 20.7972 8.56069 20.6311 8.05812C20.5324 7.75924 20.4282 7.46817 20.3188 7.18564L20.2832 7.0947L20.2139 7.10554C19.907 7.15411 19.5949 7.21137 19.2785 7.27715C18.7349 7.3902 18.1785 7.52842 17.6134 7.69105C17.174 7.81751 16.7293 7.95873 16.2812 8.11434L16.1953 8.14433L16.2871 8.18463C16.6988 8.36625 17.1118 8.55949 17.5248 8.76427C17.9859 8.99284 18.4471 9.2358 18.9071 9.49306L18.9314 9.50664C19.3666 9.75058 19.791 10.0019 20.2039 10.2596C20.592 10.5018 20.9699 10.7496 21.337 11.0023L21.384 11.0347L21.3694 10.9558Z" fill="white"/>
<path d="M12.2114 7.7086C12.6521 7.83188 13.0983 7.97014 13.5482 8.12302L13.634 8.15231L13.5414 8.19365C13.1307 8.37791 12.7189 8.5737 12.3071 8.78095C11.902 8.98482 11.497 9.19979 11.0929 9.42579L11.0686 9.43937C10.6964 9.64796 10.3322 9.86194 9.97628 10.0807C9.58662 10.3202 9.20697 10.5654 8.83789 10.8156L8.78971 10.8483L8.805 10.7693C8.8935 10.3163 8.99313 9.87369 9.10327 9.44315C9.21777 8.99555 9.34363 8.56105 9.48015 8.14164C9.57744 7.84274 9.68015 7.55151 9.78802 7.26867L9.82264 7.17863L9.89086 7.1897C10.1973 7.23996 10.5086 7.29879 10.8241 7.36604C11.2787 7.46291 11.7419 7.57725 12.2114 7.7086Z" fill="white"/>
<path fill-rule="evenodd" clip-rule="evenodd" d="M16.3326 7.11067C15.893 7.25459 15.4494 7.41254 15.003 7.58444L14.9127 7.61941L14.8228 7.5853C14.3748 7.41611 13.9297 7.26104 13.4888 7.12017C12.7102 6.8714 11.9449 6.6669 11.2004 6.5071C10.8845 6.43929 10.5723 6.37953 10.2644 6.32785L10.1859 6.31484C10.1992 6.28576 10.2125 6.2568 10.2259 6.22795C10.3632 5.93179 10.5067 5.6477 10.6562 5.37676C11.8255 3.25711 13.3558 1.94142 15.0693 1.94142C16.7603 1.94142 18.2728 3.22259 19.436 5.2932C19.5879 5.56361 19.7338 5.84749 19.8734 6.14374C19.8872 6.17284 19.9008 6.20206 19.9144 6.2314L19.8347 6.2442C19.526 6.29443 19.2129 6.35283 18.896 6.41937C18.0644 6.59395 17.2065 6.82459 16.3326 7.11067ZM14.9092 6.54657C16.0959 6.10259 17.2669 5.75274 18.3993 5.49971C17.3527 3.75951 16.1636 2.94561 15.0693 2.94561C13.957 2.94561 12.7467 3.78658 11.6877 5.58659C12.7351 5.8248 13.815 6.1455 14.9092 6.54657Z" fill="white"/>
<path fill-rule="evenodd" clip-rule="evenodd" d="M7.94084 10.2154C7.84612 10.6549 7.76187 11.105 7.68868 11.5645L7.67598 11.645L7.63291 11.6775C7.25653 11.9617 6.89348 12.2506 6.54447 12.5433C5.82923 13.1431 5.173 13.7587 4.58191 14.3808C4.36265 14.6116 4.15236 14.8433 3.95135 15.0755L3.89566 15.1401L3.85047 15.0784C3.65668 14.8123 3.47718 14.5472 3.31278 14.2838C2.07108 12.2945 1.6905 10.4061 2.51252 8.99514L2.52689 8.97073C3.38725 7.52418 5.33882 6.89635 7.82933 6.97944C8.14561 6.98999 8.4706 7.01201 8.80314 7.04527L8.87036 7.05214C8.85772 7.08507 8.84516 7.11811 8.83266 7.15125C8.72531 7.43597 8.62299 7.72831 8.52598 8.02778C8.30147 8.72087 8.10537 9.45214 7.94084 10.2154ZM6.75408 11.0874C6.94132 9.99592 7.18976 8.95401 7.49287 7.97674C6.59904 7.9695 5.81807 8.06669 5.17321 8.25843C4.27565 8.52533 3.70121 8.95447 3.38525 9.4857C2.85979 10.3692 2.97489 11.7559 4.01898 13.5204C4.82841 12.6858 5.74495 11.8686 6.75408 11.0874Z" fill="white"/>
<path d="M7.46354 13.0092C7.10064 13.3028 6.75168 13.6007 6.41788 13.9018C5.9688 14.3069 5.54716 14.7177 5.15593 15.1308C4.93748 15.3615 4.72851 15.5929 4.52954 15.8245L4.47868 15.884L4.52794 15.943C4.72421 16.1772 4.93083 16.4113 5.14726 16.6448C5.5357 17.0638 5.95573 17.4808 6.40427 17.8924C6.73571 18.1966 7.08271 18.4978 7.44403 18.7946L7.48216 18.8259L7.47421 18.7437C7.43286 18.3096 7.40115 17.8688 7.37951 17.4223C7.35682 16.9542 7.34522 16.4797 7.34522 16C7.34522 15.4525 7.36033 14.9119 7.38979 14.3796C7.41448 13.9334 7.44925 13.4932 7.49365 13.0596L7.50211 12.9781L7.46354 13.0092Z" fill="white"/>
<path fill-rule="evenodd" clip-rule="evenodd" d="M7.60406 20.1279C7.22929 19.8405 6.86813 19.5484 6.52132 19.2527C5.80573 18.6426 5.15119 18.017 4.56409 17.3855C4.34705 17.152 4.13922 16.9177 3.94093 16.6831L3.88694 16.6189L3.84008 16.681C3.64319 16.9433 3.46 17.2049 3.29126 17.465C1.95704 19.5216 1.5266 21.4832 2.37391 22.9376L2.38828 22.962C3.26157 24.4303 5.2591 25.0551 7.80333 24.9491C8.11887 24.936 8.44281 24.9116 8.77406 24.8762L8.84029 24.8689L8.80348 24.7708C8.69755 24.4861 8.59664 24.1938 8.501 23.8946C8.26819 23.166 8.06663 22.3959 7.89998 21.5912C7.80884 21.1511 7.72813 20.7007 7.65846 20.2411L7.64633 20.1602L7.60406 20.1279ZM6.72026 20.7108C5.70838 19.915 4.79246 19.0834 3.98759 18.2351C2.84465 20.0841 2.70372 21.5342 3.24664 22.4471C3.5626 22.9783 4.13704 23.4074 5.03461 23.6743C5.70754 23.8744 6.5287 23.9715 7.47166 23.9545C7.15969 22.9369 6.90678 21.8501 6.72026 20.7108Z" fill="white"/>
<path fill-rule="evenodd" clip-rule="evenodd" d="M13.5094 24.7612C13.9447 24.619 14.384 24.4631 14.8259 24.2935L14.914 24.2595L15.0026 24.2944C15.4429 24.4666 15.8807 24.6253 16.3148 24.7703C17.2089 25.0692 18.0872 25.3103 18.9383 25.4929C19.2542 25.5608 19.5664 25.6205 19.8743 25.6722L19.9527 25.6852C19.9395 25.7143 19.9262 25.7432 19.9128 25.7721C19.7755 26.0683 19.6319 26.3523 19.4825 26.6233C18.3132 28.7429 16.7829 30.0586 15.0693 30.0586C13.3332 30.0586 11.7853 28.7081 10.6103 26.5392C10.4632 26.2677 10.3219 25.9834 10.1869 25.6873L10.148 25.6012L10.2252 25.588C10.5323 25.5348 10.8436 25.4737 11.1586 25.4047C11.9235 25.2369 12.7097 25.0223 13.5094 24.7612ZM14.9106 25.3345C13.799 25.7484 12.7015 26.0797 11.6368 26.326C12.7078 28.1862 13.9392 29.0544 15.0693 29.0544C16.1816 29.0544 17.392 28.2134 18.451 26.4135C17.302 26.1521 16.1138 25.7915 14.9106 25.3345Z" fill="white"/>
<path d="M8.76933 21.0443C8.85425 21.4973 8.95024 21.9403 9.0567 22.3716C9.17594 22.8546 9.3083 23.3229 9.45293 23.7741C9.54877 24.0731 9.64999 24.3645 9.75635 24.6477L9.79011 24.7368L9.85725 24.7255C10.1631 24.6736 10.4738 24.6132 10.7886 24.5445C11.2667 24.4401 11.7542 24.3166 12.2484 24.1743C12.6834 24.0491 13.1236 23.9095 13.5671 23.7557L13.6515 23.7263L13.561 23.6854C13.1553 23.5013 12.7487 23.306 12.3422 23.0995C11.9717 22.9113 11.6012 22.7137 11.2315 22.507L11.2072 22.4934C10.772 22.2495 10.3476 21.9982 9.93479 21.7405C9.54673 21.4983 9.16884 21.2505 8.80169 20.9978L8.75466 20.9654L8.76933 21.0443Z" fill="white"/>
<path fill-rule="evenodd" clip-rule="evenodd" d="M22.2781 21.3968C22.3657 20.9561 22.4429 20.5053 22.5091 20.0456L22.5207 19.9644L22.5622 19.9321C22.9353 19.6414 23.2946 19.3462 23.6392 19.0474C24.2702 18.5004 24.852 17.9416 25.3803 17.3778C25.5979 17.1456 25.8064 16.9125 26.0055 16.679L26.0592 16.6156L26.106 16.6769C26.3039 16.9374 26.4884 17.1973 26.6587 17.4557C28.0321 19.5401 28.4839 21.5324 27.6261 23.0049L27.6117 23.0293C26.7514 24.4758 24.7998 25.1037 22.3093 25.0206C21.9931 25.01 21.6681 24.988 21.3355 24.9548L21.2683 24.9479C21.2809 24.915 21.2935 24.8819 21.306 24.8488C21.4134 24.5641 21.5157 24.2717 21.6127 23.9723C21.875 23.1626 22.0985 22.3008 22.2781 21.3968ZM23.4509 20.5079C23.2576 21.747 22.9862 22.9259 22.6458 24.0233C23.5396 24.0305 24.3206 23.9333 24.9654 23.7416C25.863 23.4747 26.4374 23.0456 26.7534 22.5143C27.3042 21.5882 27.1511 20.1089 25.9617 18.2211C25.215 19.0029 24.3741 19.7702 23.4509 20.5079Z" fill="white"/>
<path fill-rule="evenodd" clip-rule="evenodd" d="M22.5346 11.8722C22.9094 12.1596 23.2706 12.4517 23.6174 12.7474C24.2481 13.2852 24.8314 13.835 25.3629 14.3902C25.5827 14.6198 25.7936 14.8503 25.9953 15.0814L26.0507 15.1451L26.0959 15.0843C26.2908 14.8201 26.4717 14.5568 26.6377 14.2951C27.9187 12.277 28.3203 10.3574 27.4875 8.92787L27.4731 8.90346C26.6258 7.47881 24.72 6.84827 22.2834 6.90889C21.9663 6.91677 21.6402 6.93636 21.3063 6.96743L21.2381 6.97393C21.2511 7.0072 21.2639 7.04058 21.2767 7.07406C21.3855 7.35879 21.4893 7.65126 21.5876 7.95098C21.8417 8.7249 22.0602 9.5471 22.2387 10.4089C22.3299 10.849 22.4106 11.2994 22.4802 11.759L22.4924 11.8399L22.5346 11.8722ZM23.4184 11.2893C24.3393 12.0135 25.1807 12.7674 25.9312 13.5365C27.0213 11.7323 27.1484 10.3157 26.6148 9.41843C26.2988 8.8872 25.7244 8.45805 24.8268 8.19116C24.2104 8.00787 23.4696 7.91099 22.6247 7.90912C22.9562 8.9658 23.2236 10.0989 23.4184 11.2893Z" fill="white"/>
</svg>
