<svg width="32" height="30" viewBox="0 0 32 30" fill="none" xmlns="http://www.w3.org/2000/svg">
<path d="M23.2262 15.5928C23.2453 15.2962 23.0094 15.0539 22.7197 15.0539H20.8478C20.4482 15.0539 20.1967 14.6118 20.3931 14.2546L25.8785 5.34016C26.0809 4.97213 26.5993 4.97814 26.7936 5.35076L31.9375 14.2652C32.1236 14.6222 31.8716 15.0539 31.4772 15.0539H29.5767C29.2892 15.0539 29.0567 15.2926 29.0454 15.5876C28.9399 18.3477 28.0983 21.0284 26.6083 23.3315C25.0119 25.799 22.7429 27.7222 20.0881 28.8578C17.4334 29.9935 14.5123 30.2906 11.694 29.7117C8.8758 29.1327 6.2871 27.7037 4.25527 25.6052C2.22344 23.5068 0.839745 20.8332 0.279165 17.9226C-0.281415 15.012 0.00629508 11.995 1.10591 9.25329C2.20553 6.51154 4.06767 4.16813 6.45685 2.5194C8.70112 0.970659 11.3158 0.100227 14.0064 0.000343012C14.2945 -0.0103547 14.5284 0.230579 14.5284 0.526538V5.45664C14.5284 5.7526 14.2944 5.99084 14.0066 6.00867C12.4659 6.10407 10.9739 6.6206 9.68546 7.50977C8.25195 8.49901 7.13467 9.90505 6.4749 11.5501C5.81513 13.1951 5.6425 15.0053 5.97885 16.7517C6.3152 18.4981 7.14541 20.1022 8.36451 21.3613C9.58361 22.6203 11.1368 23.4778 12.8278 23.8251C14.5187 24.1725 16.2714 23.9942 17.8642 23.3128C19.4571 22.6314 20.8185 21.4775 21.7763 19.997C22.6267 18.6826 23.1251 17.1632 23.2262 15.5928Z" fill="white"/>
</svg>
