<svg width="17" height="32" viewBox="0 0 17 32" fill="none" xmlns="http://www.w3.org/2000/svg">
<path d="M15.0302 2C16.0899 2 17 2.84151 17 3.9415V22.0668C17 23.1668 16.0899 24.0083 15.0302 24.0083H6.77693L9.5241 26.6752C10.3074 27.4357 10.3074 28.6813 9.5241 29.4417C8.75737 30.1861 7.52618 30.1861 6.75945 29.4417L0.587504 23.4501C-0.195835 22.6896 -0.195835 21.444 0.587505 20.6836L6.75945 14.6919C7.52618 13.9475 8.75737 13.9475 9.5241 14.6919C10.3074 15.4523 10.3074 16.6979 9.5241 17.4584L6.77693 20.1253H13.0603V3.9415C13.0603 2.84151 13.9704 2 15.0302 2Z" fill="white"/>
</svg>
