<svg width="16" height="32" viewBox="0 0 16 32" fill="none" xmlns="http://www.w3.org/2000/svg">
<path fill-rule="evenodd" clip-rule="evenodd" d="M14.9655 0C15.5368 0 16 0.449627 16 1.00427V24.6046C16 25.1592 15.5368 25.6089 14.9655 25.6089H4.03144C3.84711 25.6089 3.7548 25.8252 3.88514 25.9517L8.34938 30.2856C8.75337 30.6778 8.75337 31.3137 8.34938 31.7059C7.94539 32.098 7.29039 32.098 6.8864 31.7059L0.302993 25.3147C-0.100998 24.9225 -0.100998 24.2867 0.302993 23.8945L6.8864 17.5033C7.29039 17.1112 7.94539 17.1112 8.34938 17.5033C8.75337 17.8955 8.75337 18.5314 8.34938 18.9236L3.88514 23.2575C3.7548 23.384 3.84711 23.6003 4.03144 23.6003H13.4138C13.6995 23.6003 13.931 23.3755 13.931 23.0982V1.00427C13.931 0.449627 14.3942 0 14.9655 0Z" fill="white"/>
</svg>
