<svg width="32" height="32" viewBox="0 0 32 32" fill="none" xmlns="http://www.w3.org/2000/svg">
<path d="M16 11C17.1046 11 18 10.1046 18 9C18 7.89543 17.1046 7 16 7C14.8954 7 14 7.89543 14 9C14 10.1046 14.8954 11 16 11Z" fill="white"/>
<path fill-rule="evenodd" clip-rule="evenodd" d="M17 0.3C17 0.134315 16.8657 0 16.7 0H15.3C15.1343 0 15 0.134314 15 0.3V1.75559C15 1.91308 14.8775 2.04347 14.7206 2.05768C8.0096 2.66565 2.66566 8.0096 2.05768 14.7206C2.04347 14.8775 1.91308 15 1.75559 15H0.3C0.134315 15 0 15.1343 0 15.3V16.7C0 16.8657 0.134315 17 0.3 17H1.75559C1.91308 17 2.04347 17.1225 2.05768 17.2794C2.66565 23.9904 8.0096 29.3343 14.7206 29.9423C14.8775 29.9565 15 30.0869 15 30.2444V31.7C15 31.8657 15.1343 32 15.3 32H16.7C16.8657 32 17 31.8657 17 31.7V30.2444C17 30.0869 17.1225 29.9565 17.2794 29.9423C23.9904 29.3343 29.3343 23.9904 29.9423 17.2794C29.9565 17.1225 30.0869 17 30.2444 17H31.7C31.8657 17 32 16.8657 32 16.7V15.3C32 15.1343 31.8657 15 31.7 15H30.2444C30.0869 15 29.9565 14.8775 29.9423 14.7206C29.3343 8.0096 23.9904 2.66565 17.2794 2.05768C17.1225 2.04347 17 1.91308 17 1.75559V0.3ZM16 28C22.6274 28 28 22.6274 28 16C28 9.37258 22.6274 4 16 4C13.1635 4 10.5568 4.98417 8.50285 6.62966C8.3659 6.73938 8.35765 6.94329 8.48174 7.06738L14.5566 13.1422C14.6465 13.2322 14.7829 13.2542 14.9013 13.2076C15.2415 13.0736 15.6122 13 16 13C17.6569 13 19 14.3431 19 16C19 17.6569 17.6569 19 16 19C14.3431 19 13 17.6569 13 16C13 15.6121 13.0736 15.2414 13.2077 14.9011C13.2543 14.7827 13.2323 14.6463 13.1423 14.5564L10.7914 12.2054C10.6618 12.0758 10.4468 12.0915 10.3454 12.2442C9.85807 12.978 9.51573 13.8033 9.3422 14.6757C9.08028 15.9925 9.21471 17.3573 9.72849 18.5977C10.2423 19.8381 11.1123 20.8983 12.2287 21.6442C13.345 22.3901 14.6574 22.7882 16 22.7882C17.3426 22.7882 18.655 22.3901 19.7713 21.6442C20.8877 20.8983 21.7577 19.8381 22.2715 18.5977C22.7853 17.3573 22.9197 15.9925 22.6578 14.6757C22.4154 13.4571 21.8437 12.3304 21.0074 11.4167C20.8955 11.2945 20.895 11.105 21.0121 10.9879L21.7879 10.2121C21.905 10.095 22.0954 10.0946 22.2084 10.2158C23.2814 11.3676 24.0144 12.7968 24.3222 14.3446C24.6497 15.9906 24.4816 17.6967 23.8394 19.2472C23.1972 20.7977 22.1096 22.1229 20.7142 23.0552C19.3188 23.9876 17.6782 24.4853 16 24.4853C14.3218 24.4853 12.6812 23.9876 11.2858 23.0552C9.89043 22.1229 8.80285 20.7977 8.16061 19.2472C7.51838 17.6967 7.35035 15.9906 7.67775 14.3446C7.92227 13.1153 8.43492 11.9608 9.17314 10.9607C9.26341 10.8384 9.2538 10.6679 9.14631 10.5604L7.06751 8.48157C6.94342 8.35748 6.73952 8.36573 6.62979 8.50268C4.98422 10.5567 4 13.1634 4 16C4 22.6274 9.37258 28 16 28ZM16 17.5C15.1716 17.5 14.5 16.8284 14.5 16C14.5 15.1716 15.1716 14.5 16 14.5C16.8284 14.5 17.5 15.1716 17.5 16C17.5 16.8284 16.8284 17.5 16 17.5Z" fill="white"/>
</svg>
