<svg width="26" height="32" viewBox="0 0 26 32" fill="none" xmlns="http://www.w3.org/2000/svg">
<path d="M13.7143 12C13.7143 11.6844 13.9701 11.4286 14.2857 11.4286H17.7143C18.0299 11.4286 18.2857 11.6844 18.2857 12V27.9053C18.2857 27.9659 18.2616 28.0241 18.2188 28.0669L17.7812 28.5045C17.7384 28.5473 17.7143 28.6055 17.7143 28.6661V29.0482C17.7143 29.1088 17.7384 29.1669 17.7812 29.2098L18.2188 29.6473C18.2616 29.6902 18.2857 29.7483 18.2857 29.809V31.4286C18.2857 31.7442 18.0299 32 17.7143 32H14.2857C13.9701 32 13.7143 31.7442 13.7143 31.4286V29.809C13.7143 29.7483 13.7384 29.6902 13.7812 29.6473L14.2188 29.2098C14.2616 29.1669 14.2857 29.1088 14.2857 29.0482V28.6661C14.2857 28.6055 14.2616 28.5473 14.2188 28.5045L13.7812 28.0669C13.7384 28.0241 13.7143 27.9659 13.7143 27.9053V12Z" fill="white"/>
<path d="M13.7143 9.71427C13.7143 10.0299 13.9701 10.2857 14.2857 10.2857H17.7143C18.0299 10.2857 18.2857 10.0299 18.2857 9.71427V7.52641C18.2857 5.39733 17.79 3.29749 16.8379 1.39319L16.2045 0.126351C16.1623 0.0421171 16.0812 8.51496e-09 16 0C15.9189 -8.51496e-09 15.8377 0.0421171 15.7956 0.126351L15.1622 1.39319C14.21 3.29749 13.7143 5.39733 13.7143 7.52641V9.71427Z" fill="white"/>
<path d="M0 12C0 11.6844 0.255838 11.4286 0.571429 11.4286H4C4.31559 11.4286 4.57143 11.6844 4.57143 12V27.9053C4.57143 27.9659 4.54735 28.0241 4.50449 28.0669L4.06695 28.5045C4.02408 28.5473 4 28.6055 4 28.6661V29.0482C4 29.1088 4.02408 29.1669 4.06695 29.2098L4.50449 29.6473C4.54735 29.6902 4.57143 29.7483 4.57143 29.809V31.4286C4.57143 31.7442 4.31559 32 4 32H0.571429C0.255838 32 0 31.7442 0 31.4286V29.809C0 29.7483 0.0240816 29.6902 0.0669471 29.6473L0.504482 29.2098C0.547347 29.1669 0.571429 29.1088 0.571429 29.0482V28.6661C0.571429 28.6055 0.547347 28.5473 0.504482 28.5045L0.066947 28.0669C0.0240815 28.0241 0 27.9659 0 27.9053V12Z" fill="white"/>
<path d="M0 9.71427C0 10.0299 0.255838 10.2857 0.571429 10.2857H4C4.31559 10.2857 4.57143 10.0299 4.57143 9.71427V7.52641C4.57143 5.39733 4.07573 3.29749 3.12358 1.39319L2.49016 0.126351C2.44804 0.0421171 2.36688 8.51496e-09 2.28572 0C2.20455 -8.51496e-09 2.12339 0.0421171 2.08128 0.126351L1.44786 1.39319C0.495704 3.29749 0 5.39733 0 7.52641V9.71427Z" fill="white"/>
<path d="M20.5714 12C20.5714 11.6844 20.8273 11.4286 21.1429 11.4286H24.5714C24.887 11.4286 25.1429 11.6844 25.1429 12V27.9053C25.1429 27.9659 25.1188 28.0241 25.0759 28.0669L24.6384 28.5045C24.5955 28.5473 24.5714 28.6055 24.5714 28.6661V29.0482C24.5714 29.1088 24.5955 29.1669 24.6384 29.2098L25.0759 29.6473C25.1188 29.6902 25.1429 29.7483 25.1429 29.809V31.4286C25.1429 31.7442 24.887 32 24.5714 32H21.1429C20.8273 32 20.5714 31.7442 20.5714 31.4286V29.809C20.5714 29.7483 20.5955 29.6902 20.6384 29.6473L21.0759 29.2098C21.1188 29.1669 21.1429 29.1088 21.1429 29.0482V28.6661C21.1429 28.6055 21.1188 28.5473 21.0759 28.5045L20.6384 28.0669C20.5955 28.0241 20.5714 27.9659 20.5714 27.9053V12Z" fill="white"/>
<path d="M20.5714 9.71427C20.5714 10.0299 20.8273 10.2857 21.1429 10.2857H24.5714C24.887 10.2857 25.1429 10.0299 25.1429 9.71427V7.52641C25.1429 5.39733 24.6472 3.29749 23.695 1.39319L23.0616 0.126351C23.0195 0.0421171 22.9383 8.51496e-09 22.8572 0C22.776 -8.51496e-09 22.6948 0.0421171 22.6527 0.126351L22.0193 1.39319C21.0671 3.29749 20.5714 5.39733 20.5714 7.52641V9.71427Z" fill="white"/>
<path d="M6.85715 12C6.85715 11.6844 7.11299 11.4286 7.42858 11.4286H10.8572C11.1727 11.4286 11.4286 11.6844 11.4286 12V27.9053C11.4286 27.9659 11.4045 28.0241 11.3616 28.0669L10.9241 28.5045C10.8812 28.5473 10.8572 28.6055 10.8572 28.6661V29.0482C10.8572 29.1088 10.8812 29.1669 10.9241 29.2098L11.3616 29.6473C11.4045 29.6902 11.4286 29.7483 11.4286 29.809V31.4286C11.4286 31.7442 11.1727 32 10.8572 32H7.42858C7.11299 32 6.85715 31.7442 6.85715 31.4286V29.809C6.85715 29.7483 6.88123 29.6902 6.9241 29.6473L7.36163 29.2098C7.4045 29.1669 7.42858 29.1088 7.42858 29.0482V28.6661C7.42858 28.6055 7.4045 28.5473 7.36163 28.5045L6.9241 28.0669C6.88123 28.0241 6.85715 27.9659 6.85715 27.9053V12Z" fill="white"/>
<path d="M6.85715 9.71427C6.85715 10.0299 7.11299 10.2857 7.42858 10.2857H10.8572C11.1727 10.2857 11.4286 10.0299 11.4286 9.71427V7.52641C11.4286 5.39733 10.9329 3.29749 9.98072 1.39319L9.34731 0.126351C9.30519 0.0421171 9.22403 8.51496e-09 9.14286 0C9.0617 -8.51496e-09 8.98054 0.0421171 8.93842 0.126351L8.305 1.39319C7.35285 3.29749 6.85715 5.39733 6.85715 7.52641V9.71427Z" fill="white"/>
</svg>
