<svg width="14" height="32" viewBox="0 0 14 32" fill="none" xmlns="http://www.w3.org/2000/svg">
<path d="M4.99999 15.7529C4.99999 15.6421 5.08953 15.5523 5.19999 15.5523H8.79999C8.91045 15.5523 8.99999 15.6421 8.99999 15.7529V29.9005C8.99999 30.0113 8.91045 30.1011 8.79999 30.1011H5.19999C5.08953 30.1011 4.99999 30.0113 4.99999 29.9005V15.7529Z" fill="white"/>
<path d="M9.61876 30.1541C9.54654 30.1219 9.49999 30.05 9.49999 29.9707V24.4559C9.49999 24.2956 9.67802 24.2 9.81093 24.2889L13.9109 27.0315C13.9666 27.0687 14 27.1313 14 27.1984V31.7991C14 31.9443 13.851 32.0415 13.7188 31.9825L9.61876 30.1541Z" fill="white"/>
<path d="M4.38122 30.1541C4.45344 30.1219 4.49999 30.05 4.49999 29.9707V24.4559C4.49999 24.2956 4.32196 24.2 4.18905 24.2889L0.0890596 27.0315C0.03342 27.0687 0 27.1313 0 27.1984V31.7991C0 31.9443 0.14897 32.0415 0.281228 31.9825L4.38122 30.1541Z" fill="white"/>
<path d="M4.96212 14.8986C4.98438 14.9879 5.06437 15.0506 5.15615 15.0506H8.84383C8.93561 15.0506 9.0156 14.9879 9.03786 14.8986L9.44028 13.2835C9.47994 13.1243 9.49999 12.9609 9.49999 12.7968V6.72259C9.49999 6.61176 9.41045 6.52192 9.29999 6.52192H4.69999C4.58953 6.52192 4.49999 6.61176 4.49999 6.72259V12.7968C4.49999 12.9609 4.52004 13.1243 4.55971 13.2835L4.96212 14.8986Z" fill="white"/>
<path d="M4.56212 5.77088C4.53056 5.89754 4.62603 6.02023 4.75615 6.02023H9.24384C9.37395 6.02023 9.46942 5.89754 9.43786 5.77088L8.09467 0.380009C8.03903 0.156675 7.83904 0 7.6096 0H6.39038C6.16094 0 5.96095 0.156675 5.90531 0.380009L4.56212 5.77088Z" fill="white"/>
</svg>
