<svg width="32" height="32" viewBox="0 0 32 32" fill="none" xmlns="http://www.w3.org/2000/svg">
<path d="M15.2005 5.54675L13.6965 10.8337L13.4345 11.5667C13.2846 11.9859 13.0973 12.3899 12.875 12.7734L9.18028 19.148C9.0623 19.3515 9 19.5842 9 19.8214V21.8981C9 22.0147 9.13658 22.0734 9.2169 21.9912L11.9184 19.7656L12.1818 21.5246L10.4491 23.7997C10.3369 23.947 10.2911 24.1367 10.3232 24.321L10.6154 26L13.4925 24.4596C13.7091 24.3488 13.8462 24.121 13.8462 23.8716V22.1808C13.8462 21.5246 13.8462 21.5246 14.1457 21.5246H14.6707C14.7029 21.5246 14.7301 21.5495 14.7339 21.5826L14.8571 22.6661C14.8947 22.9967 15.1664 23.2459 15.4892 23.2459H16.5108C16.8336 23.2459 17.1053 22.9967 17.1429 22.6661L17.2661 21.5826C17.2699 21.5495 17.2971 21.5246 17.3293 21.5246H17.8543C18.1538 21.5246 18.1538 21.5246 18.1538 22.1808V23.8716C18.1538 24.121 18.2909 24.3488 18.5075 24.4596L21.3846 26L21.6768 24.321C21.7089 24.1367 21.6631 23.947 21.5509 23.7997L19.8182 21.5246L20.0816 19.7656L22.7831 21.9912C22.8634 22.0734 23 22.0147 23 21.8981V19.8214C23 19.5842 22.9377 19.3515 22.8197 19.148L19.125 12.7734C18.9027 12.3899 18.7154 11.9859 18.5655 11.5667L18.3035 10.8337L16.7995 5.54675C16.7126 5.25542 16.672 5.11932 16.5828 5.05574C16.5045 5 16.389 5 16.1721 5H15.8279C15.611 5 15.4955 5 15.4172 5.05574C15.328 5.11932 15.2874 5.25542 15.2005 5.54675Z" fill="white"/>
<path fill-rule="evenodd" clip-rule="evenodd" d="M30.1023 23.5646C29.9716 23.8079 29.665 23.8892 29.426 23.7509L28.5604 23.2501C28.3214 23.1118 28.2406 22.8063 28.3702 22.5625C29.4102 20.6068 30 18.3749 30 16C30 13.6251 29.4102 11.3932 28.3702 9.43749C28.2406 9.19367 28.3214 8.88823 28.5604 8.74993L29.426 8.24913C29.665 8.11083 29.9716 8.19212 30.1023 8.43535C31.3131 10.6878 32 13.2637 32 16C32 18.7363 31.3131 21.3122 30.1023 23.5646ZM23.5646 1.89766C23.8079 2.02841 23.8892 2.33502 23.7509 2.57403L23.2501 3.43959C23.1118 3.67861 22.8063 3.75942 22.5625 3.62977C20.6068 2.58977 18.3749 2 16 2C13.6251 2 11.3932 2.58977 9.43749 3.62977C9.19367 3.75943 8.88823 3.67861 8.74993 3.43959L8.24913 2.57403C8.11083 2.33502 8.19212 2.02841 8.43535 1.89766C10.6878 0.686896 13.2637 0 16 0C18.7363 0 21.3122 0.686896 23.5646 1.89766ZM2.57403 8.24913C2.33502 8.11083 2.02841 8.19212 1.89766 8.43535C0.686896 10.6878 0 13.2637 0 16C0 18.7363 0.686896 21.3122 1.89766 23.5646C2.02841 23.8079 2.33502 23.8892 2.57403 23.7509L3.43959 23.2501C3.67861 23.1118 3.75943 22.8063 3.62977 22.5625C2.58977 20.6068 2 18.3749 2 16C2 13.6251 2.58977 11.3932 3.62977 9.43749C3.75942 9.19367 3.67861 8.88823 3.43959 8.74993L2.57403 8.24913ZM8.43535 30.1023C8.19212 29.9716 8.11083 29.665 8.24913 29.426L8.74993 28.5604C8.88823 28.3214 9.19367 28.2406 9.43749 28.3702C11.3932 29.4102 13.6251 30 16 30C18.3749 30 20.6068 29.4102 22.5625 28.3702C22.8063 28.2406 23.1118 28.3214 23.2501 28.5604L23.7509 29.426C23.8892 29.665 23.8079 29.9716 23.5646 30.1023C21.3122 31.3131 18.7363 32 16 32C13.2637 32 10.6878 31.3131 8.43535 30.1023Z" fill="white"/>
</svg>
