<svg width="32" height="32" viewBox="0 0 32 32" fill="none" xmlns="http://www.w3.org/2000/svg">
<path d="M0 0H1V32H0V0Z" fill="white"/>
<path d="M7.49787 4.48367C6.51995 8.30229 6 12.3043 6 16.4278C6 20.5513 6.51995 24.5534 7.49787 28.372C7.56638 28.6395 7.84071 28.7979 8.10749 28.7265L9.07357 28.4683C9.34034 28.397 9.49853 28.123 9.43015 27.8555C8.49674 24.2037 8 20.3752 8 16.4278C8 12.4805 8.49674 8.65196 9.43015 5.00017C9.49853 4.73263 9.34034 4.45867 9.07357 4.38736L8.10749 4.12912C7.84071 4.05781 7.56638 4.21616 7.49787 4.48367Z" fill="white"/>
<path d="M14.5 17.5C13.6716 17.5 13 16.8284 13 16C13 15.1716 13.6716 14.5 14.5 14.5H19C19.2761 14.5 19.5 14.2761 19.5 14V9.5C19.5 8.67157 20.1716 8 21 8C21.8284 8 22.5 8.67157 22.5 9.5V14C22.5 14.2761 22.7239 14.5 23 14.5H27.5C28.3284 14.5 29 15.1716 29 16C29 16.8284 28.3284 17.5 27.5 17.5H23C22.7239 17.5 22.5 17.7239 22.5 18V22.5C22.5 23.3284 21.8284 24 21 24C20.1716 24 19.5 23.3284 19.5 22.5V18C19.5 17.7239 19.2761 17.5 19 17.5H14.5Z" fill="white"/>
</svg>
