<svg width="22" height="32" viewBox="0 0 22 32" fill="none" xmlns="http://www.w3.org/2000/svg">
<path d="M9.74362 0.833142L7.38023 8.88952L6.96848 10.0064C6.73298 10.6453 6.43868 11.2608 6.08936 11.8452L0.283294 21.5588C0.0978992 21.869 0 22.2236 0 22.585V25.7494C0 25.9272 0.214624 26.0166 0.340849 25.8914L4.58606 22.5L5 25.1803L2.27709 28.6472C2.10082 28.8716 2.02884 29.1607 2.07925 29.4415L2.53846 32L7.05971 29.6527C7.40008 29.4838 7.61538 29.1367 7.61538 28.7568V26.1803C7.61538 25.1803 7.61538 25.1803 8.08606 25.1803H8.91105C8.96177 25.1803 9.00445 25.2183 9.01036 25.2687L9.20405 26.9198C9.26315 27.4235 9.69003 27.8033 10.1972 27.8033H11.8028C12.31 27.8033 12.7369 27.4235 12.7959 26.9198L12.9896 25.2687C12.9955 25.2183 13.0382 25.1803 13.089 25.1803H13.9139C14.3846 25.1803 14.3846 25.1803 14.3846 26.1803V28.7568C14.3846 29.1367 14.5999 29.4838 14.9403 29.6527L19.4615 32L19.9207 29.4415C19.9712 29.1607 19.8992 28.8716 19.7229 28.6472L17 25.1803L17.4139 22.5L21.6592 25.8914C21.7854 26.0166 22 25.9272 22 25.7494V22.585C22 22.2236 21.9021 21.869 21.7167 21.5588L15.9106 11.8452C15.5613 11.2608 15.267 10.6453 15.0315 10.0064L14.6198 8.88952L12.2564 0.833142C12.1198 0.389215 12.056 0.181827 11.9158 0.0849434C11.7929 0 11.6112 0 11.2704 0H10.7296C10.3888 0 10.2071 0 10.0842 0.0849434C9.94405 0.181827 9.88023 0.389215 9.74362 0.833142Z" fill="white"/>
</svg>
