<svg width="32" height="32" viewBox="0 0 32 32" fill="none" xmlns="http://www.w3.org/2000/svg">
<path d="M15.2005 6.52071L13.6965 11.556L13.4345 12.254C13.2846 12.6533 13.0973 13.038 12.875 13.4033L9.18028 19.4743C9.0623 19.6681 9 19.8898 9 20.1156V22.0934C9 22.2045 9.13658 22.2604 9.2169 22.1821L11.9184 20.0625L12.1818 21.7377L10.4491 23.9045C10.3369 24.0448 10.2911 24.2254 10.3232 24.401L10.6154 26L13.4925 24.5329C13.7091 24.4274 13.8462 24.2105 13.8462 23.973V22.3627C13.8462 21.7377 13.8462 21.7377 14.1457 21.7377H14.6707C14.7029 21.7377 14.7301 21.7614 14.7339 21.7929L14.8571 22.8249C14.8947 23.1397 15.1664 23.3771 15.4892 23.3771H16.5108C16.8336 23.3771 17.1053 23.1397 17.1429 22.8249L17.2661 21.7929C17.2699 21.7614 17.2971 21.7377 17.3293 21.7377H17.8543C18.1538 21.7377 18.1538 21.7377 18.1538 22.3627V23.973C18.1538 24.2105 18.2909 24.4274 18.5075 24.5329L21.3846 26L21.6768 24.401C21.7089 24.2254 21.6631 24.0448 21.5509 23.9045L19.8182 21.7377L20.0816 20.0625L22.7831 22.1821C22.8634 22.2604 23 22.2045 23 22.0934V20.1156C23 19.8898 22.9377 19.6681 22.8197 19.4743L19.125 13.4033C18.9027 13.038 18.7154 12.6533 18.5655 12.254L18.3035 11.556L16.7995 6.52071C16.7126 6.24326 16.672 6.11364 16.5828 6.05309C16.5045 6 16.389 6 16.1721 6H15.8279C15.611 6 15.4955 6 15.4172 6.05309C15.328 6.11364 15.2874 6.24326 15.2005 6.52071Z" fill="white"/>
<path fill-rule="evenodd" clip-rule="evenodd" d="M9.23595 1.49613C11.2917 0.53586 13.5847 0 16 0C18.4153 0 20.7083 0.53586 22.764 1.49613C23.2644 1.72987 23.4806 2.32499 23.2469 2.82538C23.0131 3.32576 22.418 3.54193 21.9176 3.30819C20.1214 2.46915 18.1169 2 16 2C13.8831 2 11.8786 2.46915 10.0824 3.30819C9.582 3.54193 8.98688 3.32576 8.75314 2.82538C8.5194 2.32499 8.73557 1.72987 9.23595 1.49613ZM29.1746 8.75314C29.675 8.5194 30.2701 8.73557 30.5039 9.23595C31.4641 11.2917 32 13.5847 32 16C32 18.4153 31.4641 20.7083 30.5039 22.764C30.2701 23.2644 29.675 23.4806 29.1746 23.2469C28.6742 23.0131 28.4581 22.418 28.6918 21.9176C29.5309 20.1214 30 18.1169 30 16C30 13.8831 29.5309 11.8786 28.6918 10.0824C28.4581 9.582 28.6742 8.98688 29.1746 8.75314ZM2.82538 8.75314C3.32576 8.98688 3.54193 9.582 3.30819 10.0824C2.46915 11.8786 2 13.8831 2 16C2 18.1169 2.46915 20.1214 3.30819 21.9176C3.54193 22.418 3.32576 23.0131 2.82538 23.2469C2.32499 23.4806 1.72987 23.2644 1.49613 22.764C0.53586 20.7083 0 18.4153 0 16C0 13.5847 0.53586 11.2917 1.49613 9.23595C1.72987 8.73557 2.32499 8.5194 2.82538 8.75314ZM8.75314 29.1746C8.98688 28.6742 9.582 28.4581 10.0824 28.6918C11.8786 29.5309 13.8831 30 16 30C18.1169 30 20.1214 29.5309 21.9176 28.6918C22.418 28.4581 23.0131 28.6742 23.2469 29.1746C23.4806 29.675 23.2644 30.2701 22.764 30.5039C20.7083 31.4641 18.4153 32 16 32C13.5847 32 11.2917 31.4641 9.23595 30.5039C8.73557 30.2701 8.5194 29.675 8.75314 29.1746Z" fill="white"/>
</svg>
