<svg width="32" height="32" viewBox="0 0 32 32" fill="none" xmlns="http://www.w3.org/2000/svg">
<path fill-rule="evenodd" clip-rule="evenodd" d="M10.4558 10.6392C10.1836 10.7229 10 10.9581 10 11.2229V14.125C10 17.4168 11.7824 20.4909 14.7499 22.3168L15.7431 22.928C15.8991 23.024 16.1009 23.024 16.2569 22.928L17.2501 22.3168C20.2176 20.4909 22 17.4168 22 14.125V11.2229C22 10.9581 21.8164 10.7229 21.5442 10.6392C19.8401 10.2763 18.1741 9.76833 16.5665 9.12144L16.4216 9.06315C16.1479 8.97895 15.8521 8.97895 15.5784 9.06315L15.4335 9.12144C13.8259 9.76833 12.1599 10.2763 10.4558 10.6392ZM20.8826 11.0918C19.363 10.7729 17.8811 10.3098 16.4593 9.70952L16.3122 9.64741C16.159 9.59899 16 9.70512 16 9.85584V22.0555C16 22.2321 16.212 22.3367 16.3689 22.2376L16.6934 22.0325C19.5973 20.1971 21.3333 17.1577 21.3333 13.9092V11.674C21.3333 11.4109 21.1522 11.177 20.8826 11.0918Z" fill="white"/>
<path d="M25.7704 4.35613C26.0544 4.01767 26.0113 3.51128 25.6591 3.24454C22.9153 1.16669 19.5676 0.0245186 16.1117 0.000390264C12.6558 -0.0237381 9.29248 1.07158 6.51992 3.11092C6.16401 3.37271 6.11391 3.87845 6.39316 4.22084C6.67241 4.56323 7.17515 4.61241 7.53251 4.3526C10.0154 2.54751 13.017 1.57882 16.1005 1.60035C19.1841 1.62188 22.1719 2.63239 24.6293 4.47196C24.983 4.73674 25.4864 4.69459 25.7704 4.35613Z" fill="white"/>
<path d="M27.6439 25.7704C27.9823 26.0544 28.4887 26.0113 28.7555 25.6591C30.8333 22.9153 31.9755 19.5676 31.9996 16.1117C32.0237 12.6558 30.9284 9.29248 28.8891 6.51992C28.6273 6.16401 28.1216 6.11391 27.7792 6.39316C27.4368 6.6724 27.3876 7.17515 27.6474 7.53252C29.4525 10.0154 30.4212 13.017 30.3997 16.1005C30.3781 19.1841 29.3676 22.1719 27.528 24.6293C27.2633 24.983 27.3054 25.4864 27.6439 25.7704Z" fill="white"/>
<path d="M6.22962 27.6439C5.94562 27.9823 5.98865 28.4887 6.34088 28.7555C9.08469 30.8333 12.4324 31.9755 15.8883 31.9996C19.3442 32.0237 22.7075 30.9284 25.4801 28.8891C25.836 28.6273 25.8861 28.1215 25.6068 27.7792C25.3276 27.4368 24.8249 27.3876 24.4675 27.6474C21.9846 29.4525 18.983 30.4212 15.8995 30.3996C12.8159 30.3781 9.82812 29.3676 7.37071 27.528C7.01701 27.2633 6.51362 27.3054 6.22962 27.6439Z" fill="white"/>
<path d="M4.35613 6.22962C4.01767 5.94562 3.51128 5.98865 3.24454 6.34088C1.16669 9.08469 0.0245191 12.4324 0.00039028 15.8883C-0.0237385 19.3442 1.07158 22.7075 3.11092 25.4801C3.37271 25.836 3.87845 25.8861 4.22084 25.6068C4.56323 25.3276 4.61241 24.8248 4.35259 24.4675C2.54751 21.9846 1.57882 18.983 1.60035 15.8995C1.62188 12.8159 2.63239 9.82812 4.47196 7.37071C4.73674 7.017 4.69459 6.51362 4.35613 6.22962Z" fill="white"/>
</svg>
