<svg width="26" height="32" viewBox="0 0 26 32" fill="none" xmlns="http://www.w3.org/2000/svg">
<path fill-rule="evenodd" clip-rule="evenodd" d="M0.98767 3.7467C0.397843 3.93814 0 4.47561 0 5.08099V11.7144C0 19.2385 3.8619 26.2648 10.2914 30.4385L12.4434 31.8354C12.7814 32.0549 13.2186 32.0549 13.5566 31.8354L15.7086 30.4385C22.1381 26.2648 26 19.2385 26 11.7144V5.081C26 4.47561 25.6022 3.93814 25.0123 3.7467C21.3203 2.91726 17.7106 1.75617 14.2274 0.277579L13.9135 0.144351C13.3206 -0.0481167 12.6794 -0.0481174 12.0865 0.144351L11.7726 0.277579C8.28935 1.75617 4.67973 2.91726 0.98767 3.7467ZM23.579 4.78126C20.2865 4.05227 17.0757 2.99378 13.9951 1.62177L13.6763 1.47979C13.3444 1.36912 13 1.6117 13 1.9562V29.8411C13 30.2447 13.4594 30.484 13.7993 30.2574L14.5024 29.7886C20.7941 25.5934 24.5556 18.6462 24.5556 11.2211V6.1119C24.5556 5.51072 24.1632 4.976 23.579 4.78126Z" fill="white"/>
</svg>
