<svg width="32" height="24" viewBox="0 0 32 24" fill="none" xmlns="http://www.w3.org/2000/svg">
<path fill-rule="evenodd" clip-rule="evenodd" d="M3.72825 5.65445C7.54188 4.57648 11.5649 4 15.7209 4C19.8769 4 23.8999 4.57648 27.7136 5.65445C28.245 5.80468 28.5541 6.35729 28.4039 6.88875C28.2537 7.42021 27.701 7.72927 27.1696 7.57904C23.5312 6.55062 19.6912 6 15.7209 6C11.7506 6 7.91062 6.55062 4.27226 7.57904C3.7408 7.72927 3.18818 7.42021 3.03796 6.88875C2.88774 6.35729 3.19679 5.80468 3.72825 5.65445Z" fill="white"/>
<path d="M10.8459 19.125C10.2246 19.125 9.72092 18.6213 9.72092 18C9.72092 17.3787 10.2246 16.875 10.8459 16.875H14.2209C14.428 16.875 14.5959 16.7071 14.5959 16.5V13.125C14.5959 12.5037 15.0996 12 15.7209 12C16.3422 12 16.8459 12.5037 16.8459 13.125V16.5C16.8459 16.7071 17.0138 16.875 17.2209 16.875H20.5959C21.2172 16.875 21.7209 17.3787 21.7209 18C21.7209 18.6213 21.2172 19.125 20.5959 19.125H17.2209C17.0138 19.125 16.8459 19.2929 16.8459 19.5V22.875C16.8459 23.4963 16.3422 24 15.7209 24C15.0996 24 14.5959 23.4963 14.5959 22.875V19.5C14.5959 19.2929 14.428 19.125 14.2209 19.125H10.8459Z" fill="white"/>
<rect width="32" height="1" fill="white"/>
</svg>
