<svg width="32" height="32" viewBox="0 0 32 32" fill="none" xmlns="http://www.w3.org/2000/svg">
<path fill-rule="evenodd" clip-rule="evenodd" d="M1.3913 1.3913C1.3913 0.622908 2.01421 0 2.78261 0C18.9189 0 32 13.0811 32 29.2174C32 29.9858 31.3771 30.6087 30.6087 30.6087C29.8403 30.6087 29.2174 29.9858 29.2174 29.2174C29.2174 14.6179 17.3821 2.78261 2.78261 2.78261C2.01421 2.78261 1.3913 2.1597 1.3913 1.3913ZM1.3913 8.34783C1.3913 7.57943 2.01421 6.95652 2.78261 6.95652C15.0769 6.95652 25.0435 16.9231 25.0435 29.2174C25.0435 29.9858 24.4206 30.6087 23.6522 30.6087C22.8838 30.6087 22.2609 29.9858 22.2609 29.2174C22.2609 18.4598 13.5402 9.73913 2.78261 9.73913C2.01421 9.73913 1.3913 9.11622 1.3913 8.34783ZM1.3913 15.3043C1.3913 14.536 2.01421 13.913 2.78261 13.913C11.235 13.913 18.087 20.765 18.087 29.2174C18.087 29.9858 17.464 30.6087 16.6957 30.6087C15.9273 30.6087 15.3043 29.9858 15.3043 29.2174C15.3043 22.3018 9.69818 16.6957 2.78261 16.6957C2.01421 16.6957 1.3913 16.0727 1.3913 15.3043Z" fill="white"/>
<path d="M8.34783 27.8261C8.34783 30.1313 6.4791 32 4.17391 32C1.86872 32 0 30.1313 0 27.8261C0 25.5209 1.86872 23.6522 4.17391 23.6522C6.4791 23.6522 8.34783 25.5209 8.34783 27.8261Z" fill="white"/>
</svg>
