<svg width="30" height="32" viewBox="0 0 30 32" fill="none" xmlns="http://www.w3.org/2000/svg">
<path fill-rule="evenodd" clip-rule="evenodd" d="M14.7631 2.01457C14.3308 2.06784 13.8402 2.27606 13.2963 2.73262C13.2412 2.77889 13.1871 2.82405 13.1339 2.86839C12.0911 3.7388 11.4235 4.29605 10.6737 6.86255C10.6472 6.95326 10.5808 7.02779 10.4946 7.06072L8.84746 7.6901C8.62281 7.77594 8.40051 7.56143 8.47406 7.32651C9.33677 4.57096 10.5913 2.42318 12.07 1.18207C12.8344 0.540474 13.6601 0.136199 14.5325 0.0286857C15.4108 -0.0795519 16.2585 0.122815 17.0422 0.563023C18.5321 1.39988 19.8636 3.13085 20.8701 5.52535C22.8391 5.29111 24.5775 5.43635 25.9406 5.95747C27.67 6.61868 28.7155 7.8544 28.9494 9.50523C29.1715 11.0721 28.4407 12.7306 27.2232 14.6787C27.1208 14.8425 26.8958 14.8615 26.7676 14.7182L25.8321 13.6726C25.7414 13.5712 25.7299 13.4188 25.8028 13.3031C26.8998 11.5628 27.1615 10.7337 27.0284 9.79416C26.9124 8.9757 26.4356 8.28006 25.2651 7.83255C24.3562 7.48506 23.1044 7.33222 21.5679 7.46345C22.3496 10.0167 22.7674 12.983 22.7654 16.0211C22.7635 19.0451 22.3458 21.9956 21.5679 24.5365C23.7153 24.7204 25.2096 24.3439 26.0539 23.7613C26.4601 23.481 26.7266 23.1482 26.8821 22.7641C27.0395 22.3751 27.1079 21.8717 27.0198 21.2173C26.8378 19.8659 26.0004 18.0865 24.3637 16.1463C24.2859 16.0541 24.2685 15.9226 24.3211 15.8131L25.0005 14.3992C25.0921 14.2084 25.3418 14.174 25.4755 14.3363C27.2157 16.4492 28.6969 19.1161 28.9428 20.9426C29.0687 21.8774 28.9902 22.7527 28.6739 23.5339C28.3557 24.32 27.8216 24.9487 27.1344 25.4229C25.6985 26.4138 23.5279 26.7832 20.9179 26.4803L20.8701 26.4747C19.859 28.8803 18.52 30.6156 17.0224 31.4481C16.2382 31.884 15.3901 32.0817 14.5121 31.9688C13.6402 31.8566 12.815 31.4481 12.051 30.802C10.5766 29.555 9.32659 27.4059 8.46755 24.6527C8.39336 24.4149 8.62151 24.1999 8.84684 24.292L10.4994 24.9677C10.5828 25.0018 10.6467 25.0753 10.6724 25.164C11.404 27.6843 12.0503 28.2247 13.0574 29.0669C13.1306 29.1281 13.2057 29.1908 13.2829 29.2561C13.828 29.7171 14.3198 29.9284 14.7527 29.9841C15.1795 30.039 15.6242 29.9527 16.1006 29.6879C17.0033 29.1861 18.0196 28.0342 18.892 26.1282C16.8414 25.6601 14.6723 24.8426 12.5515 23.7305C9.71635 22.2438 7.1054 20.3029 5.07458 18.1724C4.89062 17.9795 4.71224 17.7858 4.53955 17.5916C3.66099 18.8968 3.16355 20.0901 3.00122 21.0747C2.79216 22.3428 3.13857 23.1159 3.76861 23.6287C4.49172 24.2171 5.46834 24.6062 7.48965 24.5126C7.62424 24.5064 7.7471 24.5938 7.78626 24.7266L8.19598 26.1164C8.25069 26.302 8.1224 26.4916 7.93429 26.499C5.67183 26.5879 3.77207 26.1802 2.56519 25.1981C1.29441 24.164 0.778321 22.6134 1.08721 20.7398C1.33065 19.2632 2.07777 17.6396 3.2592 16C2.23033 14.5721 1.5271 13.1512 1.20315 11.8252C0.713711 9.82196 1.11451 8.13637 2.34361 6.99458C3.51292 5.90834 5.58003 5.42052 7.93138 5.48511C8.12044 5.4903 8.25062 5.68014 8.19616 5.86672L7.78515 7.27489C7.74659 7.40702 7.62523 7.49466 7.49138 7.48991C5.3936 7.41556 4.31282 7.85836 3.64374 8.47991C3.06592 9.01668 2.72962 9.87901 3.08585 11.337C3.30855 12.2486 3.78967 13.2941 4.5396 14.4084C6.29493 12.4345 8.57468 10.5838 11.117 9.07168C13.6593 7.55954 16.355 6.45097 18.892 5.87183C18.0243 3.97609 17.0135 2.82487 16.1129 2.31902C15.6349 2.05056 15.1896 1.96201 14.7631 2.01457ZM5.76055 16C5.98042 16.2554 6.21346 16.5127 6.45978 16.7711C8.3299 18.733 10.7659 20.5499 13.4322 21.9481C15.5417 23.0542 17.668 23.8316 19.6194 24.243C20.3901 21.8611 20.8221 18.9993 20.824 16.0198C20.8259 13.0271 20.3938 10.1503 19.6194 7.75702C17.2157 8.26375 14.5875 9.31688 12.0877 10.8038C9.58777 12.2907 7.38839 14.1088 5.76055 16Z" fill="white"/>
<path d="M18 16C18 17.6569 16.6569 19 15 19C13.3431 19 12 17.6569 12 16C12 14.3431 13.3431 13 15 13C16.6569 13 18 14.3431 18 16Z" fill="white"/>
</svg>
