<svg width="32" height="32" viewBox="0 0 32 32" fill="none" xmlns="http://www.w3.org/2000/svg">
<path fill-rule="evenodd" clip-rule="evenodd" d="M4 32C1.79086 32 0 30.2091 0 28V20C0 19.4477 0.447715 19 1 19H2C2.55228 19 3 19.4477 3 20V28C3 28.5523 3.44772 29 4 29H12C12.5523 29 13 29.4477 13 30V31C13 31.5523 12.5523 32 12 32H4ZM32 20C32 19.4477 31.5523 19 31 19H30C29.4477 19 29 19.4477 29 20V28C29 28.5523 28.5523 29 28 29H20C19.4477 29 19 29.4477 19 30V31C19 31.5523 19.4477 32 20 32H28C30.2091 32 32 30.2091 32 28V20ZM20 0C19.4477 0 19 0.447715 19 1V2C19 2.55228 19.4477 3 20 3H28C28.5523 3 29 3.44772 29 4V12C29 12.5523 29.4477 13 30 13H31C31.5523 13 32 12.5523 32 12V4C32 1.79086 30.2091 0 28 0H20ZM0 12C0 12.5523 0.447715 13 1 13H2C2.55228 13 3 12.5523 3 12V4C3 3.44772 3.44772 3 4 3H12C12.5523 3 13 2.55228 13 2V1C13 0.447715 12.5523 0 12 0H4C1.79086 0 0 1.79086 0 4V12Z" fill="white"/>
</svg>
