<svg width="32" height="32" viewBox="0 0 32 32" fill="none" xmlns="http://www.w3.org/2000/svg">
<path fill-rule="evenodd" clip-rule="evenodd" d="M17 20.9C18.9591 20.5023 20.5023 18.9591 20.9 17H24.5C24.7761 17 25 16.7761 25 16.5V15.5C25 15.2239 24.7761 15 24.5 15H20.9C20.5023 13.0409 18.9591 11.4977 17 11.1V7.5C17 7.22386 16.7761 7 16.5 7H15.5C15.2239 7 15 7.22386 15 7.5V11.1C13.0409 11.4977 11.4977 13.0409 11.1 15H7.5C7.22386 15 7 15.2239 7 15.5V16.5C7 16.7761 7.22386 17 7.5 17H11.1C11.4977 18.9591 13.0409 20.5023 15 20.9V24.5C15 24.7761 15.2239 25 15.5 25H16.5C16.7761 25 17 24.7761 17 24.5V20.9ZM19 16C19 17.6569 17.6569 19 16 19C14.3431 19 13 17.6569 13 16C13 14.3431 14.3431 13 16 13C17.6569 13 19 14.3431 19 16Z" fill="white"/>
<path fill-rule="evenodd" clip-rule="evenodd" d="M4 32C1.79086 32 0 30.2091 0 28V20C0 19.4477 0.447715 19 1 19H2C2.55228 19 3 19.4477 3 20V28C3 28.5523 3.44772 29 4 29H12C12.5523 29 13 29.4477 13 30V31C13 31.5523 12.5523 32 12 32H4ZM32 20C32 19.4477 31.5523 19 31 19H30C29.4477 19 29 19.4477 29 20V28C29 28.5523 28.5523 29 28 29H20C19.4477 29 19 29.4477 19 30V31C19 31.5523 19.4477 32 20 32H28C30.2091 32 32 30.2091 32 28V20ZM20 0C19.4477 0 19 0.447715 19 1V2C19 2.55228 19.4477 3 20 3H28C28.5523 3 29 3.44772 29 4V12C29 12.5523 29.4477 13 30 13H31C31.5523 13 32 12.5523 32 12V4C32 1.79086 30.2091 0 28 0H20ZM0 12C0 12.5523 0.447715 13 1 13H2C2.55228 13 3 12.5523 3 12V4C3 3.44772 3.44772 3 4 3H12C12.5523 3 13 2.55228 13 2V1C13 0.447715 12.5523 0 12 0H4C1.79086 0 0 1.79086 0 4V12Z" fill="white"/>
</svg>
