<svg width="32" height="30" viewBox="0 0 32 30" fill="none" xmlns="http://www.w3.org/2000/svg">
<path d="M13.9733 15.6255C14.0406 15.417 14.0419 15.193 13.977 14.9838L9.75786 1.39175C9.39895 0.235528 10.9461 -0.531045 11.6621 0.448197L22.0576 14.664C22.3362 15.045 22.3312 15.5618 22.0453 15.9375L11.6709 29.5681C10.939 30.5298 9.41187 29.744 9.78263 28.5964L13.9733 15.6255Z" fill="white"/>
<path d="M23.8182 15.7234C23.9325 15.4562 23.9325 15.1543 23.8182 14.887L19.9335 5.80769C19.4701 4.7248 20.8509 3.80079 21.6894 4.63264L31.684 14.5484C32.1053 14.9664 32.1053 15.6441 31.684 16.0621L21.6894 25.9778C20.8509 26.8097 19.4701 25.8856 19.9335 24.8028L23.8182 15.7234Z" fill="white"/>
<path d="M3.97745 15.7234C4.09181 15.4562 4.09181 15.1543 3.97745 14.887L0.092733 5.80769C-0.3706 4.7248 1.01019 3.80079 1.84866 4.63264L11.8433 14.5484C12.2646 14.9664 12.2646 15.6441 11.8433 16.0621L1.84866 25.9778C1.01019 26.8097 -0.370596 25.8857 0.0927363 24.8028L3.97745 15.7234Z" fill="white"/>
</svg>
