<svg width="32" height="16" viewBox="0 0 32 16" fill="none" xmlns="http://www.w3.org/2000/svg">
<path d="M7.54276 0.0866994C7.8523 -0.044702 8.20814 -0.0258911 8.50097 0.137353L12.527 2.38176C12.8198 2.545 13.0146 2.83316 13.0515 3.15769L13.5703 7.71863C13.6059 8.03159 13.4906 8.343 13.2575 8.56323L12.6943 9.09547C12.4188 9.35583 11.9569 9.25479 11.8244 8.90522L10.8292 6.27816C10.7437 6.05233 10.5786 5.86272 10.3629 5.74249L6.56874 3.62732C6.35307 3.50708 6.10049 3.46388 5.85517 3.50525L3.00135 3.98657C2.6216 4.05062 2.3 3.71483 2.39577 3.35427L2.59154 2.6172C2.67254 2.31222 2.89418 2.06009 3.19268 1.93337L7.54276 0.0866994Z" fill="white"/>
<path d="M7.50124 5.12583C7.20842 4.96259 6.85257 4.94378 6.54304 5.07518L6.2742 5.18931C5.92351 5.33818 5.68307 5.65792 5.64502 6.02598L5.32049 9.16506C5.30318 9.33247 5.38905 9.49414 5.53994 9.57826C5.69083 9.66238 5.87877 9.65334 6.02026 9.55517L8.67344 7.71426C8.98453 7.4984 9.15108 7.13748 9.10926 6.76979L9.0772 6.48791C9.04029 6.16338 8.8455 5.87522 8.55267 5.71198L7.50124 5.12583Z" fill="white"/>
<path d="M4.48583 5.90393C4.52491 5.53566 4.15919 5.25005 3.79439 5.36394L0.147058 6.50264C-0.0280317 6.55731 -0.0531498 6.78647 0.106211 6.87531L1.35941 7.57394C1.7054 7.76682 1.90997 8.1309 1.88879 8.51612L1.50356 15.5254C1.49425 15.6948 1.58418 15.8548 1.73627 15.9396C1.88836 16.0244 2.07688 16.0196 2.2241 15.9271L8.31815 12.1003C8.65306 11.89 9.0819 11.879 9.42788 12.0719L10.6811 12.7705C10.8404 12.8594 11.0334 12.7238 10.9949 12.5501L10.1925 8.93075C10.1123 8.56876 9.67327 8.40575 9.3625 8.62256L4.74411 11.8447C4.37259 12.1039 3.85836 11.8172 3.90508 11.377L4.48583 5.90393Z" fill="white"/>
<path d="M24.4572 0.0866994C24.1477 -0.044702 23.7919 -0.0258911 23.499 0.137353L19.473 2.38176C19.1802 2.545 18.9854 2.83316 18.9485 3.15769L18.4297 7.71863C18.3941 8.03159 18.5094 8.343 18.7425 8.56323L19.3057 9.09547C19.5812 9.35583 20.0431 9.25479 20.1756 8.90522L21.1708 6.27816C21.2563 6.05233 21.4214 5.86272 21.6371 5.74249L25.4313 3.62732C25.6469 3.50708 25.8995 3.46388 26.1448 3.50525L28.9987 3.98657C29.3784 4.05062 29.7 3.71483 29.6042 3.35427L29.4085 2.6172C29.3275 2.31222 29.1058 2.06009 28.8073 1.93337L24.4572 0.0866994Z" fill="white"/>
<path d="M24.4988 5.12583C24.7916 4.96259 25.1474 4.94378 25.457 5.07518L25.7258 5.18931C26.0765 5.33818 26.3169 5.65792 26.355 6.02598L26.6795 9.16506C26.6968 9.33247 26.6109 9.49414 26.4601 9.57826C26.3092 9.66238 26.1212 9.65334 25.9797 9.55517L23.3266 7.71426C23.0155 7.4984 22.8489 7.13748 22.8907 6.76979L22.9228 6.48791C22.9597 6.16338 23.1545 5.87522 23.4473 5.71198L24.4988 5.12583Z" fill="white"/>
<path d="M27.5142 5.90393C27.4751 5.53566 27.8408 5.25005 28.2056 5.36394L31.8529 6.50264C32.028 6.55731 32.0531 6.78647 31.8938 6.87531L30.6406 7.57394C30.2946 7.76682 30.09 8.1309 30.1112 8.51612L30.4964 15.5254C30.5057 15.6948 30.4158 15.8548 30.2637 15.9396C30.1116 16.0244 29.9231 16.0196 29.7759 15.9271L23.6819 12.1003C23.3469 11.89 22.9181 11.879 22.5721 12.0719L21.3189 12.7705C21.1596 12.8594 20.9666 12.7238 21.0051 12.5501L21.8075 8.93075C21.8877 8.56876 22.3267 8.40575 22.6375 8.62256L27.2559 11.8447C27.6274 12.1039 28.1416 11.8172 28.0949 11.377L27.5142 5.90393Z" fill="white"/>
</svg>
