<svg width="24" height="32" viewBox="0 0 24 32" fill="none" xmlns="http://www.w3.org/2000/svg">
<path d="M6.48293 0.408447C6.67132 0.151683 6.97074 0 7.2892 0H16.7108C17.0293 0 17.3287 0.151683 17.5171 0.408446L23.1905 8.14111C23.3722 8.38872 23.43 8.70608 23.3473 9.00185L22.6432 11.521C22.5455 11.8707 22.1194 12.0029 21.8409 11.7699L16.9741 7.69959C16.7942 7.54911 16.5671 7.46667 16.3326 7.46667H7.66741C7.43286 7.46667 7.20577 7.54911 7.02585 7.69959L2.15912 11.7699C1.88062 12.0029 1.45454 11.8707 1.3568 11.521L0.65269 9.00185C0.570021 8.70608 0.627842 8.38872 0.809513 8.14111L6.48293 0.408447Z" fill="white"/>
<path d="M12 9.06667H10.4196C10.1012 9.06667 9.80175 9.21835 9.61337 9.47511L8.69327 10.7292C8.47984 11.0201 8.43966 11.4034 8.58813 11.7322L11.2636 17.6578C11.3943 17.9473 11.6824 18.1333 12 18.1333C12.3176 18.1333 12.6057 17.9473 12.7364 17.6578L15.4119 11.7322C15.5603 11.4034 15.5202 11.0201 15.3067 10.7292L14.3866 9.47511C14.1982 9.21835 13.8988 9.06667 13.5804 9.06667H12Z" fill="white"/>
<path d="M6.57448 12.4328C6.42674 12.1033 5.98915 12.0342 5.74715 12.3022L0.301641 18.3326C0.185488 18.4613 0.276766 18.6667 0.450078 18.6667H4.0824C4.45867 18.6667 4.8031 18.8779 4.9737 19.2133L11.2417 31.535C11.3868 31.8203 11.6799 32 12 32C12.3201 32 12.6132 31.8203 12.7583 31.535L19.0263 19.2133C19.1969 18.8779 19.5413 18.6667 19.9176 18.6667H23.5499C23.7232 18.6667 23.8145 18.4613 23.6984 18.3326L18.2529 12.3022C18.0108 12.0342 17.5733 12.1033 17.4255 12.4328L12.4562 23.5158C12.2796 23.9097 11.7204 23.9097 11.5438 23.5158L6.57448 12.4328Z" fill="white"/>
</svg>
