<svg width="32" height="32" viewBox="0 0 32 32" fill="none" xmlns="http://www.w3.org/2000/svg">
<path d="M16 20C18.2091 20 20 18.2091 20 16C20 13.7909 18.2091 12 16 12C13.7909 12 12 13.7909 12 16C12 18.2091 13.7909 20 16 20Z" fill="white"/>
<path fill-rule="evenodd" clip-rule="evenodd" d="M28.5656 4.84848C28.6437 4.77038 28.7704 4.77038 28.8485 4.84848L31.6586 7.65858C31.7846 7.78457 32 7.69534 32 7.51716V0.2C32 0.0895431 31.9105 0 31.8 0H24.4828C24.3047 0 24.2154 0.215429 24.3414 0.341422L27.1514 3.15143C27.2295 3.22953 27.2295 3.35616 27.1514 3.43427L23.1682 7.41752C23.095 7.49067 22.9783 7.49581 22.8977 7.43089C21.0111 5.91028 18.6118 5 16 5C9.92487 5 5 9.92487 5 16C5 18.6118 5.91028 21.0111 7.43089 22.8977C7.49581 22.9783 7.49067 23.095 7.41752 23.1682L3.43427 27.1514C3.35616 27.2295 3.22953 27.2295 3.15143 27.1514L0.341422 24.3414C0.215429 24.2154 0 24.3047 0 24.4828V31.8C0 31.9105 0.0895431 32 0.2 32H7.51716C7.69534 32 7.78457 31.7846 7.65858 31.6586L4.84848 28.8485C4.77038 28.7704 4.77038 28.6437 4.84848 28.5656L8.83172 24.5824C8.90488 24.5092 9.02162 24.5041 9.10216 24.569C10.9889 26.0897 13.3881 27 16 27C22.0751 27 27 22.0751 27 16C27 13.3881 26.0897 10.9889 24.569 9.10216C24.5041 9.02162 24.5092 8.90488 24.5824 8.83172L28.5656 4.84848ZM16 24.3641C11.3806 24.3641 7.63588 20.6194 7.63588 16C7.63588 11.3806 11.3806 7.63588 16 7.63588C20.6194 7.63588 24.3641 11.3806 24.3641 16C24.3641 20.6194 20.6194 24.3641 16 24.3641Z" fill="white"/>
</svg>
