<svg width="32" height="32" viewBox="0 0 32 32" fill="none" xmlns="http://www.w3.org/2000/svg">
<path fill-rule="evenodd" clip-rule="evenodd" d="M0.148367 2.96746C-0.0494557 2.76964 -0.0494556 2.4489 0.148367 2.25108L2.25108 0.148367C2.4489 -0.0494559 2.76964 -0.0494555 2.96746 0.148367L5.90494 3.08585C6.08555 3.26645 6.37184 3.28363 6.57779 3.13257C9.2176 1.1963 12.4752 0.052794 15.9999 0.052794C19.5247 0.052794 22.7823 1.19632 25.4222 3.13261C25.6281 3.28368 25.9144 3.26651 26.095 3.0859L29.0325 0.148425C29.2303 -0.0493975 29.551 -0.0493975 29.7489 0.148425L31.8516 2.25114C32.0494 2.44896 32.0494 2.7697 31.8516 2.96752L28.9141 5.905C28.7335 6.08561 28.7163 6.3719 28.8674 6.57785C30.8036 9.21766 31.9471 12.4753 31.9471 16C31.9471 19.5247 30.8036 22.7823 28.8674 25.4221C28.7163 25.6281 28.7335 25.9144 28.9141 26.095L31.8516 29.0325C32.0494 29.2303 32.0494 29.551 31.8516 29.7489L29.7489 31.8516C29.551 32.0494 29.2303 32.0494 29.0325 31.8516L26.095 28.9141C25.9144 28.7335 25.6281 28.7163 25.4222 28.8674C22.7823 30.8037 19.5247 31.9472 15.9999 31.9472C12.4752 31.9472 9.2176 30.8037 6.57779 28.8674C6.37184 28.7164 6.08555 28.7335 5.90494 28.9142L2.96746 31.8516C2.76964 32.0495 2.44891 32.0495 2.25108 31.8516L0.148367 29.7489C-0.0494555 29.5511 -0.0494558 29.2304 0.148367 29.0325L3.08584 26.0951C3.26645 25.9145 3.28362 25.6282 3.13256 25.4222C1.19626 22.7824 0.0527357 19.5247 0.0527357 16C0.0527357 12.4753 1.19626 9.2176 3.13256 6.57779C3.28362 6.37183 3.26645 6.08554 3.08584 5.90493L0.148367 2.96746ZM16 28.1574C22.7143 28.1574 28.1574 22.7143 28.1574 16C28.1574 9.28567 22.7143 3.84263 16 3.84263C9.28567 3.84263 3.84263 9.28567 3.84263 16C3.84263 22.7143 9.28567 28.1574 16 28.1574Z" fill="white"/>
</svg>
