<svg width="32" height="32" viewBox="0 0 32 32" fill="none" xmlns="http://www.w3.org/2000/svg">
<path fill-rule="evenodd" clip-rule="evenodd" d="M27.3137 0.915078C28.3551 -0.12632 30.0436 -0.12632 31.085 0.915078C32.1264 1.95648 32.1264 3.64492 31.085 4.68632L29.042 6.72927C30.9046 9.34478 32 12.5445 32 16C32 19.4555 30.9046 22.6552 29.042 25.2708L31.085 27.3137C32.1264 28.3551 32.1264 30.0436 31.085 31.085C30.0436 32.1264 28.3551 32.1264 27.3137 31.085L25.2708 29.042C22.6552 30.9046 19.4555 32 16 32C12.5445 32 9.34478 30.9046 6.72927 29.042L4.68631 31.085C3.64492 32.1264 1.95648 32.1264 0.915078 31.085C-0.12632 30.0436 -0.12632 28.3551 0.915079 27.3137L2.95802 25.2708C1.09545 22.6553 0 19.4556 0 16C0 12.5445 1.09544 9.34476 2.95801 6.72924L0.915078 4.68631C-0.12632 3.64492 -0.126321 1.95648 0.915078 0.915078C1.95648 -0.12632 3.64492 -0.126321 4.68631 0.915077L6.72924 2.95801C9.34476 1.09544 12.5445 0 16 0C19.4556 0 22.6553 1.09545 25.2708 2.95802L27.3137 0.915078ZM22.3887 5.84015C20.5387 4.67443 18.3481 4 16 4C13.6519 4 11.4613 4.67442 9.61136 5.84013C8.0899 6.79886 6.79886 8.0899 5.84013 9.61137C4.67442 11.4613 4 13.6519 4 16C4 18.3481 4.67443 20.5387 5.84015 22.3887C6.79888 23.9101 8.08992 25.2012 9.61139 26.1599C11.4613 27.3256 13.6519 28 16 28C18.3481 28 20.5387 27.3256 22.3886 26.1599C23.9101 25.2011 25.2011 23.9101 26.1599 22.3886C27.3256 20.5387 28 18.3481 28 16C28 13.6519 27.3256 11.4613 26.1599 9.61139C25.2012 8.08992 23.9101 6.79888 22.3887 5.84015Z" fill="white"/>
</svg>
