<svg width="32" height="32" viewBox="0 0 32 32" fill="none" xmlns="http://www.w3.org/2000/svg">
<path d="M0 26.586C0 24.3304 1.26178 22.2523 3.29569 21.1582L8.3104 18.4606C9.41855 17.8645 10.6649 17.5517 11.9321 17.5517H20.0679C21.3351 17.5517 22.5814 17.8645 23.6896 18.4606L28.7043 21.1582C30.7382 22.2523 32 24.3304 32 26.586V30.9655C32 31.5368 31.5224 32 30.9333 32H1.06667C0.477564 32 0 31.5368 0 30.9655V26.586Z" fill="white"/>
<path d="M23.4667 7.24138C23.4667 11.2407 20.1237 14.4828 16 14.4828C11.8763 14.4828 8.53333 11.2407 8.53333 7.24138C8.53333 3.24208 11.8763 0 16 0C20.1237 0 23.4667 3.24208 23.4667 7.24138Z" fill="white"/>
</svg>
