<svg width="32" height="20" viewBox="0 0 32 20" fill="none" xmlns="http://www.w3.org/2000/svg">
<path fill-rule="evenodd" clip-rule="evenodd" d="M31.5 20C31.7761 20 32 19.7761 32 19.5V2C32 0.895431 31.1046 0 30 0H2C0.895431 0 0 0.895431 0 2V19.5C0 19.7761 0.223858 20 0.5 20H1.5C1.77614 20 2 19.7761 2 19.5V3.22222C2 2.66994 2.44772 2.22222 3 2.22222H29C29.5523 2.22222 30 2.66994 30 3.22222V19.5C30 19.7761 30.2239 20 30.5 20H31.5Z" fill="white"/>
<path d="M10.2899 6.81279C10.4516 6.4544 10.8083 6.224 11.2015 6.224H12.6245C12.6908 6.224 12.7565 6.2108 12.8177 6.18517L13.0743 6.07766C13.1967 6.0264 13.328 6 13.4607 6H14.7143C14.847 6 14.9783 6.0264 15.1007 6.07766L15.3573 6.18517C15.4185 6.2108 15.4842 6.224 15.5505 6.224H16.4483C16.5154 6.224 16.5818 6.21049 16.6436 6.18426L16.8905 6.07948C17.0141 6.02703 17.147 6 17.2812 6H18.5577C18.6919 6 18.8248 6.02703 18.9484 6.07948L19.1953 6.18426C19.257 6.21049 19.3235 6.224 19.3906 6.224H20.7985C21.1917 6.224 21.5484 6.4544 21.7101 6.81279L23.5122 10.8076C23.6738 11.166 24.0305 11.3964 24.4237 11.3964H25.8889C26.165 11.3964 26.3889 11.6202 26.3889 11.8964V12.5245C26.3889 12.6502 26.4363 12.7713 26.5215 12.8637L26.8673 13.2382C26.9526 13.3305 27 13.4516 27 13.5774V19C27 19.5523 26.5523 20 26 20H24.5491C24.1773 20 23.8363 19.7938 23.6635 19.4646L23.3209 18.8115C23.2773 18.7284 23.1912 18.6764 23.0974 18.6764C22.9828 18.6764 22.8825 18.599 22.8534 18.4881L22.6534 17.7259C22.5958 17.506 22.3971 17.3527 22.1698 17.3527H9.8302C9.60292 17.3527 9.40423 17.506 9.34656 17.7259L9.14662 18.4881C9.11751 18.599 9.01725 18.6764 8.90256 18.6764C8.80876 18.6764 8.7227 18.7284 8.67912 18.8115L8.33646 19.4646C8.16375 19.7938 7.82268 20 7.45093 20H6C5.44771 20 5 19.5523 5 19V13.5639C5 13.4463 5.04144 13.3324 5.11704 13.2424L5.44609 12.8504C5.51707 12.7658 5.55807 12.6602 5.5627 12.5499L5.59101 11.8754C5.60224 11.6076 5.82258 11.3964 6.09057 11.3964H7.57629C7.96947 11.3964 8.32616 11.166 8.48783 10.8076L10.2899 6.81279Z" fill="white"/>
</svg>
