<svg width="28" height="32" viewBox="0 0 28 32" fill="none" xmlns="http://www.w3.org/2000/svg">
<path fill-rule="evenodd" clip-rule="evenodd" d="M16.1999 20.0938C17.1135 19.172 17.3401 17.8194 16.8797 16.684L22.3105 10.4531C22.6858 10.0225 22.1168 9.41716 21.6708 9.77267L15.1619 14.9613C14.0402 14.5064 12.7089 14.7375 11.8001 15.6545C10.5851 16.8804 10.5851 18.8679 11.8001 20.0938C13.0151 21.3197 14.9849 21.3197 16.1999 20.0938Z" fill="white"/>
<path fill-rule="evenodd" clip-rule="evenodd" d="M23.8995 7.88564C29.3668 13.4021 29.3668 22.3461 23.8995 27.8626C18.4322 33.3791 9.56785 33.3791 4.10051 27.8626C-1.36683 22.3461 -1.36683 13.4021 4.10051 7.88564C5.483 6.49071 7.0827 5.44851 8.78976 4.75904V2C8.78976 0.89543 9.68519 0 10.7898 0H17.2103C18.3148 0 19.2103 0.895429 19.2103 2V4.75906C20.9173 5.44853 22.517 6.49072 23.8995 7.88564ZM22.9095 26.8638C17.9889 31.8286 10.0111 31.8286 5.09046 26.8638C0.169849 21.8989 0.169849 13.8493 5.09046 8.88449C10.0111 3.91964 17.9889 3.91965 22.9095 8.88449C27.8301 13.8493 27.8301 21.8989 22.9095 26.8638ZM17.4735 2.40189C17.4735 1.84961 17.0258 1.40189 16.4735 1.40189H11.5265C10.9742 1.40189 10.5265 1.84961 10.5265 2.40189V2.85521C10.5265 3.40749 10.9742 3.85521 11.5265 3.85521H16.4735C17.0258 3.85521 17.4735 3.40749 17.4735 2.85521V2.40189Z" fill="white"/>
</svg>
