<svg width="24" height="32" viewBox="0 0 24 32" fill="none" xmlns="http://www.w3.org/2000/svg">
<path d="M8.7619 28.2098C8.7619 27.7912 9.10302 27.4518 9.52381 27.4518H14.4762C14.897 27.4518 15.2381 27.7912 15.2381 28.2098V31.242C15.2381 31.6606 14.897 32 14.4762 32H9.52381C9.10302 32 8.7619 31.6606 8.7619 31.242V28.2098Z" fill="white"/>
<path d="M11.3149 0.426396C11.5929 -0.142133 12.4071 -0.142132 12.6851 0.426398L15.1613 5.49003C15.2118 5.59336 15.2381 5.70677 15.2381 5.82168V25.5567C15.2381 25.9753 14.897 26.3147 14.4762 26.3147H9.52381C9.10302 26.3147 8.7619 25.9753 8.7619 25.5567V5.82168C8.7619 5.70677 8.78816 5.59336 8.83869 5.49003L11.3149 0.426396Z" fill="white"/>
<path d="M17.5238 28.2098C17.5238 27.7912 17.8649 27.4518 18.2857 27.4518H23.2381C23.6589 27.4518 24 27.7912 24 28.2098V31.242C24 31.6606 23.6589 32 23.2381 32H18.2857C17.8649 32 17.5238 31.6606 17.5238 31.242V28.2098Z" fill="white"/>
<path d="M20.0768 0.426396C20.3548 -0.142133 21.169 -0.142132 21.447 0.426398L23.9232 5.49003C23.9737 5.59336 24 5.70677 24 5.82168V25.5567C24 25.9753 23.6589 26.3147 23.2381 26.3147H18.2857C17.8649 26.3147 17.5238 25.9753 17.5238 25.5567V5.82168C17.5238 5.70677 17.5501 5.59336 17.6006 5.49003L20.0768 0.426396Z" fill="white"/>
<path d="M0 28.2098C0 27.7912 0.341116 27.4518 0.761905 27.4518H5.71429C6.13507 27.4518 6.47619 27.7912 6.47619 28.2098V31.242C6.47619 31.6606 6.13507 32 5.71429 32H0.761905C0.341116 32 0 31.6606 0 31.242V28.2098Z" fill="white"/>
<path d="M2.55298 0.426396C2.831 -0.142133 3.6452 -0.142132 3.92321 0.426398L6.39941 5.49003C6.44993 5.59336 6.47619 5.70677 6.47619 5.82168V25.5567C6.47619 25.9753 6.13507 26.3147 5.71429 26.3147H0.761905C0.341116 26.3147 0 25.9753 0 25.5567V5.82168C0 5.70677 0.0262568 5.59336 0.0767855 5.49003L2.55298 0.426396Z" fill="white"/>
</svg>
